%TF.GenerationSoftware,KiCad,Pcbnew,9.0.4*%
%TF.CreationDate,2026-02-02T12:57:02-08:00*%
%TF.ProjectId,LDR_Board,4c44525f-426f-4617-9264-2e6b69636164,rev?*%
%TF.SameCoordinates,Original*%
%TF.FileFunction,Soldermask,Top*%
%TF.FilePolarity,Negative*%
%FSLAX46Y46*%
G04 Gerber Fmt 4.6, Leading zero omitted, Abs format (unit mm)*
G04 Created by KiCad (PCBNEW 9.0.4) date 2026-02-02 12:57:02*
%MOMM*%
%LPD*%
G01*
G04 APERTURE LIST*
%ADD10C,1.600000*%
%ADD11R,1.700000X1.700000*%
%ADD12C,1.700000*%
%ADD13C,6.400000*%
%ADD14R,1.800000X1.800000*%
%ADD15C,1.800000*%
G04 APERTURE END LIST*
D10*
%TO.C,R13*%
X185420000Y-111760000D03*
X185420000Y-114760000D03*
%TD*%
D11*
%TO.C,J1*%
X147320000Y-81280000D03*
D12*
X149860000Y-81280000D03*
X152400000Y-81280000D03*
X154940000Y-81280000D03*
X157480000Y-81280000D03*
X160020000Y-81280000D03*
X162560000Y-81280000D03*
%TD*%
D10*
%TO.C,R7*%
X200660000Y-91440000D03*
X200660000Y-101600000D03*
%TD*%
%TO.C,R8*%
X109220000Y-111760000D03*
X109220000Y-114760000D03*
%TD*%
%TO.C,R10*%
X139700000Y-111760000D03*
X139700000Y-114760000D03*
%TD*%
%TO.C,R5*%
X170180000Y-91440000D03*
X170180000Y-101600000D03*
%TD*%
%TO.C,R1*%
X116840000Y-91440000D03*
X116840000Y-101600000D03*
%TD*%
%TO.C,R11*%
X154940000Y-111760000D03*
X154940000Y-114760000D03*
%TD*%
%TO.C,R14*%
X200660000Y-111760000D03*
X200660000Y-114760000D03*
%TD*%
D13*
%TO.C,H1*%
X101600000Y-121920000D03*
%TD*%
D10*
%TO.C,R3*%
X139700000Y-91440000D03*
X139700000Y-101600000D03*
%TD*%
D14*
%TO.C,D3*%
X147320000Y-111760000D03*
D15*
X147320000Y-114300000D03*
%TD*%
D14*
%TO.C,D5*%
X177800000Y-111760000D03*
D15*
X177800000Y-114300000D03*
%TD*%
D13*
%TO.C,H2*%
X101600000Y-76200000D03*
%TD*%
D10*
%TO.C,R4*%
X149860000Y-91440000D03*
X149860000Y-101600000D03*
%TD*%
D14*
%TO.C,D1*%
X116840000Y-111760000D03*
D15*
X116840000Y-114300000D03*
%TD*%
D14*
%TO.C,D6*%
X193040000Y-111760000D03*
D15*
X193040000Y-114300000D03*
%TD*%
D10*
%TO.C,R9*%
X124460000Y-111760000D03*
X124460000Y-114760000D03*
%TD*%
D14*
%TO.C,D2*%
X132080000Y-111760000D03*
D15*
X132080000Y-114300000D03*
%TD*%
D10*
%TO.C,R12*%
X170180000Y-111760000D03*
X170180000Y-114760000D03*
%TD*%
%TO.C,R6*%
X185420000Y-91440000D03*
X185420000Y-101600000D03*
%TD*%
D13*
%TO.C,H4*%
X208280000Y-121920000D03*
%TD*%
D10*
%TO.C,R2*%
X124460000Y-91440000D03*
X124460000Y-101600000D03*
%TD*%
%TO.C,R15*%
X109220000Y-91440000D03*
X109220000Y-101600000D03*
%TD*%
D14*
%TO.C,D4*%
X162560000Y-111760000D03*
D15*
X162560000Y-114300000D03*
%TD*%
D13*
%TO.C,H3*%
X208280000Y-76200000D03*
%TD*%
D11*
%TO.C,J2*%
X160020000Y-96520000D03*
D12*
X160020000Y-99060000D03*
%TD*%
M02*
