%TF.GenerationSoftware,KiCad,Pcbnew,9.0.4*%
%TF.CreationDate,2026-02-02T12:57:02-08:00*%
%TF.ProjectId,LDR_Board,4c44525f-426f-4617-9264-2e6b69636164,rev?*%
%TF.SameCoordinates,Original*%
%TF.FileFunction,Copper,L1,Top*%
%TF.FilePolarity,Positive*%
%FSLAX46Y46*%
G04 Gerber Fmt 4.6, Leading zero omitted, Abs format (unit mm)*
G04 Created by KiCad (PCBNEW 9.0.4) date 2026-02-02 12:57:02*
%MOMM*%
%LPD*%
G01*
G04 APERTURE LIST*
%TA.AperFunction,ComponentPad*%
%ADD10C,1.600000*%
%TD*%
%TA.AperFunction,ComponentPad*%
%ADD11R,1.700000X1.700000*%
%TD*%
%TA.AperFunction,ComponentPad*%
%ADD12C,1.700000*%
%TD*%
%TA.AperFunction,ComponentPad*%
%ADD13C,6.400000*%
%TD*%
%TA.AperFunction,ComponentPad*%
%ADD14R,1.800000X1.800000*%
%TD*%
%TA.AperFunction,ComponentPad*%
%ADD15C,1.800000*%
%TD*%
%TA.AperFunction,Conductor*%
%ADD16C,1.000000*%
%TD*%
G04 APERTURE END LIST*
D10*
%TO.P,R13,1*%
%TO.N,/A13*%
X185420000Y-111760000D03*
%TO.P,R13,2*%
%TO.N,GND*%
X185420000Y-114760000D03*
%TD*%
D11*
%TO.P,J1,1,Pin_1*%
%TO.N,/A8*%
X147320000Y-81280000D03*
D12*
%TO.P,J1,2,Pin_2*%
%TO.N,/A9*%
X149860000Y-81280000D03*
%TO.P,J1,3,Pin_3*%
%TO.N,/A10*%
X152400000Y-81280000D03*
%TO.P,J1,4,Pin_4*%
%TO.N,/A11*%
X154940000Y-81280000D03*
%TO.P,J1,5,Pin_5*%
%TO.N,/A12*%
X157480000Y-81280000D03*
%TO.P,J1,6,Pin_6*%
%TO.N,/A13*%
X160020000Y-81280000D03*
%TO.P,J1,7,Pin_7*%
%TO.N,/A14*%
X162560000Y-81280000D03*
%TD*%
D10*
%TO.P,R7,1*%
%TO.N,VCC*%
X200660000Y-91440000D03*
%TO.P,R7,2*%
%TO.N,/A14*%
X200660000Y-101600000D03*
%TD*%
%TO.P,R8,1*%
%TO.N,/A8*%
X109220000Y-111760000D03*
%TO.P,R8,2*%
%TO.N,GND*%
X109220000Y-114760000D03*
%TD*%
%TO.P,R10,1*%
%TO.N,/A10*%
X139700000Y-111760000D03*
%TO.P,R10,2*%
%TO.N,GND*%
X139700000Y-114760000D03*
%TD*%
%TO.P,R5,1*%
%TO.N,VCC*%
X170180000Y-91440000D03*
%TO.P,R5,2*%
%TO.N,/A12*%
X170180000Y-101600000D03*
%TD*%
%TO.P,R1,1*%
%TO.N,VCC*%
X116840000Y-91440000D03*
%TO.P,R1,2*%
%TO.N,/A8*%
X116840000Y-101600000D03*
%TD*%
%TO.P,R11,1*%
%TO.N,/A11*%
X154940000Y-111760000D03*
%TO.P,R11,2*%
%TO.N,GND*%
X154940000Y-114760000D03*
%TD*%
%TO.P,R14,1*%
%TO.N,/A14*%
X200660000Y-111760000D03*
%TO.P,R14,2*%
%TO.N,GND*%
X200660000Y-114760000D03*
%TD*%
D13*
%TO.P,H1,1,1*%
%TO.N,GND*%
X101600000Y-121920000D03*
%TD*%
D10*
%TO.P,R3,1*%
%TO.N,VCC*%
X139700000Y-91440000D03*
%TO.P,R3,2*%
%TO.N,/A10*%
X139700000Y-101600000D03*
%TD*%
D14*
%TO.P,D3,1,K*%
%TO.N,GND*%
X147320000Y-111760000D03*
D15*
%TO.P,D3,2,A*%
%TO.N,Net-(D1-A)*%
X147320000Y-114300000D03*
%TD*%
D14*
%TO.P,D5,1,K*%
%TO.N,GND*%
X177800000Y-111760000D03*
D15*
%TO.P,D5,2,A*%
%TO.N,Net-(D1-A)*%
X177800000Y-114300000D03*
%TD*%
D13*
%TO.P,H2,1,1*%
%TO.N,GND*%
X101600000Y-76200000D03*
%TD*%
D10*
%TO.P,R4,1*%
%TO.N,VCC*%
X149860000Y-91440000D03*
%TO.P,R4,2*%
%TO.N,/A11*%
X149860000Y-101600000D03*
%TD*%
D14*
%TO.P,D1,1,K*%
%TO.N,GND*%
X116840000Y-111760000D03*
D15*
%TO.P,D1,2,A*%
%TO.N,Net-(D1-A)*%
X116840000Y-114300000D03*
%TD*%
D14*
%TO.P,D6,1,K*%
%TO.N,GND*%
X193040000Y-111760000D03*
D15*
%TO.P,D6,2,A*%
%TO.N,Net-(D1-A)*%
X193040000Y-114300000D03*
%TD*%
D10*
%TO.P,R9,1*%
%TO.N,/A9*%
X124460000Y-111760000D03*
%TO.P,R9,2*%
%TO.N,GND*%
X124460000Y-114760000D03*
%TD*%
D14*
%TO.P,D2,1,K*%
%TO.N,GND*%
X132080000Y-111760000D03*
D15*
%TO.P,D2,2,A*%
%TO.N,Net-(D1-A)*%
X132080000Y-114300000D03*
%TD*%
D10*
%TO.P,R12,1*%
%TO.N,/A12*%
X170180000Y-111760000D03*
%TO.P,R12,2*%
%TO.N,GND*%
X170180000Y-114760000D03*
%TD*%
%TO.P,R6,1*%
%TO.N,VCC*%
X185420000Y-91440000D03*
%TO.P,R6,2*%
%TO.N,/A13*%
X185420000Y-101600000D03*
%TD*%
D13*
%TO.P,H4,1,1*%
%TO.N,GND*%
X208280000Y-121920000D03*
%TD*%
D10*
%TO.P,R2,1*%
%TO.N,VCC*%
X124460000Y-91440000D03*
%TO.P,R2,2*%
%TO.N,/A9*%
X124460000Y-101600000D03*
%TD*%
%TO.P,R15,1*%
%TO.N,VCC*%
X109220000Y-91440000D03*
%TO.P,R15,2*%
%TO.N,Net-(D1-A)*%
X109220000Y-101600000D03*
%TD*%
D14*
%TO.P,D4,1,K*%
%TO.N,GND*%
X162560000Y-111760000D03*
D15*
%TO.P,D4,2,A*%
%TO.N,Net-(D1-A)*%
X162560000Y-114300000D03*
%TD*%
D13*
%TO.P,H3,1,1*%
%TO.N,GND*%
X208280000Y-76200000D03*
%TD*%
D11*
%TO.P,J2,1,Pin_1*%
%TO.N,VCC*%
X160020000Y-96520000D03*
D12*
%TO.P,J2,2,Pin_2*%
%TO.N,GND*%
X160020000Y-99060000D03*
%TD*%
D16*
%TO.N,Net-(D1-A)*%
X147320000Y-114300000D02*
X149860000Y-116840000D01*
X132080000Y-114300000D02*
X129540000Y-116840000D01*
X114300000Y-116840000D02*
X119380000Y-116840000D01*
X106680000Y-116840000D02*
X114300000Y-116840000D01*
X116840000Y-114300000D02*
X114300000Y-116840000D01*
X134620000Y-116840000D02*
X144780000Y-116840000D01*
X160020000Y-116840000D02*
X165100000Y-116840000D01*
X147320000Y-114300000D02*
X144780000Y-116840000D01*
X132080000Y-114300000D02*
X134620000Y-116840000D01*
X175260000Y-116840000D02*
X180340000Y-116840000D01*
X119380000Y-116840000D02*
X129540000Y-116840000D01*
X104140000Y-114300000D02*
X106680000Y-116840000D01*
X109220000Y-101600000D02*
X104140000Y-106680000D01*
X162560000Y-114300000D02*
X160020000Y-116840000D01*
X116840000Y-114300000D02*
X119380000Y-116840000D01*
X165100000Y-116840000D02*
X175260000Y-116840000D01*
X129540000Y-116840000D02*
X134620000Y-116840000D01*
X144780000Y-116840000D02*
X149860000Y-116840000D01*
X180340000Y-116840000D02*
X190500000Y-116840000D01*
X177800000Y-114300000D02*
X175260000Y-116840000D01*
X104140000Y-106680000D02*
X104140000Y-114300000D01*
X177800000Y-114300000D02*
X180340000Y-116840000D01*
X149860000Y-116840000D02*
X160020000Y-116840000D01*
X162560000Y-114300000D02*
X165100000Y-116840000D01*
X190500000Y-116840000D02*
X193040000Y-114300000D01*
%TO.N,/A8*%
X137160000Y-81280000D02*
X147320000Y-81280000D01*
X109220000Y-109220000D02*
X109220000Y-111760000D01*
X116840000Y-101600000D02*
X137160000Y-81280000D01*
X116840000Y-101600000D02*
X109220000Y-109220000D01*
%TO.N,/A9*%
X124460000Y-101600000D02*
X142240000Y-83820000D01*
X147882000Y-83820000D02*
X149860000Y-81842000D01*
X142240000Y-83820000D02*
X147882000Y-83820000D01*
X124460000Y-101600000D02*
X124460000Y-111760000D01*
X149860000Y-81842000D02*
X149860000Y-81280000D01*
%TO.N,/A14*%
X180340000Y-81280000D02*
X162560000Y-81280000D01*
X200660000Y-101600000D02*
X200660000Y-111760000D01*
X200660000Y-101600000D02*
X180340000Y-81280000D01*
%TO.N,/A10*%
X139700000Y-101600000D02*
X139700000Y-93980000D01*
X139700000Y-93980000D02*
X152400000Y-81280000D01*
X139700000Y-101600000D02*
X139700000Y-111760000D01*
%TO.N,/A13*%
X161571000Y-82831000D02*
X160020000Y-81280000D01*
X166651000Y-82831000D02*
X161571000Y-82831000D01*
X185420000Y-101600000D02*
X166651000Y-82831000D01*
X185420000Y-101600000D02*
X185420000Y-111760000D01*
%TO.N,/A11*%
X149860000Y-104140000D02*
X154940000Y-109220000D01*
X149860000Y-101600000D02*
X149860000Y-93980000D01*
X154940000Y-109220000D02*
X154940000Y-111760000D01*
X149860000Y-101600000D02*
X149860000Y-104140000D01*
X154940000Y-88900000D02*
X154940000Y-81280000D01*
X149860000Y-93980000D02*
X154940000Y-88900000D01*
%TO.N,/A12*%
X170180000Y-93980000D02*
X157480000Y-81280000D01*
X170180000Y-101600000D02*
X170180000Y-93980000D01*
X170180000Y-101600000D02*
X170180000Y-111760000D01*
%TD*%
%TA.AperFunction,NonConductor*%
G36*
X210363472Y-71420695D02*
G01*
X210655306Y-71437084D01*
X210669103Y-71438638D01*
X210953827Y-71487015D01*
X210967384Y-71490109D01*
X211244899Y-71570060D01*
X211258025Y-71574653D01*
X211524841Y-71685172D01*
X211537355Y-71691198D01*
X211703444Y-71782992D01*
X211790125Y-71830899D01*
X211801899Y-71838297D01*
X212037430Y-72005415D01*
X212048302Y-72014085D01*
X212263642Y-72206524D01*
X212273475Y-72216357D01*
X212465914Y-72431697D01*
X212474584Y-72442569D01*
X212641702Y-72678100D01*
X212649100Y-72689874D01*
X212788797Y-72942637D01*
X212794830Y-72955165D01*
X212905346Y-73221975D01*
X212909939Y-73235100D01*
X212989890Y-73512615D01*
X212992984Y-73526172D01*
X213041359Y-73810885D01*
X213042916Y-73824703D01*
X213059305Y-74116527D01*
X213059500Y-74123480D01*
X213059500Y-123996519D01*
X213059305Y-124003472D01*
X213042916Y-124295296D01*
X213041359Y-124309114D01*
X212992984Y-124593827D01*
X212989890Y-124607384D01*
X212909939Y-124884899D01*
X212905346Y-124898024D01*
X212794830Y-125164834D01*
X212788797Y-125177362D01*
X212649100Y-125430125D01*
X212641702Y-125441899D01*
X212474584Y-125677430D01*
X212465914Y-125688302D01*
X212273475Y-125903642D01*
X212263642Y-125913475D01*
X212048302Y-126105914D01*
X212037430Y-126114584D01*
X211801899Y-126281702D01*
X211790125Y-126289100D01*
X211537362Y-126428797D01*
X211524834Y-126434830D01*
X211258024Y-126545346D01*
X211244899Y-126549939D01*
X210967384Y-126629890D01*
X210953827Y-126632984D01*
X210669114Y-126681359D01*
X210655296Y-126682916D01*
X210363472Y-126699305D01*
X210356519Y-126699500D01*
X99523481Y-126699500D01*
X99516528Y-126699305D01*
X99224703Y-126682916D01*
X99210885Y-126681359D01*
X98926172Y-126632984D01*
X98912615Y-126629890D01*
X98635100Y-126549939D01*
X98621975Y-126545346D01*
X98355165Y-126434830D01*
X98342637Y-126428797D01*
X98089874Y-126289100D01*
X98078100Y-126281702D01*
X97842569Y-126114584D01*
X97831697Y-126105914D01*
X97616357Y-125913475D01*
X97606524Y-125903642D01*
X97414085Y-125688302D01*
X97405415Y-125677430D01*
X97238297Y-125441899D01*
X97230899Y-125430125D01*
X97091202Y-125177362D01*
X97085172Y-125164841D01*
X96974653Y-124898024D01*
X96970060Y-124884899D01*
X96890109Y-124607384D01*
X96887015Y-124593827D01*
X96855459Y-124408101D01*
X96838638Y-124309103D01*
X96837084Y-124295306D01*
X96820695Y-124003472D01*
X96820500Y-123996519D01*
X96820500Y-121738209D01*
X97899500Y-121738209D01*
X97899500Y-122101790D01*
X97935137Y-122463630D01*
X98006064Y-122820212D01*
X98006067Y-122820223D01*
X98111614Y-123168165D01*
X98250754Y-123504078D01*
X98250756Y-123504083D01*
X98422140Y-123824720D01*
X98422151Y-123824738D01*
X98624140Y-124127035D01*
X98624150Y-124127049D01*
X98854807Y-124408106D01*
X99111893Y-124665192D01*
X99111898Y-124665196D01*
X99111899Y-124665197D01*
X99392956Y-124895854D01*
X99695268Y-125097853D01*
X99695277Y-125097858D01*
X99695279Y-125097859D01*
X100015916Y-125269243D01*
X100015918Y-125269243D01*
X100015924Y-125269247D01*
X100351836Y-125408386D01*
X100699767Y-125513930D01*
X100699773Y-125513931D01*
X100699776Y-125513932D01*
X100699787Y-125513935D01*
X101056369Y-125584862D01*
X101418206Y-125620500D01*
X101418209Y-125620500D01*
X101781791Y-125620500D01*
X101781794Y-125620500D01*
X102143631Y-125584862D01*
X102213045Y-125571054D01*
X102500212Y-125513935D01*
X102500223Y-125513932D01*
X102500223Y-125513931D01*
X102500233Y-125513930D01*
X102848164Y-125408386D01*
X103184076Y-125269247D01*
X103504732Y-125097853D01*
X103807044Y-124895854D01*
X104088101Y-124665197D01*
X104345197Y-124408101D01*
X104575854Y-124127044D01*
X104777853Y-123824732D01*
X104949247Y-123504076D01*
X105088386Y-123168164D01*
X105193930Y-122820233D01*
X105193932Y-122820223D01*
X105193935Y-122820212D01*
X105264862Y-122463630D01*
X105300500Y-122101790D01*
X105300500Y-121738209D01*
X204579500Y-121738209D01*
X204579500Y-122101790D01*
X204615137Y-122463630D01*
X204686064Y-122820212D01*
X204686067Y-122820223D01*
X204791614Y-123168165D01*
X204930754Y-123504078D01*
X204930756Y-123504083D01*
X205102140Y-123824720D01*
X205102151Y-123824738D01*
X205304140Y-124127035D01*
X205304150Y-124127049D01*
X205534807Y-124408106D01*
X205791893Y-124665192D01*
X205791898Y-124665196D01*
X205791899Y-124665197D01*
X206072956Y-124895854D01*
X206375268Y-125097853D01*
X206375277Y-125097858D01*
X206375279Y-125097859D01*
X206695916Y-125269243D01*
X206695918Y-125269243D01*
X206695924Y-125269247D01*
X207031836Y-125408386D01*
X207379767Y-125513930D01*
X207379773Y-125513931D01*
X207379776Y-125513932D01*
X207379787Y-125513935D01*
X207736369Y-125584862D01*
X208098206Y-125620500D01*
X208098209Y-125620500D01*
X208461791Y-125620500D01*
X208461794Y-125620500D01*
X208823631Y-125584862D01*
X208893045Y-125571054D01*
X209180212Y-125513935D01*
X209180223Y-125513932D01*
X209180223Y-125513931D01*
X209180233Y-125513930D01*
X209528164Y-125408386D01*
X209864076Y-125269247D01*
X210184732Y-125097853D01*
X210487044Y-124895854D01*
X210768101Y-124665197D01*
X211025197Y-124408101D01*
X211255854Y-124127044D01*
X211457853Y-123824732D01*
X211629247Y-123504076D01*
X211768386Y-123168164D01*
X211873930Y-122820233D01*
X211873932Y-122820223D01*
X211873935Y-122820212D01*
X211944862Y-122463630D01*
X211980500Y-122101790D01*
X211980500Y-121738209D01*
X211944862Y-121376369D01*
X211873935Y-121019787D01*
X211873932Y-121019776D01*
X211873931Y-121019773D01*
X211873930Y-121019767D01*
X211768386Y-120671836D01*
X211629247Y-120335924D01*
X211457853Y-120015268D01*
X211255854Y-119712956D01*
X211025197Y-119431899D01*
X211025196Y-119431898D01*
X211025192Y-119431893D01*
X210768106Y-119174807D01*
X210487049Y-118944150D01*
X210487048Y-118944149D01*
X210487044Y-118944146D01*
X210184732Y-118742147D01*
X210184727Y-118742144D01*
X210184720Y-118742140D01*
X209864083Y-118570756D01*
X209864078Y-118570754D01*
X209528165Y-118431614D01*
X209180223Y-118326067D01*
X209180212Y-118326064D01*
X208823630Y-118255137D01*
X208551111Y-118228296D01*
X208461794Y-118219500D01*
X208098206Y-118219500D01*
X208015679Y-118227628D01*
X207736369Y-118255137D01*
X207379787Y-118326064D01*
X207379776Y-118326067D01*
X207031834Y-118431614D01*
X206695921Y-118570754D01*
X206695916Y-118570756D01*
X206375279Y-118742140D01*
X206375261Y-118742151D01*
X206072964Y-118944140D01*
X206072950Y-118944150D01*
X205791893Y-119174807D01*
X205534807Y-119431893D01*
X205304150Y-119712950D01*
X205304140Y-119712964D01*
X205102151Y-120015261D01*
X205102140Y-120015279D01*
X204930756Y-120335916D01*
X204930754Y-120335921D01*
X204791614Y-120671834D01*
X204686067Y-121019776D01*
X204686064Y-121019787D01*
X204615137Y-121376369D01*
X204579500Y-121738209D01*
X105300500Y-121738209D01*
X105264862Y-121376369D01*
X105193935Y-121019787D01*
X105193932Y-121019776D01*
X105193931Y-121019773D01*
X105193930Y-121019767D01*
X105088386Y-120671836D01*
X104949247Y-120335924D01*
X104777853Y-120015268D01*
X104575854Y-119712956D01*
X104345197Y-119431899D01*
X104345196Y-119431898D01*
X104345192Y-119431893D01*
X104088106Y-119174807D01*
X103807049Y-118944150D01*
X103807048Y-118944149D01*
X103807044Y-118944146D01*
X103504732Y-118742147D01*
X103504727Y-118742144D01*
X103504720Y-118742140D01*
X103184083Y-118570756D01*
X103184078Y-118570754D01*
X102848165Y-118431614D01*
X102500223Y-118326067D01*
X102500212Y-118326064D01*
X102143630Y-118255137D01*
X101871111Y-118228296D01*
X101781794Y-118219500D01*
X101418206Y-118219500D01*
X101335679Y-118227628D01*
X101056369Y-118255137D01*
X100699787Y-118326064D01*
X100699776Y-118326067D01*
X100351834Y-118431614D01*
X100015921Y-118570754D01*
X100015916Y-118570756D01*
X99695279Y-118742140D01*
X99695261Y-118742151D01*
X99392964Y-118944140D01*
X99392950Y-118944150D01*
X99111893Y-119174807D01*
X98854807Y-119431893D01*
X98624150Y-119712950D01*
X98624140Y-119712964D01*
X98422151Y-120015261D01*
X98422140Y-120015279D01*
X98250756Y-120335916D01*
X98250754Y-120335921D01*
X98111614Y-120671834D01*
X98006067Y-121019776D01*
X98006064Y-121019787D01*
X97935137Y-121376369D01*
X97899500Y-121738209D01*
X96820500Y-121738209D01*
X96820500Y-106581456D01*
X103139500Y-106581456D01*
X103139500Y-114398544D01*
X103177947Y-114591833D01*
X103177949Y-114591837D01*
X103200038Y-114645164D01*
X103253366Y-114773911D01*
X103253371Y-114773920D01*
X103362859Y-114937780D01*
X103362860Y-114937781D01*
X103362861Y-114937782D01*
X103502218Y-115077139D01*
X103502219Y-115077139D01*
X103509286Y-115084206D01*
X103509285Y-115084206D01*
X103509288Y-115084208D01*
X105902860Y-117477781D01*
X105902861Y-117477782D01*
X106042218Y-117617139D01*
X106206086Y-117726632D01*
X106312745Y-117770811D01*
X106388164Y-117802051D01*
X106581454Y-117840499D01*
X106581457Y-117840500D01*
X106581459Y-117840500D01*
X190598542Y-117840500D01*
X190629566Y-117834328D01*
X190695188Y-117821275D01*
X190791836Y-117802051D01*
X190845165Y-117779961D01*
X190973914Y-117726632D01*
X191137782Y-117617139D01*
X191277139Y-117477782D01*
X191277139Y-117477780D01*
X191287347Y-117467573D01*
X191287348Y-117467570D01*
X193018102Y-115736819D01*
X193079425Y-115703334D01*
X193105783Y-115700500D01*
X193150221Y-115700500D01*
X193150222Y-115700500D01*
X193367951Y-115666015D01*
X193577606Y-115597895D01*
X193774022Y-115497815D01*
X193952365Y-115368242D01*
X194108242Y-115212365D01*
X194237815Y-115034022D01*
X194337895Y-114837606D01*
X194396366Y-114657648D01*
X199359500Y-114657648D01*
X199359500Y-114862351D01*
X199391522Y-115064534D01*
X199454781Y-115259223D01*
X199547715Y-115441613D01*
X199668028Y-115607213D01*
X199812786Y-115751971D01*
X199929361Y-115836666D01*
X199978390Y-115872287D01*
X200094607Y-115931503D01*
X200160776Y-115965218D01*
X200160778Y-115965218D01*
X200160781Y-115965220D01*
X200265137Y-115999127D01*
X200355465Y-116028477D01*
X200456557Y-116044488D01*
X200557648Y-116060500D01*
X200557649Y-116060500D01*
X200762351Y-116060500D01*
X200762352Y-116060500D01*
X200964534Y-116028477D01*
X201159219Y-115965220D01*
X201341610Y-115872287D01*
X201436727Y-115803181D01*
X201507213Y-115751971D01*
X201507215Y-115751968D01*
X201507219Y-115751966D01*
X201651966Y-115607219D01*
X201651968Y-115607215D01*
X201651971Y-115607213D01*
X201731454Y-115497812D01*
X201772287Y-115441610D01*
X201865220Y-115259219D01*
X201928477Y-115064534D01*
X201960500Y-114862352D01*
X201960500Y-114657648D01*
X201928477Y-114455466D01*
X201865220Y-114260781D01*
X201865218Y-114260778D01*
X201865218Y-114260776D01*
X201829042Y-114189778D01*
X201772287Y-114078390D01*
X201764556Y-114067749D01*
X201651971Y-113912786D01*
X201507213Y-113768028D01*
X201341613Y-113647715D01*
X201341612Y-113647714D01*
X201341610Y-113647713D01*
X201284653Y-113618691D01*
X201159223Y-113554781D01*
X200964534Y-113491522D01*
X200789995Y-113463878D01*
X200762352Y-113459500D01*
X200557648Y-113459500D01*
X200533329Y-113463351D01*
X200355465Y-113491522D01*
X200160776Y-113554781D01*
X199978386Y-113647715D01*
X199812786Y-113768028D01*
X199668028Y-113912786D01*
X199547715Y-114078386D01*
X199454781Y-114260776D01*
X199391522Y-114455465D01*
X199359500Y-114657648D01*
X194396366Y-114657648D01*
X194406015Y-114627951D01*
X194440500Y-114410222D01*
X194440500Y-114189778D01*
X194406015Y-113972049D01*
X194337895Y-113762394D01*
X194337895Y-113762393D01*
X194303237Y-113694375D01*
X194237815Y-113565978D01*
X194160455Y-113459500D01*
X194108247Y-113387641D01*
X194108243Y-113387636D01*
X194058071Y-113337464D01*
X194024586Y-113276141D01*
X194029570Y-113206449D01*
X194071442Y-113150516D01*
X194102420Y-113133601D01*
X194182326Y-113103798D01*
X194182326Y-113103797D01*
X194182331Y-113103796D01*
X194297546Y-113017546D01*
X194383796Y-112902331D01*
X194434091Y-112767483D01*
X194440500Y-112707873D01*
X194440499Y-110812128D01*
X194434091Y-110752517D01*
X194383796Y-110617669D01*
X194383795Y-110617668D01*
X194383793Y-110617664D01*
X194297547Y-110502455D01*
X194297544Y-110502452D01*
X194182335Y-110416206D01*
X194182328Y-110416202D01*
X194047482Y-110365908D01*
X194047483Y-110365908D01*
X193987883Y-110359501D01*
X193987881Y-110359500D01*
X193987873Y-110359500D01*
X193987864Y-110359500D01*
X192092129Y-110359500D01*
X192092123Y-110359501D01*
X192032516Y-110365908D01*
X191897671Y-110416202D01*
X191897664Y-110416206D01*
X191782455Y-110502452D01*
X191782452Y-110502455D01*
X191696206Y-110617664D01*
X191696202Y-110617671D01*
X191645908Y-110752517D01*
X191639501Y-110812116D01*
X191639501Y-110812123D01*
X191639500Y-110812135D01*
X191639500Y-112707870D01*
X191639501Y-112707876D01*
X191645908Y-112767483D01*
X191696202Y-112902328D01*
X191696206Y-112902335D01*
X191782452Y-113017544D01*
X191782455Y-113017547D01*
X191897664Y-113103793D01*
X191897671Y-113103797D01*
X191977580Y-113133601D01*
X192033514Y-113175472D01*
X192057931Y-113240936D01*
X192043080Y-113309209D01*
X192021929Y-113337463D01*
X191971756Y-113387636D01*
X191971752Y-113387641D01*
X191842187Y-113565974D01*
X191742104Y-113762393D01*
X191742103Y-113762396D01*
X191673985Y-113972047D01*
X191639500Y-114189778D01*
X191639500Y-114234217D01*
X191619815Y-114301256D01*
X191603181Y-114321898D01*
X190121899Y-115803181D01*
X190060576Y-115836666D01*
X190034218Y-115839500D01*
X186479047Y-115839500D01*
X186412008Y-115819815D01*
X186366253Y-115767011D01*
X186356309Y-115697853D01*
X186385334Y-115634297D01*
X186391366Y-115627819D01*
X186411966Y-115607219D01*
X186411968Y-115607215D01*
X186411971Y-115607213D01*
X186491454Y-115497812D01*
X186532287Y-115441610D01*
X186625220Y-115259219D01*
X186688477Y-115064534D01*
X186720500Y-114862352D01*
X186720500Y-114657648D01*
X186688477Y-114455466D01*
X186625220Y-114260781D01*
X186625218Y-114260778D01*
X186625218Y-114260776D01*
X186589042Y-114189778D01*
X186532287Y-114078390D01*
X186524556Y-114067749D01*
X186411971Y-113912786D01*
X186267213Y-113768028D01*
X186101613Y-113647715D01*
X186101612Y-113647714D01*
X186101610Y-113647713D01*
X186044653Y-113618691D01*
X185919223Y-113554781D01*
X185724534Y-113491522D01*
X185549995Y-113463878D01*
X185522352Y-113459500D01*
X185317648Y-113459500D01*
X185293329Y-113463351D01*
X185115465Y-113491522D01*
X184920776Y-113554781D01*
X184738386Y-113647715D01*
X184572786Y-113768028D01*
X184428028Y-113912786D01*
X184307715Y-114078386D01*
X184214781Y-114260776D01*
X184151522Y-114455465D01*
X184119500Y-114657648D01*
X184119500Y-114862351D01*
X184151522Y-115064534D01*
X184214781Y-115259223D01*
X184307715Y-115441613D01*
X184428028Y-115607213D01*
X184448634Y-115627819D01*
X184482119Y-115689142D01*
X184477135Y-115758834D01*
X184435263Y-115814767D01*
X184369799Y-115839184D01*
X184360953Y-115839500D01*
X180805783Y-115839500D01*
X180738744Y-115819815D01*
X180718102Y-115803181D01*
X179236819Y-114321898D01*
X179203334Y-114260575D01*
X179200500Y-114234217D01*
X179200500Y-114189778D01*
X179166015Y-113972049D01*
X179097895Y-113762394D01*
X179097895Y-113762393D01*
X179063237Y-113694375D01*
X178997815Y-113565978D01*
X178920455Y-113459500D01*
X178868247Y-113387641D01*
X178868243Y-113387636D01*
X178818071Y-113337464D01*
X178784586Y-113276141D01*
X178789570Y-113206449D01*
X178831442Y-113150516D01*
X178862420Y-113133601D01*
X178942326Y-113103798D01*
X178942326Y-113103797D01*
X178942331Y-113103796D01*
X179057546Y-113017546D01*
X179143796Y-112902331D01*
X179194091Y-112767483D01*
X179200500Y-112707873D01*
X179200499Y-110812128D01*
X179194091Y-110752517D01*
X179143796Y-110617669D01*
X179143795Y-110617668D01*
X179143793Y-110617664D01*
X179057547Y-110502455D01*
X179057544Y-110502452D01*
X178942335Y-110416206D01*
X178942328Y-110416202D01*
X178807482Y-110365908D01*
X178807483Y-110365908D01*
X178747883Y-110359501D01*
X178747881Y-110359500D01*
X178747873Y-110359500D01*
X178747864Y-110359500D01*
X176852129Y-110359500D01*
X176852123Y-110359501D01*
X176792516Y-110365908D01*
X176657671Y-110416202D01*
X176657664Y-110416206D01*
X176542455Y-110502452D01*
X176542452Y-110502455D01*
X176456206Y-110617664D01*
X176456202Y-110617671D01*
X176405908Y-110752517D01*
X176399501Y-110812116D01*
X176399501Y-110812123D01*
X176399500Y-110812135D01*
X176399500Y-112707870D01*
X176399501Y-112707876D01*
X176405908Y-112767483D01*
X176456202Y-112902328D01*
X176456206Y-112902335D01*
X176542452Y-113017544D01*
X176542455Y-113017547D01*
X176657664Y-113103793D01*
X176657671Y-113103797D01*
X176737580Y-113133601D01*
X176793514Y-113175472D01*
X176817931Y-113240936D01*
X176803080Y-113309209D01*
X176781929Y-113337463D01*
X176731756Y-113387636D01*
X176731752Y-113387641D01*
X176602187Y-113565974D01*
X176502104Y-113762393D01*
X176502103Y-113762396D01*
X176433985Y-113972047D01*
X176399500Y-114189778D01*
X176399500Y-114234217D01*
X176379815Y-114301256D01*
X176363181Y-114321898D01*
X174881899Y-115803181D01*
X174820576Y-115836666D01*
X174794218Y-115839500D01*
X171239047Y-115839500D01*
X171172008Y-115819815D01*
X171126253Y-115767011D01*
X171116309Y-115697853D01*
X171145334Y-115634297D01*
X171151366Y-115627819D01*
X171171966Y-115607219D01*
X171171968Y-115607215D01*
X171171971Y-115607213D01*
X171251454Y-115497812D01*
X171292287Y-115441610D01*
X171385220Y-115259219D01*
X171448477Y-115064534D01*
X171480500Y-114862352D01*
X171480500Y-114657648D01*
X171448477Y-114455466D01*
X171385220Y-114260781D01*
X171385218Y-114260778D01*
X171385218Y-114260776D01*
X171349042Y-114189778D01*
X171292287Y-114078390D01*
X171284556Y-114067749D01*
X171171971Y-113912786D01*
X171027213Y-113768028D01*
X170861613Y-113647715D01*
X170861612Y-113647714D01*
X170861610Y-113647713D01*
X170804653Y-113618691D01*
X170679223Y-113554781D01*
X170484534Y-113491522D01*
X170309995Y-113463878D01*
X170282352Y-113459500D01*
X170077648Y-113459500D01*
X170053329Y-113463351D01*
X169875465Y-113491522D01*
X169680776Y-113554781D01*
X169498386Y-113647715D01*
X169332786Y-113768028D01*
X169188028Y-113912786D01*
X169067715Y-114078386D01*
X168974781Y-114260776D01*
X168911522Y-114455465D01*
X168879500Y-114657648D01*
X168879500Y-114862351D01*
X168911522Y-115064534D01*
X168974781Y-115259223D01*
X169067715Y-115441613D01*
X169188028Y-115607213D01*
X169208634Y-115627819D01*
X169242119Y-115689142D01*
X169237135Y-115758834D01*
X169195263Y-115814767D01*
X169129799Y-115839184D01*
X169120953Y-115839500D01*
X165565783Y-115839500D01*
X165498744Y-115819815D01*
X165478102Y-115803181D01*
X163996819Y-114321898D01*
X163963334Y-114260575D01*
X163960500Y-114234217D01*
X163960500Y-114189778D01*
X163926015Y-113972049D01*
X163857895Y-113762394D01*
X163857895Y-113762393D01*
X163823237Y-113694375D01*
X163757815Y-113565978D01*
X163680455Y-113459500D01*
X163628247Y-113387641D01*
X163628243Y-113387636D01*
X163578071Y-113337464D01*
X163544586Y-113276141D01*
X163549570Y-113206449D01*
X163591442Y-113150516D01*
X163622420Y-113133601D01*
X163702326Y-113103798D01*
X163702326Y-113103797D01*
X163702331Y-113103796D01*
X163817546Y-113017546D01*
X163903796Y-112902331D01*
X163954091Y-112767483D01*
X163960500Y-112707873D01*
X163960499Y-110812128D01*
X163954091Y-110752517D01*
X163903796Y-110617669D01*
X163903795Y-110617668D01*
X163903793Y-110617664D01*
X163817547Y-110502455D01*
X163817544Y-110502452D01*
X163702335Y-110416206D01*
X163702328Y-110416202D01*
X163567482Y-110365908D01*
X163567483Y-110365908D01*
X163507883Y-110359501D01*
X163507881Y-110359500D01*
X163507873Y-110359500D01*
X163507864Y-110359500D01*
X161612129Y-110359500D01*
X161612123Y-110359501D01*
X161552516Y-110365908D01*
X161417671Y-110416202D01*
X161417664Y-110416206D01*
X161302455Y-110502452D01*
X161302452Y-110502455D01*
X161216206Y-110617664D01*
X161216202Y-110617671D01*
X161165908Y-110752517D01*
X161159501Y-110812116D01*
X161159501Y-110812123D01*
X161159500Y-110812135D01*
X161159500Y-112707870D01*
X161159501Y-112707876D01*
X161165908Y-112767483D01*
X161216202Y-112902328D01*
X161216206Y-112902335D01*
X161302452Y-113017544D01*
X161302455Y-113017547D01*
X161417664Y-113103793D01*
X161417671Y-113103797D01*
X161497580Y-113133601D01*
X161553514Y-113175472D01*
X161577931Y-113240936D01*
X161563080Y-113309209D01*
X161541929Y-113337463D01*
X161491756Y-113387636D01*
X161491752Y-113387641D01*
X161362187Y-113565974D01*
X161262104Y-113762393D01*
X161262103Y-113762396D01*
X161193985Y-113972047D01*
X161159500Y-114189778D01*
X161159500Y-114234217D01*
X161139815Y-114301256D01*
X161123181Y-114321898D01*
X159641899Y-115803181D01*
X159580576Y-115836666D01*
X159554218Y-115839500D01*
X155999047Y-115839500D01*
X155932008Y-115819815D01*
X155886253Y-115767011D01*
X155876309Y-115697853D01*
X155905334Y-115634297D01*
X155911366Y-115627819D01*
X155931966Y-115607219D01*
X155931968Y-115607215D01*
X155931971Y-115607213D01*
X156011454Y-115497812D01*
X156052287Y-115441610D01*
X156145220Y-115259219D01*
X156208477Y-115064534D01*
X156240500Y-114862352D01*
X156240500Y-114657648D01*
X156208477Y-114455466D01*
X156145220Y-114260781D01*
X156145218Y-114260778D01*
X156145218Y-114260776D01*
X156109042Y-114189778D01*
X156052287Y-114078390D01*
X156044556Y-114067749D01*
X155931971Y-113912786D01*
X155787213Y-113768028D01*
X155621613Y-113647715D01*
X155621612Y-113647714D01*
X155621610Y-113647713D01*
X155564653Y-113618691D01*
X155439223Y-113554781D01*
X155244534Y-113491522D01*
X155069995Y-113463878D01*
X155042352Y-113459500D01*
X154837648Y-113459500D01*
X154813329Y-113463351D01*
X154635465Y-113491522D01*
X154440776Y-113554781D01*
X154258386Y-113647715D01*
X154092786Y-113768028D01*
X153948028Y-113912786D01*
X153827715Y-114078386D01*
X153734781Y-114260776D01*
X153671522Y-114455465D01*
X153639500Y-114657648D01*
X153639500Y-114862351D01*
X153671522Y-115064534D01*
X153734781Y-115259223D01*
X153827715Y-115441613D01*
X153948028Y-115607213D01*
X153968634Y-115627819D01*
X154002119Y-115689142D01*
X153997135Y-115758834D01*
X153955263Y-115814767D01*
X153889799Y-115839184D01*
X153880953Y-115839500D01*
X150325783Y-115839500D01*
X150258744Y-115819815D01*
X150238102Y-115803181D01*
X148756819Y-114321898D01*
X148723334Y-114260575D01*
X148720500Y-114234217D01*
X148720500Y-114189778D01*
X148686015Y-113972049D01*
X148617895Y-113762394D01*
X148617895Y-113762393D01*
X148583237Y-113694375D01*
X148517815Y-113565978D01*
X148440455Y-113459500D01*
X148388247Y-113387641D01*
X148388243Y-113387636D01*
X148338071Y-113337464D01*
X148304586Y-113276141D01*
X148309570Y-113206449D01*
X148351442Y-113150516D01*
X148382420Y-113133601D01*
X148462326Y-113103798D01*
X148462326Y-113103797D01*
X148462331Y-113103796D01*
X148577546Y-113017546D01*
X148663796Y-112902331D01*
X148714091Y-112767483D01*
X148720500Y-112707873D01*
X148720499Y-110812128D01*
X148714091Y-110752517D01*
X148663796Y-110617669D01*
X148663795Y-110617668D01*
X148663793Y-110617664D01*
X148577547Y-110502455D01*
X148577544Y-110502452D01*
X148462335Y-110416206D01*
X148462328Y-110416202D01*
X148327482Y-110365908D01*
X148327483Y-110365908D01*
X148267883Y-110359501D01*
X148267881Y-110359500D01*
X148267873Y-110359500D01*
X148267864Y-110359500D01*
X146372129Y-110359500D01*
X146372123Y-110359501D01*
X146312516Y-110365908D01*
X146177671Y-110416202D01*
X146177664Y-110416206D01*
X146062455Y-110502452D01*
X146062452Y-110502455D01*
X145976206Y-110617664D01*
X145976202Y-110617671D01*
X145925908Y-110752517D01*
X145919501Y-110812116D01*
X145919501Y-110812123D01*
X145919500Y-110812135D01*
X145919500Y-112707870D01*
X145919501Y-112707876D01*
X145925908Y-112767483D01*
X145976202Y-112902328D01*
X145976206Y-112902335D01*
X146062452Y-113017544D01*
X146062455Y-113017547D01*
X146177664Y-113103793D01*
X146177671Y-113103797D01*
X146257580Y-113133601D01*
X146313514Y-113175472D01*
X146337931Y-113240936D01*
X146323080Y-113309209D01*
X146301929Y-113337463D01*
X146251756Y-113387636D01*
X146251752Y-113387641D01*
X146122187Y-113565974D01*
X146022104Y-113762393D01*
X146022103Y-113762396D01*
X145953985Y-113972047D01*
X145919500Y-114189778D01*
X145919500Y-114234217D01*
X145899815Y-114301256D01*
X145883181Y-114321898D01*
X144401899Y-115803181D01*
X144340576Y-115836666D01*
X144314218Y-115839500D01*
X140759047Y-115839500D01*
X140692008Y-115819815D01*
X140646253Y-115767011D01*
X140636309Y-115697853D01*
X140665334Y-115634297D01*
X140671366Y-115627819D01*
X140691966Y-115607219D01*
X140691968Y-115607215D01*
X140691971Y-115607213D01*
X140771454Y-115497812D01*
X140812287Y-115441610D01*
X140905220Y-115259219D01*
X140968477Y-115064534D01*
X141000500Y-114862352D01*
X141000500Y-114657648D01*
X140968477Y-114455466D01*
X140905220Y-114260781D01*
X140905218Y-114260778D01*
X140905218Y-114260776D01*
X140869042Y-114189778D01*
X140812287Y-114078390D01*
X140804556Y-114067749D01*
X140691971Y-113912786D01*
X140547213Y-113768028D01*
X140381613Y-113647715D01*
X140381612Y-113647714D01*
X140381610Y-113647713D01*
X140324653Y-113618691D01*
X140199223Y-113554781D01*
X140004534Y-113491522D01*
X139829995Y-113463878D01*
X139802352Y-113459500D01*
X139597648Y-113459500D01*
X139573329Y-113463351D01*
X139395465Y-113491522D01*
X139200776Y-113554781D01*
X139018386Y-113647715D01*
X138852786Y-113768028D01*
X138708028Y-113912786D01*
X138587715Y-114078386D01*
X138494781Y-114260776D01*
X138431522Y-114455465D01*
X138399500Y-114657648D01*
X138399500Y-114862351D01*
X138431522Y-115064534D01*
X138494781Y-115259223D01*
X138587715Y-115441613D01*
X138708028Y-115607213D01*
X138728634Y-115627819D01*
X138762119Y-115689142D01*
X138757135Y-115758834D01*
X138715263Y-115814767D01*
X138649799Y-115839184D01*
X138640953Y-115839500D01*
X135085783Y-115839500D01*
X135018744Y-115819815D01*
X134998102Y-115803181D01*
X133516819Y-114321898D01*
X133483334Y-114260575D01*
X133480500Y-114234217D01*
X133480500Y-114189778D01*
X133446015Y-113972049D01*
X133377895Y-113762394D01*
X133377895Y-113762393D01*
X133343237Y-113694375D01*
X133277815Y-113565978D01*
X133200455Y-113459500D01*
X133148247Y-113387641D01*
X133148243Y-113387636D01*
X133098071Y-113337464D01*
X133064586Y-113276141D01*
X133069570Y-113206449D01*
X133111442Y-113150516D01*
X133142420Y-113133601D01*
X133222326Y-113103798D01*
X133222326Y-113103797D01*
X133222331Y-113103796D01*
X133337546Y-113017546D01*
X133423796Y-112902331D01*
X133474091Y-112767483D01*
X133480500Y-112707873D01*
X133480499Y-110812128D01*
X133474091Y-110752517D01*
X133423796Y-110617669D01*
X133423795Y-110617668D01*
X133423793Y-110617664D01*
X133337547Y-110502455D01*
X133337544Y-110502452D01*
X133222335Y-110416206D01*
X133222328Y-110416202D01*
X133087482Y-110365908D01*
X133087483Y-110365908D01*
X133027883Y-110359501D01*
X133027881Y-110359500D01*
X133027873Y-110359500D01*
X133027864Y-110359500D01*
X131132129Y-110359500D01*
X131132123Y-110359501D01*
X131072516Y-110365908D01*
X130937671Y-110416202D01*
X130937664Y-110416206D01*
X130822455Y-110502452D01*
X130822452Y-110502455D01*
X130736206Y-110617664D01*
X130736202Y-110617671D01*
X130685908Y-110752517D01*
X130679501Y-110812116D01*
X130679501Y-110812123D01*
X130679500Y-110812135D01*
X130679500Y-112707870D01*
X130679501Y-112707876D01*
X130685908Y-112767483D01*
X130736202Y-112902328D01*
X130736206Y-112902335D01*
X130822452Y-113017544D01*
X130822455Y-113017547D01*
X130937664Y-113103793D01*
X130937671Y-113103797D01*
X131017580Y-113133601D01*
X131073514Y-113175472D01*
X131097931Y-113240936D01*
X131083080Y-113309209D01*
X131061929Y-113337463D01*
X131011756Y-113387636D01*
X131011752Y-113387641D01*
X130882187Y-113565974D01*
X130782104Y-113762393D01*
X130782103Y-113762396D01*
X130713985Y-113972047D01*
X130679500Y-114189778D01*
X130679500Y-114234217D01*
X130659815Y-114301256D01*
X130643181Y-114321898D01*
X129161899Y-115803181D01*
X129100576Y-115836666D01*
X129074218Y-115839500D01*
X125519047Y-115839500D01*
X125452008Y-115819815D01*
X125406253Y-115767011D01*
X125396309Y-115697853D01*
X125425334Y-115634297D01*
X125431366Y-115627819D01*
X125451966Y-115607219D01*
X125451968Y-115607215D01*
X125451971Y-115607213D01*
X125531454Y-115497812D01*
X125572287Y-115441610D01*
X125665220Y-115259219D01*
X125728477Y-115064534D01*
X125760500Y-114862352D01*
X125760500Y-114657648D01*
X125728477Y-114455466D01*
X125665220Y-114260781D01*
X125665218Y-114260778D01*
X125665218Y-114260776D01*
X125629042Y-114189778D01*
X125572287Y-114078390D01*
X125564556Y-114067749D01*
X125451971Y-113912786D01*
X125307213Y-113768028D01*
X125141613Y-113647715D01*
X125141612Y-113647714D01*
X125141610Y-113647713D01*
X125084653Y-113618691D01*
X124959223Y-113554781D01*
X124764534Y-113491522D01*
X124589995Y-113463878D01*
X124562352Y-113459500D01*
X124357648Y-113459500D01*
X124333329Y-113463351D01*
X124155465Y-113491522D01*
X123960776Y-113554781D01*
X123778386Y-113647715D01*
X123612786Y-113768028D01*
X123468028Y-113912786D01*
X123347715Y-114078386D01*
X123254781Y-114260776D01*
X123191522Y-114455465D01*
X123159500Y-114657648D01*
X123159500Y-114862351D01*
X123191522Y-115064534D01*
X123254781Y-115259223D01*
X123347715Y-115441613D01*
X123468028Y-115607213D01*
X123488634Y-115627819D01*
X123522119Y-115689142D01*
X123517135Y-115758834D01*
X123475263Y-115814767D01*
X123409799Y-115839184D01*
X123400953Y-115839500D01*
X119845783Y-115839500D01*
X119778744Y-115819815D01*
X119758102Y-115803181D01*
X118276819Y-114321898D01*
X118243334Y-114260575D01*
X118240500Y-114234217D01*
X118240500Y-114189778D01*
X118206015Y-113972049D01*
X118137895Y-113762394D01*
X118137895Y-113762393D01*
X118103237Y-113694375D01*
X118037815Y-113565978D01*
X117960455Y-113459500D01*
X117908247Y-113387641D01*
X117908243Y-113387636D01*
X117858071Y-113337464D01*
X117824586Y-113276141D01*
X117829570Y-113206449D01*
X117871442Y-113150516D01*
X117902420Y-113133601D01*
X117982326Y-113103798D01*
X117982326Y-113103797D01*
X117982331Y-113103796D01*
X118097546Y-113017546D01*
X118183796Y-112902331D01*
X118234091Y-112767483D01*
X118240500Y-112707873D01*
X118240499Y-110812128D01*
X118234091Y-110752517D01*
X118183796Y-110617669D01*
X118183795Y-110617668D01*
X118183793Y-110617664D01*
X118097547Y-110502455D01*
X118097544Y-110502452D01*
X117982335Y-110416206D01*
X117982328Y-110416202D01*
X117847482Y-110365908D01*
X117847483Y-110365908D01*
X117787883Y-110359501D01*
X117787881Y-110359500D01*
X117787873Y-110359500D01*
X117787864Y-110359500D01*
X115892129Y-110359500D01*
X115892123Y-110359501D01*
X115832516Y-110365908D01*
X115697671Y-110416202D01*
X115697664Y-110416206D01*
X115582455Y-110502452D01*
X115582452Y-110502455D01*
X115496206Y-110617664D01*
X115496202Y-110617671D01*
X115445908Y-110752517D01*
X115439501Y-110812116D01*
X115439501Y-110812123D01*
X115439500Y-110812135D01*
X115439500Y-112707870D01*
X115439501Y-112707876D01*
X115445908Y-112767483D01*
X115496202Y-112902328D01*
X115496206Y-112902335D01*
X115582452Y-113017544D01*
X115582455Y-113017547D01*
X115697664Y-113103793D01*
X115697671Y-113103797D01*
X115777580Y-113133601D01*
X115833514Y-113175472D01*
X115857931Y-113240936D01*
X115843080Y-113309209D01*
X115821929Y-113337463D01*
X115771756Y-113387636D01*
X115771752Y-113387641D01*
X115642187Y-113565974D01*
X115542104Y-113762393D01*
X115542103Y-113762396D01*
X115473985Y-113972047D01*
X115439500Y-114189778D01*
X115439500Y-114234217D01*
X115419815Y-114301256D01*
X115403181Y-114321898D01*
X113921899Y-115803181D01*
X113860576Y-115836666D01*
X113834218Y-115839500D01*
X110279047Y-115839500D01*
X110212008Y-115819815D01*
X110166253Y-115767011D01*
X110156309Y-115697853D01*
X110185334Y-115634297D01*
X110191366Y-115627819D01*
X110211966Y-115607219D01*
X110211968Y-115607215D01*
X110211971Y-115607213D01*
X110291454Y-115497812D01*
X110332287Y-115441610D01*
X110425220Y-115259219D01*
X110488477Y-115064534D01*
X110520500Y-114862352D01*
X110520500Y-114657648D01*
X110488477Y-114455466D01*
X110425220Y-114260781D01*
X110425218Y-114260778D01*
X110425218Y-114260776D01*
X110389042Y-114189778D01*
X110332287Y-114078390D01*
X110324556Y-114067749D01*
X110211971Y-113912786D01*
X110067213Y-113768028D01*
X109901613Y-113647715D01*
X109901612Y-113647714D01*
X109901610Y-113647713D01*
X109844653Y-113618691D01*
X109719223Y-113554781D01*
X109524534Y-113491522D01*
X109349995Y-113463878D01*
X109322352Y-113459500D01*
X109117648Y-113459500D01*
X109093329Y-113463351D01*
X108915465Y-113491522D01*
X108720776Y-113554781D01*
X108538386Y-113647715D01*
X108372786Y-113768028D01*
X108228028Y-113912786D01*
X108107715Y-114078386D01*
X108014781Y-114260776D01*
X107951522Y-114455465D01*
X107919500Y-114657648D01*
X107919500Y-114862351D01*
X107951522Y-115064534D01*
X108014781Y-115259223D01*
X108107715Y-115441613D01*
X108228028Y-115607213D01*
X108248634Y-115627819D01*
X108282119Y-115689142D01*
X108277135Y-115758834D01*
X108235263Y-115814767D01*
X108169799Y-115839184D01*
X108160953Y-115839500D01*
X107145783Y-115839500D01*
X107078744Y-115819815D01*
X107058102Y-115803181D01*
X105176819Y-113921898D01*
X105143334Y-113860575D01*
X105140500Y-113834217D01*
X105140500Y-111657648D01*
X107919500Y-111657648D01*
X107919500Y-111862351D01*
X107951522Y-112064534D01*
X108014781Y-112259223D01*
X108107715Y-112441613D01*
X108228028Y-112607213D01*
X108372786Y-112751971D01*
X108527749Y-112864556D01*
X108538390Y-112872287D01*
X108654607Y-112931503D01*
X108720776Y-112965218D01*
X108720778Y-112965218D01*
X108720781Y-112965220D01*
X108825137Y-112999127D01*
X108915465Y-113028477D01*
X109016557Y-113044488D01*
X109117648Y-113060500D01*
X109117649Y-113060500D01*
X109322351Y-113060500D01*
X109322352Y-113060500D01*
X109524534Y-113028477D01*
X109719219Y-112965220D01*
X109901610Y-112872287D01*
X110045862Y-112767483D01*
X110067213Y-112751971D01*
X110067215Y-112751968D01*
X110067219Y-112751966D01*
X110211966Y-112607219D01*
X110211968Y-112607215D01*
X110211971Y-112607213D01*
X110264732Y-112534590D01*
X110332287Y-112441610D01*
X110425220Y-112259219D01*
X110488477Y-112064534D01*
X110520500Y-111862352D01*
X110520500Y-111657648D01*
X110488477Y-111455466D01*
X110425220Y-111260781D01*
X110425218Y-111260778D01*
X110425218Y-111260776D01*
X110391503Y-111194607D01*
X110332287Y-111078390D01*
X110319654Y-111061003D01*
X110244182Y-110957122D01*
X110220702Y-110891316D01*
X110220500Y-110884237D01*
X110220500Y-109685782D01*
X110240185Y-109618743D01*
X110256819Y-109598101D01*
X113466760Y-106388160D01*
X116928204Y-102926715D01*
X116989525Y-102893232D01*
X116996475Y-102891926D01*
X117144534Y-102868477D01*
X117339219Y-102805220D01*
X117521610Y-102712287D01*
X117614590Y-102644732D01*
X117687213Y-102591971D01*
X117687215Y-102591968D01*
X117687219Y-102591966D01*
X117831966Y-102447219D01*
X117831968Y-102447215D01*
X117831971Y-102447213D01*
X117884732Y-102374590D01*
X117952287Y-102281610D01*
X118045220Y-102099219D01*
X118108477Y-101904534D01*
X118131925Y-101756483D01*
X118161854Y-101693350D01*
X118166699Y-101688219D01*
X137538102Y-82316819D01*
X137599425Y-82283334D01*
X137625783Y-82280500D01*
X145905859Y-82280500D01*
X145972898Y-82300185D01*
X146018653Y-82352989D01*
X146022030Y-82361140D01*
X146026204Y-82372331D01*
X146026205Y-82372332D01*
X146026206Y-82372335D01*
X146112452Y-82487544D01*
X146112455Y-82487547D01*
X146227664Y-82573793D01*
X146227671Y-82573797D01*
X146242473Y-82579318D01*
X146298407Y-82621189D01*
X146322824Y-82686654D01*
X146307972Y-82754927D01*
X146258567Y-82804332D01*
X146199140Y-82819500D01*
X142141455Y-82819500D01*
X142044812Y-82838724D01*
X141948167Y-82857947D01*
X141948161Y-82857949D01*
X141894834Y-82880037D01*
X141894834Y-82880038D01*
X141849315Y-82898892D01*
X141766089Y-82933366D01*
X141766079Y-82933371D01*
X141602219Y-83042859D01*
X141532540Y-83112538D01*
X141462861Y-83182218D01*
X141462858Y-83182221D01*
X124371797Y-100273281D01*
X124310474Y-100306766D01*
X124303515Y-100308073D01*
X124155468Y-100331522D01*
X123960778Y-100394781D01*
X123778386Y-100487715D01*
X123612786Y-100608028D01*
X123468028Y-100752786D01*
X123347715Y-100918386D01*
X123254781Y-101100776D01*
X123191522Y-101295465D01*
X123159500Y-101497648D01*
X123159500Y-101702351D01*
X123191522Y-101904534D01*
X123254781Y-102099223D01*
X123347713Y-102281610D01*
X123435819Y-102402877D01*
X123459298Y-102468681D01*
X123459500Y-102475761D01*
X123459500Y-110884237D01*
X123439815Y-110951276D01*
X123435818Y-110957122D01*
X123347715Y-111078386D01*
X123254781Y-111260776D01*
X123191522Y-111455465D01*
X123159500Y-111657648D01*
X123159500Y-111862351D01*
X123191522Y-112064534D01*
X123254781Y-112259223D01*
X123347715Y-112441613D01*
X123468028Y-112607213D01*
X123612786Y-112751971D01*
X123767749Y-112864556D01*
X123778390Y-112872287D01*
X123894607Y-112931503D01*
X123960776Y-112965218D01*
X123960778Y-112965218D01*
X123960781Y-112965220D01*
X124065137Y-112999127D01*
X124155465Y-113028477D01*
X124256557Y-113044488D01*
X124357648Y-113060500D01*
X124357649Y-113060500D01*
X124562351Y-113060500D01*
X124562352Y-113060500D01*
X124764534Y-113028477D01*
X124959219Y-112965220D01*
X125141610Y-112872287D01*
X125285862Y-112767483D01*
X125307213Y-112751971D01*
X125307215Y-112751968D01*
X125307219Y-112751966D01*
X125451966Y-112607219D01*
X125451968Y-112607215D01*
X125451971Y-112607213D01*
X125504732Y-112534590D01*
X125572287Y-112441610D01*
X125665220Y-112259219D01*
X125728477Y-112064534D01*
X125760500Y-111862352D01*
X125760500Y-111657648D01*
X125728477Y-111455466D01*
X125665220Y-111260781D01*
X125665218Y-111260778D01*
X125665218Y-111260776D01*
X125631503Y-111194607D01*
X125572287Y-111078390D01*
X125559654Y-111061003D01*
X125484182Y-110957122D01*
X125460702Y-110891316D01*
X125460500Y-110884237D01*
X125460500Y-102475761D01*
X125480185Y-102408722D01*
X125484165Y-102402899D01*
X125572287Y-102281610D01*
X125665220Y-102099219D01*
X125728477Y-101904534D01*
X125751925Y-101756483D01*
X125781854Y-101693350D01*
X125786699Y-101688219D01*
X142618101Y-84856819D01*
X142679424Y-84823334D01*
X142705782Y-84820500D01*
X147145218Y-84820500D01*
X147212257Y-84840185D01*
X147258012Y-84892989D01*
X147267956Y-84962147D01*
X147238931Y-85025703D01*
X147232899Y-85032181D01*
X141151076Y-91114002D01*
X141089753Y-91147487D01*
X141020061Y-91142503D01*
X140964128Y-91100631D01*
X140945464Y-91064639D01*
X140942197Y-91054584D01*
X140905220Y-90940781D01*
X140812287Y-90758390D01*
X140804556Y-90747749D01*
X140691971Y-90592786D01*
X140547213Y-90448028D01*
X140381613Y-90327715D01*
X140381612Y-90327714D01*
X140381610Y-90327713D01*
X140324653Y-90298691D01*
X140199223Y-90234781D01*
X140004534Y-90171522D01*
X139829995Y-90143878D01*
X139802352Y-90139500D01*
X139597648Y-90139500D01*
X139573329Y-90143351D01*
X139395465Y-90171522D01*
X139200776Y-90234781D01*
X139018386Y-90327715D01*
X138852786Y-90448028D01*
X138708028Y-90592786D01*
X138587715Y-90758386D01*
X138494781Y-90940776D01*
X138431522Y-91135465D01*
X138399500Y-91337648D01*
X138399500Y-91542351D01*
X138431522Y-91744534D01*
X138494781Y-91939223D01*
X138587715Y-92121613D01*
X138708028Y-92287213D01*
X138852786Y-92431971D01*
X139007749Y-92544556D01*
X139018390Y-92552287D01*
X139200781Y-92645220D01*
X139314584Y-92682197D01*
X139324639Y-92685464D01*
X139382315Y-92724902D01*
X139409513Y-92789260D01*
X139397598Y-92858107D01*
X139374002Y-92891076D01*
X139065344Y-93199735D01*
X139062221Y-93202858D01*
X139062218Y-93202861D01*
X138992538Y-93272540D01*
X138922859Y-93342219D01*
X138813371Y-93506079D01*
X138813364Y-93506092D01*
X138737950Y-93688160D01*
X138737947Y-93688170D01*
X138699500Y-93881456D01*
X138699500Y-100724237D01*
X138679815Y-100791276D01*
X138675818Y-100797122D01*
X138587715Y-100918386D01*
X138494781Y-101100776D01*
X138431522Y-101295465D01*
X138399500Y-101497648D01*
X138399500Y-101702351D01*
X138431522Y-101904534D01*
X138494781Y-102099223D01*
X138587713Y-102281610D01*
X138675819Y-102402877D01*
X138699298Y-102468681D01*
X138699500Y-102475761D01*
X138699500Y-110884237D01*
X138679815Y-110951276D01*
X138675818Y-110957122D01*
X138587715Y-111078386D01*
X138494781Y-111260776D01*
X138431522Y-111455465D01*
X138399500Y-111657648D01*
X138399500Y-111862351D01*
X138431522Y-112064534D01*
X138494781Y-112259223D01*
X138587715Y-112441613D01*
X138708028Y-112607213D01*
X138852786Y-112751971D01*
X139007749Y-112864556D01*
X139018390Y-112872287D01*
X139134607Y-112931503D01*
X139200776Y-112965218D01*
X139200778Y-112965218D01*
X139200781Y-112965220D01*
X139305137Y-112999127D01*
X139395465Y-113028477D01*
X139496557Y-113044488D01*
X139597648Y-113060500D01*
X139597649Y-113060500D01*
X139802351Y-113060500D01*
X139802352Y-113060500D01*
X140004534Y-113028477D01*
X140199219Y-112965220D01*
X140381610Y-112872287D01*
X140525862Y-112767483D01*
X140547213Y-112751971D01*
X140547215Y-112751968D01*
X140547219Y-112751966D01*
X140691966Y-112607219D01*
X140691968Y-112607215D01*
X140691971Y-112607213D01*
X140744732Y-112534590D01*
X140812287Y-112441610D01*
X140905220Y-112259219D01*
X140968477Y-112064534D01*
X141000500Y-111862352D01*
X141000500Y-111657648D01*
X140968477Y-111455466D01*
X140905220Y-111260781D01*
X140905218Y-111260778D01*
X140905218Y-111260776D01*
X140871503Y-111194607D01*
X140812287Y-111078390D01*
X140799654Y-111061003D01*
X140724182Y-110957122D01*
X140700702Y-110891316D01*
X140700500Y-110884237D01*
X140700500Y-102475761D01*
X140720185Y-102408722D01*
X140724165Y-102402899D01*
X140812287Y-102281610D01*
X140905220Y-102099219D01*
X140968477Y-101904534D01*
X141000500Y-101702352D01*
X141000500Y-101497648D01*
X140968477Y-101295466D01*
X140905220Y-101100781D01*
X140905218Y-101100778D01*
X140905218Y-101100776D01*
X140871503Y-101034607D01*
X140812287Y-100918390D01*
X140799654Y-100901003D01*
X140724182Y-100797122D01*
X140700702Y-100731316D01*
X140700500Y-100724237D01*
X140700500Y-94445782D01*
X140720185Y-94378743D01*
X140736819Y-94358101D01*
X146573022Y-88521898D01*
X152428498Y-82666421D01*
X152489819Y-82632938D01*
X152505279Y-82630659D01*
X152506283Y-82630500D01*
X152506287Y-82630500D01*
X152716243Y-82597246D01*
X152918412Y-82531557D01*
X153107816Y-82435051D01*
X153194138Y-82372335D01*
X153279786Y-82310109D01*
X153279788Y-82310106D01*
X153279792Y-82310104D01*
X153430104Y-82159792D01*
X153430106Y-82159788D01*
X153430109Y-82159786D01*
X153555048Y-81987820D01*
X153555047Y-81987820D01*
X153555051Y-81987816D01*
X153559514Y-81979054D01*
X153607488Y-81928259D01*
X153675308Y-81911463D01*
X153741444Y-81933999D01*
X153780486Y-81979056D01*
X153784951Y-81987820D01*
X153912759Y-82163734D01*
X153911888Y-82164366D01*
X153938357Y-82223401D01*
X153939500Y-82240199D01*
X153939500Y-88434217D01*
X153919815Y-88501256D01*
X153903181Y-88521898D01*
X151311076Y-91114002D01*
X151249753Y-91147487D01*
X151180061Y-91142503D01*
X151124128Y-91100631D01*
X151105464Y-91064639D01*
X151102197Y-91054584D01*
X151065220Y-90940781D01*
X150972287Y-90758390D01*
X150964556Y-90747749D01*
X150851971Y-90592786D01*
X150707213Y-90448028D01*
X150541613Y-90327715D01*
X150541612Y-90327714D01*
X150541610Y-90327713D01*
X150484653Y-90298691D01*
X150359223Y-90234781D01*
X150164534Y-90171522D01*
X149989995Y-90143878D01*
X149962352Y-90139500D01*
X149757648Y-90139500D01*
X149733329Y-90143351D01*
X149555465Y-90171522D01*
X149360776Y-90234781D01*
X149178386Y-90327715D01*
X149012786Y-90448028D01*
X148868028Y-90592786D01*
X148747715Y-90758386D01*
X148654781Y-90940776D01*
X148591522Y-91135465D01*
X148559500Y-91337648D01*
X148559500Y-91542351D01*
X148591522Y-91744534D01*
X148654781Y-91939223D01*
X148747715Y-92121613D01*
X148868028Y-92287213D01*
X149012786Y-92431971D01*
X149167749Y-92544556D01*
X149178390Y-92552287D01*
X149360781Y-92645220D01*
X149474584Y-92682197D01*
X149484639Y-92685464D01*
X149542315Y-92724902D01*
X149569513Y-92789260D01*
X149557598Y-92858107D01*
X149534002Y-92891076D01*
X149225344Y-93199735D01*
X149222221Y-93202858D01*
X149222218Y-93202861D01*
X149152538Y-93272540D01*
X149082859Y-93342219D01*
X148973371Y-93506079D01*
X148973364Y-93506092D01*
X148897950Y-93688160D01*
X148897947Y-93688170D01*
X148859500Y-93881456D01*
X148859500Y-100724237D01*
X148839815Y-100791276D01*
X148835818Y-100797122D01*
X148747715Y-100918386D01*
X148654781Y-101100776D01*
X148591522Y-101295465D01*
X148559500Y-101497648D01*
X148559500Y-101702351D01*
X148591522Y-101904534D01*
X148654781Y-102099223D01*
X148747713Y-102281610D01*
X148835819Y-102402877D01*
X148859298Y-102468681D01*
X148859500Y-102475761D01*
X148859500Y-104238541D01*
X148859500Y-104238543D01*
X148859499Y-104238543D01*
X148897947Y-104431829D01*
X148897950Y-104431839D01*
X148973364Y-104613907D01*
X148973371Y-104613920D01*
X149082860Y-104777781D01*
X149082863Y-104777785D01*
X149226537Y-104921459D01*
X149226559Y-104921479D01*
X153903181Y-109598101D01*
X153936666Y-109659424D01*
X153939500Y-109685782D01*
X153939500Y-110884237D01*
X153919815Y-110951276D01*
X153915818Y-110957122D01*
X153827715Y-111078386D01*
X153734781Y-111260776D01*
X153671522Y-111455465D01*
X153639500Y-111657648D01*
X153639500Y-111862351D01*
X153671522Y-112064534D01*
X153734781Y-112259223D01*
X153827715Y-112441613D01*
X153948028Y-112607213D01*
X154092786Y-112751971D01*
X154247749Y-112864556D01*
X154258390Y-112872287D01*
X154374607Y-112931503D01*
X154440776Y-112965218D01*
X154440778Y-112965218D01*
X154440781Y-112965220D01*
X154545137Y-112999127D01*
X154635465Y-113028477D01*
X154736557Y-113044488D01*
X154837648Y-113060500D01*
X154837649Y-113060500D01*
X155042351Y-113060500D01*
X155042352Y-113060500D01*
X155244534Y-113028477D01*
X155439219Y-112965220D01*
X155621610Y-112872287D01*
X155765862Y-112767483D01*
X155787213Y-112751971D01*
X155787215Y-112751968D01*
X155787219Y-112751966D01*
X155931966Y-112607219D01*
X155931968Y-112607215D01*
X155931971Y-112607213D01*
X155984732Y-112534590D01*
X156052287Y-112441610D01*
X156145220Y-112259219D01*
X156208477Y-112064534D01*
X156240500Y-111862352D01*
X156240500Y-111657648D01*
X156208477Y-111455466D01*
X156145220Y-111260781D01*
X156145218Y-111260778D01*
X156145218Y-111260776D01*
X156111503Y-111194607D01*
X156052287Y-111078390D01*
X156039654Y-111061003D01*
X155964182Y-110957122D01*
X155940702Y-110891316D01*
X155940500Y-110884237D01*
X155940500Y-109121456D01*
X155902052Y-108928170D01*
X155902051Y-108928169D01*
X155902051Y-108928165D01*
X155902049Y-108928160D01*
X155826635Y-108746092D01*
X155826628Y-108746079D01*
X155717139Y-108582218D01*
X155717136Y-108582214D01*
X155574686Y-108439764D01*
X155574655Y-108439735D01*
X150896819Y-103761899D01*
X150863334Y-103700576D01*
X150860500Y-103674218D01*
X150860500Y-102475761D01*
X150880185Y-102408722D01*
X150884165Y-102402899D01*
X150972287Y-102281610D01*
X151065220Y-102099219D01*
X151128477Y-101904534D01*
X151160500Y-101702352D01*
X151160500Y-101497648D01*
X151128477Y-101295466D01*
X151065220Y-101100781D01*
X151065218Y-101100778D01*
X151065218Y-101100776D01*
X151031503Y-101034607D01*
X150972287Y-100918390D01*
X150959654Y-100901003D01*
X150884182Y-100797122D01*
X150860702Y-100731316D01*
X150860500Y-100724237D01*
X150860500Y-95622135D01*
X158669500Y-95622135D01*
X158669500Y-97417870D01*
X158669501Y-97417876D01*
X158675908Y-97477483D01*
X158726202Y-97612328D01*
X158726206Y-97612335D01*
X158812452Y-97727544D01*
X158812455Y-97727547D01*
X158927664Y-97813793D01*
X158927671Y-97813797D01*
X159059082Y-97862810D01*
X159115016Y-97904681D01*
X159139433Y-97970145D01*
X159124582Y-98038418D01*
X159103431Y-98066673D01*
X158989889Y-98180215D01*
X158864951Y-98352179D01*
X158768444Y-98541585D01*
X158702753Y-98743760D01*
X158669500Y-98953713D01*
X158669500Y-99166286D01*
X158702753Y-99376239D01*
X158768444Y-99578414D01*
X158864951Y-99767820D01*
X158989890Y-99939786D01*
X159140213Y-100090109D01*
X159312179Y-100215048D01*
X159312181Y-100215049D01*
X159312184Y-100215051D01*
X159501588Y-100311557D01*
X159703757Y-100377246D01*
X159913713Y-100410500D01*
X159913714Y-100410500D01*
X160126286Y-100410500D01*
X160126287Y-100410500D01*
X160336243Y-100377246D01*
X160538412Y-100311557D01*
X160727816Y-100215051D01*
X160749789Y-100199086D01*
X160899786Y-100090109D01*
X160899788Y-100090106D01*
X160899792Y-100090104D01*
X161050104Y-99939792D01*
X161050106Y-99939788D01*
X161050109Y-99939786D01*
X161175048Y-99767820D01*
X161175047Y-99767820D01*
X161175051Y-99767816D01*
X161271557Y-99578412D01*
X161337246Y-99376243D01*
X161370500Y-99166287D01*
X161370500Y-98953713D01*
X161337246Y-98743757D01*
X161271557Y-98541588D01*
X161175051Y-98352184D01*
X161175049Y-98352181D01*
X161175048Y-98352179D01*
X161050109Y-98180213D01*
X160936569Y-98066673D01*
X160903084Y-98005350D01*
X160908068Y-97935658D01*
X160949940Y-97879725D01*
X160980915Y-97862810D01*
X161112331Y-97813796D01*
X161227546Y-97727546D01*
X161313796Y-97612331D01*
X161364091Y-97477483D01*
X161370500Y-97417873D01*
X161370499Y-95622128D01*
X161364091Y-95562517D01*
X161313796Y-95427669D01*
X161313795Y-95427668D01*
X161313793Y-95427664D01*
X161227547Y-95312455D01*
X161227544Y-95312452D01*
X161112335Y-95226206D01*
X161112328Y-95226202D01*
X160977482Y-95175908D01*
X160977483Y-95175908D01*
X160917883Y-95169501D01*
X160917881Y-95169500D01*
X160917873Y-95169500D01*
X160917864Y-95169500D01*
X159122129Y-95169500D01*
X159122123Y-95169501D01*
X159062516Y-95175908D01*
X158927671Y-95226202D01*
X158927664Y-95226206D01*
X158812455Y-95312452D01*
X158812452Y-95312455D01*
X158726206Y-95427664D01*
X158726202Y-95427671D01*
X158675908Y-95562517D01*
X158669501Y-95622116D01*
X158669501Y-95622123D01*
X158669500Y-95622135D01*
X150860500Y-95622135D01*
X150860500Y-94445781D01*
X150880185Y-94378742D01*
X150896814Y-94358105D01*
X155577778Y-89677141D01*
X155577782Y-89677139D01*
X155717139Y-89537782D01*
X155826632Y-89373914D01*
X155902051Y-89191835D01*
X155940500Y-88998541D01*
X155940500Y-82240199D01*
X155960185Y-82173160D01*
X155969471Y-82160664D01*
X156095048Y-81987820D01*
X156095047Y-81987820D01*
X156095051Y-81987816D01*
X156099514Y-81979054D01*
X156147488Y-81928259D01*
X156215308Y-81911463D01*
X156281444Y-81933999D01*
X156320486Y-81979056D01*
X156324951Y-81987820D01*
X156449890Y-82159786D01*
X156600213Y-82310109D01*
X156772179Y-82435048D01*
X156772181Y-82435049D01*
X156772184Y-82435051D01*
X156961588Y-82531557D01*
X157163757Y-82597246D01*
X157373713Y-82630500D01*
X157373714Y-82630500D01*
X157378525Y-82631262D01*
X157378357Y-82632321D01*
X157438829Y-82655362D01*
X157451503Y-82666423D01*
X169143181Y-94358101D01*
X169176666Y-94419424D01*
X169179500Y-94445782D01*
X169179500Y-100724237D01*
X169159815Y-100791276D01*
X169155818Y-100797122D01*
X169067715Y-100918386D01*
X168974781Y-101100776D01*
X168911522Y-101295465D01*
X168879500Y-101497648D01*
X168879500Y-101702351D01*
X168911522Y-101904534D01*
X168974781Y-102099223D01*
X169067713Y-102281610D01*
X169155819Y-102402877D01*
X169179298Y-102468681D01*
X169179500Y-102475761D01*
X169179500Y-110884237D01*
X169159815Y-110951276D01*
X169155818Y-110957122D01*
X169067715Y-111078386D01*
X168974781Y-111260776D01*
X168911522Y-111455465D01*
X168879500Y-111657648D01*
X168879500Y-111862351D01*
X168911522Y-112064534D01*
X168974781Y-112259223D01*
X169067715Y-112441613D01*
X169188028Y-112607213D01*
X169332786Y-112751971D01*
X169487749Y-112864556D01*
X169498390Y-112872287D01*
X169614607Y-112931503D01*
X169680776Y-112965218D01*
X169680778Y-112965218D01*
X169680781Y-112965220D01*
X169785137Y-112999127D01*
X169875465Y-113028477D01*
X169976557Y-113044488D01*
X170077648Y-113060500D01*
X170077649Y-113060500D01*
X170282351Y-113060500D01*
X170282352Y-113060500D01*
X170484534Y-113028477D01*
X170679219Y-112965220D01*
X170861610Y-112872287D01*
X171005862Y-112767483D01*
X171027213Y-112751971D01*
X171027215Y-112751968D01*
X171027219Y-112751966D01*
X171171966Y-112607219D01*
X171171968Y-112607215D01*
X171171971Y-112607213D01*
X171224732Y-112534590D01*
X171292287Y-112441610D01*
X171385220Y-112259219D01*
X171448477Y-112064534D01*
X171480500Y-111862352D01*
X171480500Y-111657648D01*
X171448477Y-111455466D01*
X171385220Y-111260781D01*
X171385218Y-111260778D01*
X171385218Y-111260776D01*
X171351503Y-111194607D01*
X171292287Y-111078390D01*
X171279654Y-111061003D01*
X171204182Y-110957122D01*
X171180702Y-110891316D01*
X171180500Y-110884237D01*
X171180500Y-102475761D01*
X171200185Y-102408722D01*
X171204165Y-102402899D01*
X171292287Y-102281610D01*
X171385220Y-102099219D01*
X171448477Y-101904534D01*
X171480500Y-101702352D01*
X171480500Y-101497648D01*
X171448477Y-101295466D01*
X171385220Y-101100781D01*
X171385218Y-101100778D01*
X171385218Y-101100776D01*
X171351503Y-101034607D01*
X171292287Y-100918390D01*
X171279654Y-100901003D01*
X171204182Y-100797122D01*
X171180702Y-100731316D01*
X171180500Y-100724237D01*
X171180500Y-93881456D01*
X171142052Y-93688170D01*
X171142051Y-93688169D01*
X171142051Y-93688165D01*
X171142049Y-93688160D01*
X171066635Y-93506092D01*
X171066628Y-93506079D01*
X170957139Y-93342218D01*
X170957136Y-93342214D01*
X170814686Y-93199764D01*
X170814655Y-93199735D01*
X170505996Y-92891076D01*
X170472511Y-92829753D01*
X170477495Y-92760061D01*
X170519367Y-92704128D01*
X170555356Y-92685465D01*
X170679219Y-92645220D01*
X170861610Y-92552287D01*
X170954590Y-92484732D01*
X171027213Y-92431971D01*
X171027215Y-92431968D01*
X171027219Y-92431966D01*
X171171966Y-92287219D01*
X171171968Y-92287215D01*
X171171971Y-92287213D01*
X171224732Y-92214590D01*
X171292287Y-92121610D01*
X171385220Y-91939219D01*
X171448477Y-91744534D01*
X171480500Y-91542352D01*
X171480500Y-91337648D01*
X171448477Y-91135466D01*
X171444204Y-91122316D01*
X171385218Y-90940776D01*
X171351503Y-90874607D01*
X171292287Y-90758390D01*
X171284556Y-90747749D01*
X171171971Y-90592786D01*
X171027213Y-90448028D01*
X170861613Y-90327715D01*
X170861612Y-90327714D01*
X170861610Y-90327713D01*
X170804653Y-90298691D01*
X170679223Y-90234781D01*
X170484534Y-90171522D01*
X170309995Y-90143878D01*
X170282352Y-90139500D01*
X170077648Y-90139500D01*
X170053329Y-90143351D01*
X169875465Y-90171522D01*
X169680776Y-90234781D01*
X169498386Y-90327715D01*
X169332786Y-90448028D01*
X169188028Y-90592786D01*
X169067715Y-90758386D01*
X168974781Y-90940776D01*
X168934535Y-91064641D01*
X168895097Y-91122316D01*
X168830738Y-91149514D01*
X168761892Y-91137599D01*
X168728923Y-91114003D01*
X161658101Y-84043181D01*
X161624616Y-83981858D01*
X161629600Y-83912166D01*
X161671472Y-83856233D01*
X161736936Y-83831816D01*
X161745782Y-83831500D01*
X166185218Y-83831500D01*
X166252257Y-83851185D01*
X166272899Y-83867819D01*
X184093281Y-101688202D01*
X184126766Y-101749525D01*
X184128073Y-101756484D01*
X184151522Y-101904531D01*
X184151523Y-101904534D01*
X184214780Y-102099219D01*
X184307713Y-102281610D01*
X184395819Y-102402877D01*
X184419298Y-102468681D01*
X184419500Y-102475761D01*
X184419500Y-110884237D01*
X184399815Y-110951276D01*
X184395818Y-110957122D01*
X184307715Y-111078386D01*
X184214781Y-111260776D01*
X184151522Y-111455465D01*
X184119500Y-111657648D01*
X184119500Y-111862351D01*
X184151522Y-112064534D01*
X184214781Y-112259223D01*
X184307715Y-112441613D01*
X184428028Y-112607213D01*
X184572786Y-112751971D01*
X184727749Y-112864556D01*
X184738390Y-112872287D01*
X184854607Y-112931503D01*
X184920776Y-112965218D01*
X184920778Y-112965218D01*
X184920781Y-112965220D01*
X185025137Y-112999127D01*
X185115465Y-113028477D01*
X185216557Y-113044488D01*
X185317648Y-113060500D01*
X185317649Y-113060500D01*
X185522351Y-113060500D01*
X185522352Y-113060500D01*
X185724534Y-113028477D01*
X185919219Y-112965220D01*
X186101610Y-112872287D01*
X186245862Y-112767483D01*
X186267213Y-112751971D01*
X186267215Y-112751968D01*
X186267219Y-112751966D01*
X186411966Y-112607219D01*
X186411968Y-112607215D01*
X186411971Y-112607213D01*
X186464732Y-112534590D01*
X186532287Y-112441610D01*
X186625220Y-112259219D01*
X186688477Y-112064534D01*
X186720500Y-111862352D01*
X186720500Y-111657648D01*
X186688477Y-111455466D01*
X186625220Y-111260781D01*
X186625218Y-111260778D01*
X186625218Y-111260776D01*
X186591503Y-111194607D01*
X186532287Y-111078390D01*
X186519654Y-111061003D01*
X186444182Y-110957122D01*
X186420702Y-110891316D01*
X186420500Y-110884237D01*
X186420500Y-102475761D01*
X186440185Y-102408722D01*
X186444165Y-102402899D01*
X186532287Y-102281610D01*
X186625220Y-102099219D01*
X186688477Y-101904534D01*
X186720500Y-101702352D01*
X186720500Y-101497648D01*
X186688477Y-101295466D01*
X186625220Y-101100781D01*
X186625218Y-101100778D01*
X186625218Y-101100776D01*
X186591503Y-101034607D01*
X186532287Y-100918390D01*
X186524556Y-100907749D01*
X186411971Y-100752786D01*
X186267213Y-100608028D01*
X186101613Y-100487715D01*
X186101612Y-100487714D01*
X186101610Y-100487713D01*
X185919219Y-100394780D01*
X185724534Y-100331523D01*
X185724531Y-100331522D01*
X185724532Y-100331522D01*
X185576484Y-100308073D01*
X185513350Y-100278143D01*
X185508202Y-100273281D01*
X176655378Y-91420457D01*
X176572569Y-91337648D01*
X184119500Y-91337648D01*
X184119500Y-91542351D01*
X184151522Y-91744534D01*
X184214781Y-91939223D01*
X184307715Y-92121613D01*
X184428028Y-92287213D01*
X184572786Y-92431971D01*
X184727749Y-92544556D01*
X184738390Y-92552287D01*
X184854607Y-92611503D01*
X184920776Y-92645218D01*
X184920778Y-92645218D01*
X184920781Y-92645220D01*
X185025137Y-92679127D01*
X185115465Y-92708477D01*
X185216557Y-92724488D01*
X185317648Y-92740500D01*
X185317649Y-92740500D01*
X185522351Y-92740500D01*
X185522352Y-92740500D01*
X185724534Y-92708477D01*
X185919219Y-92645220D01*
X186101610Y-92552287D01*
X186194590Y-92484732D01*
X186267213Y-92431971D01*
X186267215Y-92431968D01*
X186267219Y-92431966D01*
X186411966Y-92287219D01*
X186411968Y-92287215D01*
X186411971Y-92287213D01*
X186464732Y-92214590D01*
X186532287Y-92121610D01*
X186625220Y-91939219D01*
X186688477Y-91744534D01*
X186720500Y-91542352D01*
X186720500Y-91337648D01*
X186688477Y-91135466D01*
X186684204Y-91122316D01*
X186625218Y-90940776D01*
X186591503Y-90874607D01*
X186532287Y-90758390D01*
X186524556Y-90747749D01*
X186411971Y-90592786D01*
X186267213Y-90448028D01*
X186101613Y-90327715D01*
X186101612Y-90327714D01*
X186101610Y-90327713D01*
X186044653Y-90298691D01*
X185919223Y-90234781D01*
X185724534Y-90171522D01*
X185549995Y-90143878D01*
X185522352Y-90139500D01*
X185317648Y-90139500D01*
X185293329Y-90143351D01*
X185115465Y-90171522D01*
X184920776Y-90234781D01*
X184738386Y-90327715D01*
X184572786Y-90448028D01*
X184428028Y-90592786D01*
X184307715Y-90758386D01*
X184214781Y-90940776D01*
X184151522Y-91135465D01*
X184119500Y-91337648D01*
X176572569Y-91337648D01*
X167727101Y-82492181D01*
X167693616Y-82430858D01*
X167698600Y-82361166D01*
X167740472Y-82305233D01*
X167805936Y-82280816D01*
X167814782Y-82280500D01*
X179874218Y-82280500D01*
X179941257Y-82300185D01*
X179961899Y-82316819D01*
X199333281Y-101688202D01*
X199366766Y-101749525D01*
X199368073Y-101756484D01*
X199391522Y-101904531D01*
X199391523Y-101904534D01*
X199454780Y-102099219D01*
X199547713Y-102281610D01*
X199635819Y-102402877D01*
X199659298Y-102468681D01*
X199659500Y-102475761D01*
X199659500Y-110884237D01*
X199639815Y-110951276D01*
X199635818Y-110957122D01*
X199547715Y-111078386D01*
X199454781Y-111260776D01*
X199391522Y-111455465D01*
X199359500Y-111657648D01*
X199359500Y-111862351D01*
X199391522Y-112064534D01*
X199454781Y-112259223D01*
X199547715Y-112441613D01*
X199668028Y-112607213D01*
X199812786Y-112751971D01*
X199967749Y-112864556D01*
X199978390Y-112872287D01*
X200094607Y-112931503D01*
X200160776Y-112965218D01*
X200160778Y-112965218D01*
X200160781Y-112965220D01*
X200265137Y-112999127D01*
X200355465Y-113028477D01*
X200456557Y-113044488D01*
X200557648Y-113060500D01*
X200557649Y-113060500D01*
X200762351Y-113060500D01*
X200762352Y-113060500D01*
X200964534Y-113028477D01*
X201159219Y-112965220D01*
X201341610Y-112872287D01*
X201485862Y-112767483D01*
X201507213Y-112751971D01*
X201507215Y-112751968D01*
X201507219Y-112751966D01*
X201651966Y-112607219D01*
X201651968Y-112607215D01*
X201651971Y-112607213D01*
X201704732Y-112534590D01*
X201772287Y-112441610D01*
X201865220Y-112259219D01*
X201928477Y-112064534D01*
X201960500Y-111862352D01*
X201960500Y-111657648D01*
X201928477Y-111455466D01*
X201865220Y-111260781D01*
X201865218Y-111260778D01*
X201865218Y-111260776D01*
X201831503Y-111194607D01*
X201772287Y-111078390D01*
X201759654Y-111061003D01*
X201684182Y-110957122D01*
X201660702Y-110891316D01*
X201660500Y-110884237D01*
X201660500Y-102475761D01*
X201680185Y-102408722D01*
X201684165Y-102402899D01*
X201772287Y-102281610D01*
X201865220Y-102099219D01*
X201928477Y-101904534D01*
X201960500Y-101702352D01*
X201960500Y-101497648D01*
X201928477Y-101295466D01*
X201865220Y-101100781D01*
X201865218Y-101100778D01*
X201865218Y-101100776D01*
X201831503Y-101034607D01*
X201772287Y-100918390D01*
X201764556Y-100907749D01*
X201651971Y-100752786D01*
X201507213Y-100608028D01*
X201341613Y-100487715D01*
X201341612Y-100487714D01*
X201341610Y-100487713D01*
X201159219Y-100394780D01*
X200964534Y-100331523D01*
X200964531Y-100331522D01*
X200964532Y-100331522D01*
X200816484Y-100308073D01*
X200753350Y-100278143D01*
X200748202Y-100273281D01*
X191895378Y-91420457D01*
X191812569Y-91337648D01*
X199359500Y-91337648D01*
X199359500Y-91542351D01*
X199391522Y-91744534D01*
X199454781Y-91939223D01*
X199547715Y-92121613D01*
X199668028Y-92287213D01*
X199812786Y-92431971D01*
X199967749Y-92544556D01*
X199978390Y-92552287D01*
X200094607Y-92611503D01*
X200160776Y-92645218D01*
X200160778Y-92645218D01*
X200160781Y-92645220D01*
X200265137Y-92679127D01*
X200355465Y-92708477D01*
X200456557Y-92724488D01*
X200557648Y-92740500D01*
X200557649Y-92740500D01*
X200762351Y-92740500D01*
X200762352Y-92740500D01*
X200964534Y-92708477D01*
X201159219Y-92645220D01*
X201341610Y-92552287D01*
X201434590Y-92484732D01*
X201507213Y-92431971D01*
X201507215Y-92431968D01*
X201507219Y-92431966D01*
X201651966Y-92287219D01*
X201651968Y-92287215D01*
X201651971Y-92287213D01*
X201704732Y-92214590D01*
X201772287Y-92121610D01*
X201865220Y-91939219D01*
X201928477Y-91744534D01*
X201960500Y-91542352D01*
X201960500Y-91337648D01*
X201928477Y-91135466D01*
X201924204Y-91122316D01*
X201865218Y-90940776D01*
X201831503Y-90874607D01*
X201772287Y-90758390D01*
X201764556Y-90747749D01*
X201651971Y-90592786D01*
X201507213Y-90448028D01*
X201341613Y-90327715D01*
X201341612Y-90327714D01*
X201341610Y-90327713D01*
X201284653Y-90298691D01*
X201159223Y-90234781D01*
X200964534Y-90171522D01*
X200789995Y-90143878D01*
X200762352Y-90139500D01*
X200557648Y-90139500D01*
X200533329Y-90143351D01*
X200355465Y-90171522D01*
X200160776Y-90234781D01*
X199978386Y-90327715D01*
X199812786Y-90448028D01*
X199668028Y-90592786D01*
X199547715Y-90758386D01*
X199454781Y-90940776D01*
X199391522Y-91135465D01*
X199359500Y-91337648D01*
X191812569Y-91337648D01*
X181124209Y-80649289D01*
X181124206Y-80649285D01*
X181124206Y-80649286D01*
X181117139Y-80642219D01*
X181117139Y-80642218D01*
X180977782Y-80502861D01*
X180977781Y-80502860D01*
X180977780Y-80502859D01*
X180813920Y-80393371D01*
X180813911Y-80393366D01*
X180741315Y-80363296D01*
X180685165Y-80340038D01*
X180631836Y-80317949D01*
X180631832Y-80317948D01*
X180631828Y-80317946D01*
X180535188Y-80298724D01*
X180438544Y-80279500D01*
X180438541Y-80279500D01*
X163520200Y-80279500D01*
X163453161Y-80259815D01*
X163440634Y-80250506D01*
X163267820Y-80124951D01*
X163078414Y-80028444D01*
X163078413Y-80028443D01*
X163078412Y-80028443D01*
X162876243Y-79962754D01*
X162876241Y-79962753D01*
X162876240Y-79962753D01*
X162714957Y-79937208D01*
X162666287Y-79929500D01*
X162453713Y-79929500D01*
X162405042Y-79937208D01*
X162243760Y-79962753D01*
X162041585Y-80028444D01*
X161852179Y-80124951D01*
X161680213Y-80249890D01*
X161529890Y-80400213D01*
X161404949Y-80572182D01*
X161400484Y-80580946D01*
X161352509Y-80631742D01*
X161284688Y-80648536D01*
X161218553Y-80625998D01*
X161179516Y-80580946D01*
X161175050Y-80572182D01*
X161050109Y-80400213D01*
X160899786Y-80249890D01*
X160727820Y-80124951D01*
X160538414Y-80028444D01*
X160538413Y-80028443D01*
X160538412Y-80028443D01*
X160336243Y-79962754D01*
X160336241Y-79962753D01*
X160336240Y-79962753D01*
X160174957Y-79937208D01*
X160126287Y-79929500D01*
X159913713Y-79929500D01*
X159865042Y-79937208D01*
X159703760Y-79962753D01*
X159501585Y-80028444D01*
X159312179Y-80124951D01*
X159140213Y-80249890D01*
X158989890Y-80400213D01*
X158864949Y-80572182D01*
X158860484Y-80580946D01*
X158812509Y-80631742D01*
X158744688Y-80648536D01*
X158678553Y-80625998D01*
X158639516Y-80580946D01*
X158635050Y-80572182D01*
X158510109Y-80400213D01*
X158359786Y-80249890D01*
X158187820Y-80124951D01*
X157998414Y-80028444D01*
X157998413Y-80028443D01*
X157998412Y-80028443D01*
X157796243Y-79962754D01*
X157796241Y-79962753D01*
X157796240Y-79962753D01*
X157634957Y-79937208D01*
X157586287Y-79929500D01*
X157373713Y-79929500D01*
X157325042Y-79937208D01*
X157163760Y-79962753D01*
X156961585Y-80028444D01*
X156772179Y-80124951D01*
X156600213Y-80249890D01*
X156449890Y-80400213D01*
X156324949Y-80572182D01*
X156320484Y-80580946D01*
X156272509Y-80631742D01*
X156204688Y-80648536D01*
X156138553Y-80625998D01*
X156099516Y-80580946D01*
X156095050Y-80572182D01*
X155970109Y-80400213D01*
X155819786Y-80249890D01*
X155647820Y-80124951D01*
X155458414Y-80028444D01*
X155458413Y-80028443D01*
X155458412Y-80028443D01*
X155256243Y-79962754D01*
X155256241Y-79962753D01*
X155256240Y-79962753D01*
X155094957Y-79937208D01*
X155046287Y-79929500D01*
X154833713Y-79929500D01*
X154785042Y-79937208D01*
X154623760Y-79962753D01*
X154421585Y-80028444D01*
X154232179Y-80124951D01*
X154060213Y-80249890D01*
X153909890Y-80400213D01*
X153784949Y-80572182D01*
X153780484Y-80580946D01*
X153732509Y-80631742D01*
X153664688Y-80648536D01*
X153598553Y-80625998D01*
X153559516Y-80580946D01*
X153555050Y-80572182D01*
X153430109Y-80400213D01*
X153279786Y-80249890D01*
X153107820Y-80124951D01*
X152918414Y-80028444D01*
X152918413Y-80028443D01*
X152918412Y-80028443D01*
X152716243Y-79962754D01*
X152716241Y-79962753D01*
X152716240Y-79962753D01*
X152554957Y-79937208D01*
X152506287Y-79929500D01*
X152293713Y-79929500D01*
X152245042Y-79937208D01*
X152083760Y-79962753D01*
X151881585Y-80028444D01*
X151692179Y-80124951D01*
X151520213Y-80249890D01*
X151369890Y-80400213D01*
X151244949Y-80572182D01*
X151240484Y-80580946D01*
X151192509Y-80631742D01*
X151124688Y-80648536D01*
X151058553Y-80625998D01*
X151019516Y-80580946D01*
X151015050Y-80572182D01*
X150890109Y-80400213D01*
X150739786Y-80249890D01*
X150567820Y-80124951D01*
X150378414Y-80028444D01*
X150378413Y-80028443D01*
X150378412Y-80028443D01*
X150176243Y-79962754D01*
X150176241Y-79962753D01*
X150176240Y-79962753D01*
X150014957Y-79937208D01*
X149966287Y-79929500D01*
X149753713Y-79929500D01*
X149705042Y-79937208D01*
X149543760Y-79962753D01*
X149341585Y-80028444D01*
X149152179Y-80124951D01*
X148980215Y-80249889D01*
X148866673Y-80363431D01*
X148805350Y-80396915D01*
X148735658Y-80391931D01*
X148679725Y-80350059D01*
X148662810Y-80319082D01*
X148613797Y-80187671D01*
X148613793Y-80187664D01*
X148527547Y-80072455D01*
X148527544Y-80072452D01*
X148412335Y-79986206D01*
X148412328Y-79986202D01*
X148277482Y-79935908D01*
X148277483Y-79935908D01*
X148217883Y-79929501D01*
X148217881Y-79929500D01*
X148217873Y-79929500D01*
X148217864Y-79929500D01*
X146422129Y-79929500D01*
X146422123Y-79929501D01*
X146362516Y-79935908D01*
X146227671Y-79986202D01*
X146227664Y-79986206D01*
X146112455Y-80072452D01*
X146112452Y-80072455D01*
X146026206Y-80187664D01*
X146026204Y-80187668D01*
X146026204Y-80187669D01*
X146022039Y-80198834D01*
X145980171Y-80254766D01*
X145914707Y-80279184D01*
X145905859Y-80279500D01*
X137264675Y-80279500D01*
X137264655Y-80279499D01*
X137258541Y-80279499D01*
X137061460Y-80279499D01*
X137061457Y-80279499D01*
X136868172Y-80317946D01*
X136868164Y-80317948D01*
X136686088Y-80393366D01*
X136686079Y-80393371D01*
X136522219Y-80502859D01*
X136522215Y-80502862D01*
X125911076Y-91114002D01*
X125849753Y-91147487D01*
X125780061Y-91142503D01*
X125724128Y-91100631D01*
X125705464Y-91064639D01*
X125702197Y-91054584D01*
X125665220Y-90940781D01*
X125572287Y-90758390D01*
X125564556Y-90747749D01*
X125451971Y-90592786D01*
X125307213Y-90448028D01*
X125141613Y-90327715D01*
X125141612Y-90327714D01*
X125141610Y-90327713D01*
X125084653Y-90298691D01*
X124959223Y-90234781D01*
X124764534Y-90171522D01*
X124589995Y-90143878D01*
X124562352Y-90139500D01*
X124357648Y-90139500D01*
X124333329Y-90143351D01*
X124155465Y-90171522D01*
X123960776Y-90234781D01*
X123778386Y-90327715D01*
X123612786Y-90448028D01*
X123468028Y-90592786D01*
X123347715Y-90758386D01*
X123254781Y-90940776D01*
X123191522Y-91135465D01*
X123159500Y-91337648D01*
X123159500Y-91542351D01*
X123191522Y-91744534D01*
X123254781Y-91939223D01*
X123347715Y-92121613D01*
X123468028Y-92287213D01*
X123612786Y-92431971D01*
X123767749Y-92544556D01*
X123778390Y-92552287D01*
X123960781Y-92645220D01*
X124074584Y-92682197D01*
X124084639Y-92685464D01*
X124142315Y-92724902D01*
X124169513Y-92789260D01*
X124157598Y-92858107D01*
X124134002Y-92891076D01*
X116751797Y-100273281D01*
X116690474Y-100306766D01*
X116683515Y-100308073D01*
X116535468Y-100331522D01*
X116340778Y-100394781D01*
X116158386Y-100487715D01*
X115992786Y-100608028D01*
X115848028Y-100752786D01*
X115727715Y-100918386D01*
X115634781Y-101100778D01*
X115571522Y-101295468D01*
X115548073Y-101443514D01*
X115518143Y-101506649D01*
X115513281Y-101511796D01*
X109966979Y-107058100D01*
X108582220Y-108442859D01*
X108582218Y-108442861D01*
X108512538Y-108512540D01*
X108442859Y-108582219D01*
X108333371Y-108746079D01*
X108333364Y-108746092D01*
X108257950Y-108928160D01*
X108257947Y-108928170D01*
X108219500Y-109121456D01*
X108219500Y-110884237D01*
X108199815Y-110951276D01*
X108195818Y-110957122D01*
X108107715Y-111078386D01*
X108014781Y-111260776D01*
X107951522Y-111455465D01*
X107919500Y-111657648D01*
X105140500Y-111657648D01*
X105140500Y-107145781D01*
X105160185Y-107078742D01*
X105176814Y-107058105D01*
X109308203Y-102926715D01*
X109369524Y-102893232D01*
X109376473Y-102891927D01*
X109524534Y-102868477D01*
X109719219Y-102805220D01*
X109901610Y-102712287D01*
X109994590Y-102644732D01*
X110067213Y-102591971D01*
X110067215Y-102591968D01*
X110067219Y-102591966D01*
X110211966Y-102447219D01*
X110211968Y-102447215D01*
X110211971Y-102447213D01*
X110264732Y-102374590D01*
X110332287Y-102281610D01*
X110425220Y-102099219D01*
X110488477Y-101904534D01*
X110520500Y-101702352D01*
X110520500Y-101497648D01*
X110488477Y-101295466D01*
X110425220Y-101100781D01*
X110425218Y-101100778D01*
X110425218Y-101100776D01*
X110391503Y-101034607D01*
X110332287Y-100918390D01*
X110324556Y-100907749D01*
X110211971Y-100752786D01*
X110067213Y-100608028D01*
X109901613Y-100487715D01*
X109901612Y-100487714D01*
X109901610Y-100487713D01*
X109844653Y-100458691D01*
X109719223Y-100394781D01*
X109524534Y-100331522D01*
X109336690Y-100301771D01*
X109322352Y-100299500D01*
X109117648Y-100299500D01*
X109103310Y-100301771D01*
X108915465Y-100331522D01*
X108720776Y-100394781D01*
X108538386Y-100487715D01*
X108372786Y-100608028D01*
X108228028Y-100752786D01*
X108107715Y-100918386D01*
X108014781Y-101100778D01*
X107951522Y-101295468D01*
X107928073Y-101443515D01*
X107898143Y-101506649D01*
X107893281Y-101511797D01*
X105679499Y-103725580D01*
X103502221Y-105902858D01*
X103502218Y-105902861D01*
X103432538Y-105972540D01*
X103362859Y-106042219D01*
X103253371Y-106206079D01*
X103253364Y-106206092D01*
X103177950Y-106388160D01*
X103177947Y-106388170D01*
X103139500Y-106581456D01*
X96820500Y-106581456D01*
X96820500Y-91337648D01*
X107919500Y-91337648D01*
X107919500Y-91542351D01*
X107951522Y-91744534D01*
X108014781Y-91939223D01*
X108107715Y-92121613D01*
X108228028Y-92287213D01*
X108372786Y-92431971D01*
X108527749Y-92544556D01*
X108538390Y-92552287D01*
X108654607Y-92611503D01*
X108720776Y-92645218D01*
X108720778Y-92645218D01*
X108720781Y-92645220D01*
X108825137Y-92679127D01*
X108915465Y-92708477D01*
X109016557Y-92724488D01*
X109117648Y-92740500D01*
X109117649Y-92740500D01*
X109322351Y-92740500D01*
X109322352Y-92740500D01*
X109524534Y-92708477D01*
X109719219Y-92645220D01*
X109901610Y-92552287D01*
X109994590Y-92484732D01*
X110067213Y-92431971D01*
X110067215Y-92431968D01*
X110067219Y-92431966D01*
X110211966Y-92287219D01*
X110211968Y-92287215D01*
X110211971Y-92287213D01*
X110264732Y-92214590D01*
X110332287Y-92121610D01*
X110425220Y-91939219D01*
X110488477Y-91744534D01*
X110520500Y-91542352D01*
X110520500Y-91337648D01*
X115539500Y-91337648D01*
X115539500Y-91542351D01*
X115571522Y-91744534D01*
X115634781Y-91939223D01*
X115727715Y-92121613D01*
X115848028Y-92287213D01*
X115992786Y-92431971D01*
X116147749Y-92544556D01*
X116158390Y-92552287D01*
X116274607Y-92611503D01*
X116340776Y-92645218D01*
X116340778Y-92645218D01*
X116340781Y-92645220D01*
X116445137Y-92679127D01*
X116535465Y-92708477D01*
X116636557Y-92724488D01*
X116737648Y-92740500D01*
X116737649Y-92740500D01*
X116942351Y-92740500D01*
X116942352Y-92740500D01*
X117144534Y-92708477D01*
X117339219Y-92645220D01*
X117521610Y-92552287D01*
X117614590Y-92484732D01*
X117687213Y-92431971D01*
X117687215Y-92431968D01*
X117687219Y-92431966D01*
X117831966Y-92287219D01*
X117831968Y-92287215D01*
X117831971Y-92287213D01*
X117884732Y-92214590D01*
X117952287Y-92121610D01*
X118045220Y-91939219D01*
X118108477Y-91744534D01*
X118140500Y-91542352D01*
X118140500Y-91337648D01*
X118108477Y-91135466D01*
X118104204Y-91122316D01*
X118045218Y-90940776D01*
X118011503Y-90874607D01*
X117952287Y-90758390D01*
X117944556Y-90747749D01*
X117831971Y-90592786D01*
X117687213Y-90448028D01*
X117521613Y-90327715D01*
X117521612Y-90327714D01*
X117521610Y-90327713D01*
X117464653Y-90298691D01*
X117339223Y-90234781D01*
X117144534Y-90171522D01*
X116969995Y-90143878D01*
X116942352Y-90139500D01*
X116737648Y-90139500D01*
X116713329Y-90143351D01*
X116535465Y-90171522D01*
X116340776Y-90234781D01*
X116158386Y-90327715D01*
X115992786Y-90448028D01*
X115848028Y-90592786D01*
X115727715Y-90758386D01*
X115634781Y-90940776D01*
X115571522Y-91135465D01*
X115539500Y-91337648D01*
X110520500Y-91337648D01*
X110488477Y-91135466D01*
X110484204Y-91122316D01*
X110425218Y-90940776D01*
X110391503Y-90874607D01*
X110332287Y-90758390D01*
X110324556Y-90747749D01*
X110211971Y-90592786D01*
X110067213Y-90448028D01*
X109901613Y-90327715D01*
X109901612Y-90327714D01*
X109901610Y-90327713D01*
X109844653Y-90298691D01*
X109719223Y-90234781D01*
X109524534Y-90171522D01*
X109349995Y-90143878D01*
X109322352Y-90139500D01*
X109117648Y-90139500D01*
X109093329Y-90143351D01*
X108915465Y-90171522D01*
X108720776Y-90234781D01*
X108538386Y-90327715D01*
X108372786Y-90448028D01*
X108228028Y-90592786D01*
X108107715Y-90758386D01*
X108014781Y-90940776D01*
X107951522Y-91135465D01*
X107919500Y-91337648D01*
X96820500Y-91337648D01*
X96820500Y-76018209D01*
X97899500Y-76018209D01*
X97899500Y-76381790D01*
X97935137Y-76743630D01*
X98006064Y-77100212D01*
X98006067Y-77100223D01*
X98111614Y-77448165D01*
X98250754Y-77784078D01*
X98250756Y-77784083D01*
X98422140Y-78104720D01*
X98422151Y-78104738D01*
X98624140Y-78407035D01*
X98624150Y-78407049D01*
X98854807Y-78688106D01*
X99111893Y-78945192D01*
X99111898Y-78945196D01*
X99111899Y-78945197D01*
X99392956Y-79175854D01*
X99695268Y-79377853D01*
X99695277Y-79377858D01*
X99695279Y-79377859D01*
X100015916Y-79549243D01*
X100015918Y-79549243D01*
X100015924Y-79549247D01*
X100351836Y-79688386D01*
X100699767Y-79793930D01*
X100699773Y-79793931D01*
X100699776Y-79793932D01*
X100699787Y-79793935D01*
X101056369Y-79864862D01*
X101418206Y-79900500D01*
X101418209Y-79900500D01*
X101781791Y-79900500D01*
X101781794Y-79900500D01*
X102143631Y-79864862D01*
X102213045Y-79851054D01*
X102500212Y-79793935D01*
X102500223Y-79793932D01*
X102500223Y-79793931D01*
X102500233Y-79793930D01*
X102848164Y-79688386D01*
X103184076Y-79549247D01*
X103504732Y-79377853D01*
X103807044Y-79175854D01*
X104088101Y-78945197D01*
X104345197Y-78688101D01*
X104575854Y-78407044D01*
X104777853Y-78104732D01*
X104949247Y-77784076D01*
X105088386Y-77448164D01*
X105193930Y-77100233D01*
X105193932Y-77100223D01*
X105193935Y-77100212D01*
X105264862Y-76743630D01*
X105300500Y-76381790D01*
X105300500Y-76018209D01*
X204579500Y-76018209D01*
X204579500Y-76381790D01*
X204615137Y-76743630D01*
X204686064Y-77100212D01*
X204686067Y-77100223D01*
X204791614Y-77448165D01*
X204930754Y-77784078D01*
X204930756Y-77784083D01*
X205102140Y-78104720D01*
X205102151Y-78104738D01*
X205304140Y-78407035D01*
X205304150Y-78407049D01*
X205534807Y-78688106D01*
X205791893Y-78945192D01*
X205791898Y-78945196D01*
X205791899Y-78945197D01*
X206072956Y-79175854D01*
X206375268Y-79377853D01*
X206375277Y-79377858D01*
X206375279Y-79377859D01*
X206695916Y-79549243D01*
X206695918Y-79549243D01*
X206695924Y-79549247D01*
X207031836Y-79688386D01*
X207379767Y-79793930D01*
X207379773Y-79793931D01*
X207379776Y-79793932D01*
X207379787Y-79793935D01*
X207736369Y-79864862D01*
X208098206Y-79900500D01*
X208098209Y-79900500D01*
X208461791Y-79900500D01*
X208461794Y-79900500D01*
X208823631Y-79864862D01*
X208893045Y-79851054D01*
X209180212Y-79793935D01*
X209180223Y-79793932D01*
X209180223Y-79793931D01*
X209180233Y-79793930D01*
X209528164Y-79688386D01*
X209864076Y-79549247D01*
X210184732Y-79377853D01*
X210487044Y-79175854D01*
X210768101Y-78945197D01*
X211025197Y-78688101D01*
X211255854Y-78407044D01*
X211457853Y-78104732D01*
X211629247Y-77784076D01*
X211768386Y-77448164D01*
X211873930Y-77100233D01*
X211873932Y-77100223D01*
X211873935Y-77100212D01*
X211944862Y-76743630D01*
X211980500Y-76381790D01*
X211980500Y-76018209D01*
X211944862Y-75656369D01*
X211873935Y-75299787D01*
X211873932Y-75299776D01*
X211873931Y-75299773D01*
X211873930Y-75299767D01*
X211768386Y-74951836D01*
X211629247Y-74615924D01*
X211457853Y-74295268D01*
X211255854Y-73992956D01*
X211025197Y-73711899D01*
X211025196Y-73711898D01*
X211025192Y-73711893D01*
X210768106Y-73454807D01*
X210487049Y-73224150D01*
X210487048Y-73224149D01*
X210487044Y-73224146D01*
X210184732Y-73022147D01*
X210184727Y-73022144D01*
X210184720Y-73022140D01*
X209864083Y-72850756D01*
X209864078Y-72850754D01*
X209528165Y-72711614D01*
X209180223Y-72606067D01*
X209180212Y-72606064D01*
X208823630Y-72535137D01*
X208551111Y-72508296D01*
X208461794Y-72499500D01*
X208098206Y-72499500D01*
X208015679Y-72507628D01*
X207736369Y-72535137D01*
X207379787Y-72606064D01*
X207379776Y-72606067D01*
X207031834Y-72711614D01*
X206695921Y-72850754D01*
X206695916Y-72850756D01*
X206375279Y-73022140D01*
X206375261Y-73022151D01*
X206072964Y-73224140D01*
X206072950Y-73224150D01*
X205791893Y-73454807D01*
X205534807Y-73711893D01*
X205304150Y-73992950D01*
X205304140Y-73992964D01*
X205102151Y-74295261D01*
X205102140Y-74295279D01*
X204930756Y-74615916D01*
X204930754Y-74615921D01*
X204791614Y-74951834D01*
X204686067Y-75299776D01*
X204686064Y-75299787D01*
X204615137Y-75656369D01*
X204579500Y-76018209D01*
X105300500Y-76018209D01*
X105264862Y-75656369D01*
X105193935Y-75299787D01*
X105193932Y-75299776D01*
X105193931Y-75299773D01*
X105193930Y-75299767D01*
X105088386Y-74951836D01*
X104949247Y-74615924D01*
X104777853Y-74295268D01*
X104575854Y-73992956D01*
X104345197Y-73711899D01*
X104345196Y-73711898D01*
X104345192Y-73711893D01*
X104088106Y-73454807D01*
X103807049Y-73224150D01*
X103807048Y-73224149D01*
X103807044Y-73224146D01*
X103504732Y-73022147D01*
X103504727Y-73022144D01*
X103504720Y-73022140D01*
X103184083Y-72850756D01*
X103184078Y-72850754D01*
X102848165Y-72711614D01*
X102500223Y-72606067D01*
X102500212Y-72606064D01*
X102143630Y-72535137D01*
X101871111Y-72508296D01*
X101781794Y-72499500D01*
X101418206Y-72499500D01*
X101335679Y-72507628D01*
X101056369Y-72535137D01*
X100699787Y-72606064D01*
X100699776Y-72606067D01*
X100351834Y-72711614D01*
X100015921Y-72850754D01*
X100015916Y-72850756D01*
X99695279Y-73022140D01*
X99695261Y-73022151D01*
X99392964Y-73224140D01*
X99392950Y-73224150D01*
X99111893Y-73454807D01*
X98854807Y-73711893D01*
X98624150Y-73992950D01*
X98624140Y-73992964D01*
X98422151Y-74295261D01*
X98422140Y-74295279D01*
X98250756Y-74615916D01*
X98250754Y-74615921D01*
X98111614Y-74951834D01*
X98006067Y-75299776D01*
X98006064Y-75299787D01*
X97935137Y-75656369D01*
X97899500Y-76018209D01*
X96820500Y-76018209D01*
X96820500Y-74123480D01*
X96820695Y-74116527D01*
X96827634Y-73992964D01*
X96837084Y-73824691D01*
X96838638Y-73810898D01*
X96887015Y-73526167D01*
X96890109Y-73512615D01*
X96906764Y-73454807D01*
X96970061Y-73235096D01*
X96974653Y-73221975D01*
X97057423Y-73022151D01*
X97085175Y-72955151D01*
X97091195Y-72942651D01*
X97230902Y-72689868D01*
X97238297Y-72678100D01*
X97279842Y-72619548D01*
X97405422Y-72442559D01*
X97414077Y-72431705D01*
X97606534Y-72216346D01*
X97616346Y-72206534D01*
X97831705Y-72014077D01*
X97842559Y-72005422D01*
X98078105Y-71838293D01*
X98089868Y-71830902D01*
X98342651Y-71691195D01*
X98355151Y-71685175D01*
X98621979Y-71574651D01*
X98635096Y-71570061D01*
X98912621Y-71490107D01*
X98926167Y-71487015D01*
X99210898Y-71438638D01*
X99224691Y-71437084D01*
X99516528Y-71420695D01*
X99523481Y-71420500D01*
X99567595Y-71420500D01*
X210312405Y-71420500D01*
X210356519Y-71420500D01*
X210363472Y-71420695D01*
G37*
%TD.AperFunction*%
M02*
