M48
; DRILL file {KiCad 9.0.4} date 2026-02-02T12:55:22-0800
; FORMAT={-:-/ absolute / inch / decimal}
; #@! TF.CreationDate,2026-02-02T12:55:22-08:00
; #@! TF.GenerationSoftware,Kicad,Pcbnew,9.0.4
; #@! TF.FileFunction,MixedPlating,1,2
FMAT,2
INCH
; #@! TA.AperFunction,Plated,PTH,ComponentDrill
T1C0.0315
; #@! TA.AperFunction,Plated,PTH,ComponentDrill
T2C0.0354
; #@! TA.AperFunction,Plated,PTH,ComponentDrill
T3C0.0394
; #@! TA.AperFunction,Plated,PTH,ComponentDrill
T4C0.1260
%
G90
G05
T1
X4.3Y-3.6
X4.3Y-4.0
X4.3Y-4.4
X4.3Y-4.5181
X4.6Y-3.6
X4.6Y-4.0
X4.9Y-3.6
X4.9Y-4.0
X4.9Y-4.4
X4.9Y-4.5181
X5.5Y-3.6
X5.5Y-4.0
X5.5Y-4.4
X5.5Y-4.5181
X5.9Y-3.6
X5.9Y-4.0
X6.1Y-4.4
X6.1Y-4.5181
X6.7Y-3.6
X6.7Y-4.0
X6.7Y-4.4
X6.7Y-4.5181
X7.3Y-3.6
X7.3Y-4.0
X7.3Y-4.4
X7.3Y-4.5181
X7.9Y-3.6
X7.9Y-4.0
X7.9Y-4.4
X7.9Y-4.5181
T2
X4.6Y-4.4
X4.6Y-4.5
X5.2Y-4.4
X5.2Y-4.5
X5.8Y-4.4
X5.8Y-4.5
X6.4Y-4.4
X6.4Y-4.5
X7.0Y-4.4
X7.0Y-4.5
X7.6Y-4.4
X7.6Y-4.5
T3
X5.8Y-3.2
X5.9Y-3.2
X6.0Y-3.2
X6.1Y-3.2
X6.2Y-3.2
X6.3Y-3.2
X6.3Y-3.8
X6.3Y-3.9
X6.4Y-3.2
T4
X4.0Y-3.0
X4.0Y-4.8
X8.2Y-3.0
X8.2Y-4.8
M30
