%TF.GenerationSoftware,KiCad,Pcbnew,9.0.4*%
%TF.CreationDate,2026-02-02T12:57:02-08:00*%
%TF.ProjectId,LDR_Board,4c44525f-426f-4617-9264-2e6b69636164,rev?*%
%TF.SameCoordinates,Original*%
%TF.FileFunction,Legend,Top*%
%TF.FilePolarity,Positive*%
%FSLAX46Y46*%
G04 Gerber Fmt 4.6, Leading zero omitted, Abs format (unit mm)*
G04 Created by KiCad (PCBNEW 9.0.4) date 2026-02-02 12:57:02*
%MOMM*%
%LPD*%
G01*
G04 APERTURE LIST*
%ADD10C,0.153000*%
%ADD11C,0.150000*%
%ADD12C,0.120000*%
G04 APERTURE END LIST*
D10*
X124914663Y-96639047D02*
X124914663Y-97210475D01*
X124914663Y-96924761D02*
X123914663Y-96924761D01*
X123914663Y-96924761D02*
X124057520Y-97019999D01*
X124057520Y-97019999D02*
X124152758Y-97115237D01*
X124152758Y-97115237D02*
X124200377Y-97210475D01*
X124914663Y-96210475D02*
X123914663Y-96210475D01*
X124533710Y-96115237D02*
X124914663Y-95829523D01*
X124247996Y-95829523D02*
X124628948Y-96210475D01*
X170634663Y-96639047D02*
X170634663Y-97210475D01*
X170634663Y-96924761D02*
X169634663Y-96924761D01*
X169634663Y-96924761D02*
X169777520Y-97019999D01*
X169777520Y-97019999D02*
X169872758Y-97115237D01*
X169872758Y-97115237D02*
X169920377Y-97210475D01*
X170634663Y-96210475D02*
X169634663Y-96210475D01*
X170253710Y-96115237D02*
X170634663Y-95829523D01*
X169967996Y-95829523D02*
X170348948Y-96210475D01*
X150028948Y-78448866D02*
X150028948Y-77972676D01*
X150314663Y-78544104D02*
X149314663Y-78210771D01*
X149314663Y-78210771D02*
X150314663Y-77877438D01*
X150314663Y-77496485D02*
X150314663Y-77306009D01*
X150314663Y-77306009D02*
X150267044Y-77210771D01*
X150267044Y-77210771D02*
X150219424Y-77163152D01*
X150219424Y-77163152D02*
X150076567Y-77067914D01*
X150076567Y-77067914D02*
X149886091Y-77020295D01*
X149886091Y-77020295D02*
X149505139Y-77020295D01*
X149505139Y-77020295D02*
X149409901Y-77067914D01*
X149409901Y-77067914D02*
X149362282Y-77115533D01*
X149362282Y-77115533D02*
X149314663Y-77210771D01*
X149314663Y-77210771D02*
X149314663Y-77401247D01*
X149314663Y-77401247D02*
X149362282Y-77496485D01*
X149362282Y-77496485D02*
X149409901Y-77544104D01*
X149409901Y-77544104D02*
X149505139Y-77591723D01*
X149505139Y-77591723D02*
X149743234Y-77591723D01*
X149743234Y-77591723D02*
X149838472Y-77544104D01*
X149838472Y-77544104D02*
X149886091Y-77496485D01*
X149886091Y-77496485D02*
X149933710Y-77401247D01*
X149933710Y-77401247D02*
X149933710Y-77210771D01*
X149933710Y-77210771D02*
X149886091Y-77115533D01*
X149886091Y-77115533D02*
X149838472Y-77067914D01*
X149838472Y-77067914D02*
X149743234Y-77020295D01*
X160188948Y-78448866D02*
X160188948Y-77972676D01*
X160474663Y-78544104D02*
X159474663Y-78210771D01*
X159474663Y-78210771D02*
X160474663Y-77877438D01*
X160474663Y-77020295D02*
X160474663Y-77591723D01*
X160474663Y-77306009D02*
X159474663Y-77306009D01*
X159474663Y-77306009D02*
X159617520Y-77401247D01*
X159617520Y-77401247D02*
X159712758Y-77496485D01*
X159712758Y-77496485D02*
X159760377Y-77591723D01*
X159474663Y-76686961D02*
X159474663Y-76067914D01*
X159474663Y-76067914D02*
X159855615Y-76401247D01*
X159855615Y-76401247D02*
X159855615Y-76258390D01*
X159855615Y-76258390D02*
X159903234Y-76163152D01*
X159903234Y-76163152D02*
X159950853Y-76115533D01*
X159950853Y-76115533D02*
X160046091Y-76067914D01*
X160046091Y-76067914D02*
X160284186Y-76067914D01*
X160284186Y-76067914D02*
X160379424Y-76115533D01*
X160379424Y-76115533D02*
X160427044Y-76163152D01*
X160427044Y-76163152D02*
X160474663Y-76258390D01*
X160474663Y-76258390D02*
X160474663Y-76544104D01*
X160474663Y-76544104D02*
X160427044Y-76639342D01*
X160427044Y-76639342D02*
X160379424Y-76686961D01*
X192278095Y-108137282D02*
X192182857Y-108089663D01*
X192182857Y-108089663D02*
X192040000Y-108089663D01*
X192040000Y-108089663D02*
X191897143Y-108137282D01*
X191897143Y-108137282D02*
X191801905Y-108232520D01*
X191801905Y-108232520D02*
X191754286Y-108327758D01*
X191754286Y-108327758D02*
X191706667Y-108518234D01*
X191706667Y-108518234D02*
X191706667Y-108661091D01*
X191706667Y-108661091D02*
X191754286Y-108851567D01*
X191754286Y-108851567D02*
X191801905Y-108946805D01*
X191801905Y-108946805D02*
X191897143Y-109042044D01*
X191897143Y-109042044D02*
X192040000Y-109089663D01*
X192040000Y-109089663D02*
X192135238Y-109089663D01*
X192135238Y-109089663D02*
X192278095Y-109042044D01*
X192278095Y-109042044D02*
X192325714Y-108994424D01*
X192325714Y-108994424D02*
X192325714Y-108661091D01*
X192325714Y-108661091D02*
X192135238Y-108661091D01*
X192754286Y-109089663D02*
X192754286Y-108089663D01*
X192754286Y-108089663D02*
X193325714Y-109089663D01*
X193325714Y-109089663D02*
X193325714Y-108089663D01*
X193801905Y-109089663D02*
X193801905Y-108089663D01*
X193801905Y-108089663D02*
X194040000Y-108089663D01*
X194040000Y-108089663D02*
X194182857Y-108137282D01*
X194182857Y-108137282D02*
X194278095Y-108232520D01*
X194278095Y-108232520D02*
X194325714Y-108327758D01*
X194325714Y-108327758D02*
X194373333Y-108518234D01*
X194373333Y-108518234D02*
X194373333Y-108661091D01*
X194373333Y-108661091D02*
X194325714Y-108851567D01*
X194325714Y-108851567D02*
X194278095Y-108946805D01*
X194278095Y-108946805D02*
X194182857Y-109042044D01*
X194182857Y-109042044D02*
X194040000Y-109089663D01*
X194040000Y-109089663D02*
X193801905Y-109089663D01*
X157648948Y-78448866D02*
X157648948Y-77972676D01*
X157934663Y-78544104D02*
X156934663Y-78210771D01*
X156934663Y-78210771D02*
X157934663Y-77877438D01*
X157934663Y-77020295D02*
X157934663Y-77591723D01*
X157934663Y-77306009D02*
X156934663Y-77306009D01*
X156934663Y-77306009D02*
X157077520Y-77401247D01*
X157077520Y-77401247D02*
X157172758Y-77496485D01*
X157172758Y-77496485D02*
X157220377Y-77591723D01*
X157029901Y-76639342D02*
X156982282Y-76591723D01*
X156982282Y-76591723D02*
X156934663Y-76496485D01*
X156934663Y-76496485D02*
X156934663Y-76258390D01*
X156934663Y-76258390D02*
X156982282Y-76163152D01*
X156982282Y-76163152D02*
X157029901Y-76115533D01*
X157029901Y-76115533D02*
X157125139Y-76067914D01*
X157125139Y-76067914D02*
X157220377Y-76067914D01*
X157220377Y-76067914D02*
X157363234Y-76115533D01*
X157363234Y-76115533D02*
X157934663Y-76686961D01*
X157934663Y-76686961D02*
X157934663Y-76067914D01*
X159258095Y-101787282D02*
X159162857Y-101739663D01*
X159162857Y-101739663D02*
X159020000Y-101739663D01*
X159020000Y-101739663D02*
X158877143Y-101787282D01*
X158877143Y-101787282D02*
X158781905Y-101882520D01*
X158781905Y-101882520D02*
X158734286Y-101977758D01*
X158734286Y-101977758D02*
X158686667Y-102168234D01*
X158686667Y-102168234D02*
X158686667Y-102311091D01*
X158686667Y-102311091D02*
X158734286Y-102501567D01*
X158734286Y-102501567D02*
X158781905Y-102596805D01*
X158781905Y-102596805D02*
X158877143Y-102692044D01*
X158877143Y-102692044D02*
X159020000Y-102739663D01*
X159020000Y-102739663D02*
X159115238Y-102739663D01*
X159115238Y-102739663D02*
X159258095Y-102692044D01*
X159258095Y-102692044D02*
X159305714Y-102644424D01*
X159305714Y-102644424D02*
X159305714Y-102311091D01*
X159305714Y-102311091D02*
X159115238Y-102311091D01*
X159734286Y-102739663D02*
X159734286Y-101739663D01*
X159734286Y-101739663D02*
X160305714Y-102739663D01*
X160305714Y-102739663D02*
X160305714Y-101739663D01*
X160781905Y-102739663D02*
X160781905Y-101739663D01*
X160781905Y-101739663D02*
X161020000Y-101739663D01*
X161020000Y-101739663D02*
X161162857Y-101787282D01*
X161162857Y-101787282D02*
X161258095Y-101882520D01*
X161258095Y-101882520D02*
X161305714Y-101977758D01*
X161305714Y-101977758D02*
X161353333Y-102168234D01*
X161353333Y-102168234D02*
X161353333Y-102311091D01*
X161353333Y-102311091D02*
X161305714Y-102501567D01*
X161305714Y-102501567D02*
X161258095Y-102596805D01*
X161258095Y-102596805D02*
X161162857Y-102692044D01*
X161162857Y-102692044D02*
X161020000Y-102739663D01*
X161020000Y-102739663D02*
X160781905Y-102739663D01*
X150314663Y-96639047D02*
X150314663Y-97210475D01*
X150314663Y-96924761D02*
X149314663Y-96924761D01*
X149314663Y-96924761D02*
X149457520Y-97019999D01*
X149457520Y-97019999D02*
X149552758Y-97115237D01*
X149552758Y-97115237D02*
X149600377Y-97210475D01*
X150314663Y-96210475D02*
X149314663Y-96210475D01*
X149933710Y-96115237D02*
X150314663Y-95829523D01*
X149647996Y-95829523D02*
X150028948Y-96210475D01*
X161798095Y-108137282D02*
X161702857Y-108089663D01*
X161702857Y-108089663D02*
X161560000Y-108089663D01*
X161560000Y-108089663D02*
X161417143Y-108137282D01*
X161417143Y-108137282D02*
X161321905Y-108232520D01*
X161321905Y-108232520D02*
X161274286Y-108327758D01*
X161274286Y-108327758D02*
X161226667Y-108518234D01*
X161226667Y-108518234D02*
X161226667Y-108661091D01*
X161226667Y-108661091D02*
X161274286Y-108851567D01*
X161274286Y-108851567D02*
X161321905Y-108946805D01*
X161321905Y-108946805D02*
X161417143Y-109042044D01*
X161417143Y-109042044D02*
X161560000Y-109089663D01*
X161560000Y-109089663D02*
X161655238Y-109089663D01*
X161655238Y-109089663D02*
X161798095Y-109042044D01*
X161798095Y-109042044D02*
X161845714Y-108994424D01*
X161845714Y-108994424D02*
X161845714Y-108661091D01*
X161845714Y-108661091D02*
X161655238Y-108661091D01*
X162274286Y-109089663D02*
X162274286Y-108089663D01*
X162274286Y-108089663D02*
X162845714Y-109089663D01*
X162845714Y-109089663D02*
X162845714Y-108089663D01*
X163321905Y-109089663D02*
X163321905Y-108089663D01*
X163321905Y-108089663D02*
X163560000Y-108089663D01*
X163560000Y-108089663D02*
X163702857Y-108137282D01*
X163702857Y-108137282D02*
X163798095Y-108232520D01*
X163798095Y-108232520D02*
X163845714Y-108327758D01*
X163845714Y-108327758D02*
X163893333Y-108518234D01*
X163893333Y-108518234D02*
X163893333Y-108661091D01*
X163893333Y-108661091D02*
X163845714Y-108851567D01*
X163845714Y-108851567D02*
X163798095Y-108946805D01*
X163798095Y-108946805D02*
X163702857Y-109042044D01*
X163702857Y-109042044D02*
X163560000Y-109089663D01*
X163560000Y-109089663D02*
X163321905Y-109089663D01*
X117294663Y-96639047D02*
X117294663Y-97210475D01*
X117294663Y-96924761D02*
X116294663Y-96924761D01*
X116294663Y-96924761D02*
X116437520Y-97019999D01*
X116437520Y-97019999D02*
X116532758Y-97115237D01*
X116532758Y-97115237D02*
X116580377Y-97210475D01*
X117294663Y-96210475D02*
X116294663Y-96210475D01*
X116913710Y-96115237D02*
X117294663Y-95829523D01*
X116627996Y-95829523D02*
X117008948Y-96210475D01*
X185874663Y-96639047D02*
X185874663Y-97210475D01*
X185874663Y-96924761D02*
X184874663Y-96924761D01*
X184874663Y-96924761D02*
X185017520Y-97019999D01*
X185017520Y-97019999D02*
X185112758Y-97115237D01*
X185112758Y-97115237D02*
X185160377Y-97210475D01*
X185874663Y-96210475D02*
X184874663Y-96210475D01*
X185493710Y-96115237D02*
X185874663Y-95829523D01*
X185207996Y-95829523D02*
X185588948Y-96210475D01*
X147488948Y-78448866D02*
X147488948Y-77972676D01*
X147774663Y-78544104D02*
X146774663Y-78210771D01*
X146774663Y-78210771D02*
X147774663Y-77877438D01*
X147203234Y-77401247D02*
X147155615Y-77496485D01*
X147155615Y-77496485D02*
X147107996Y-77544104D01*
X147107996Y-77544104D02*
X147012758Y-77591723D01*
X147012758Y-77591723D02*
X146965139Y-77591723D01*
X146965139Y-77591723D02*
X146869901Y-77544104D01*
X146869901Y-77544104D02*
X146822282Y-77496485D01*
X146822282Y-77496485D02*
X146774663Y-77401247D01*
X146774663Y-77401247D02*
X146774663Y-77210771D01*
X146774663Y-77210771D02*
X146822282Y-77115533D01*
X146822282Y-77115533D02*
X146869901Y-77067914D01*
X146869901Y-77067914D02*
X146965139Y-77020295D01*
X146965139Y-77020295D02*
X147012758Y-77020295D01*
X147012758Y-77020295D02*
X147107996Y-77067914D01*
X147107996Y-77067914D02*
X147155615Y-77115533D01*
X147155615Y-77115533D02*
X147203234Y-77210771D01*
X147203234Y-77210771D02*
X147203234Y-77401247D01*
X147203234Y-77401247D02*
X147250853Y-77496485D01*
X147250853Y-77496485D02*
X147298472Y-77544104D01*
X147298472Y-77544104D02*
X147393710Y-77591723D01*
X147393710Y-77591723D02*
X147584186Y-77591723D01*
X147584186Y-77591723D02*
X147679424Y-77544104D01*
X147679424Y-77544104D02*
X147727044Y-77496485D01*
X147727044Y-77496485D02*
X147774663Y-77401247D01*
X147774663Y-77401247D02*
X147774663Y-77210771D01*
X147774663Y-77210771D02*
X147727044Y-77115533D01*
X147727044Y-77115533D02*
X147679424Y-77067914D01*
X147679424Y-77067914D02*
X147584186Y-77020295D01*
X147584186Y-77020295D02*
X147393710Y-77020295D01*
X147393710Y-77020295D02*
X147298472Y-77067914D01*
X147298472Y-77067914D02*
X147250853Y-77115533D01*
X147250853Y-77115533D02*
X147203234Y-77210771D01*
X162948788Y-78400175D02*
X162948788Y-77923985D01*
X163234503Y-78495413D02*
X162234503Y-78162080D01*
X162234503Y-78162080D02*
X163234503Y-77828747D01*
X163234503Y-76971604D02*
X163234503Y-77543032D01*
X163234503Y-77257318D02*
X162234503Y-77257318D01*
X162234503Y-77257318D02*
X162377360Y-77352556D01*
X162377360Y-77352556D02*
X162472598Y-77447794D01*
X162472598Y-77447794D02*
X162520217Y-77543032D01*
X162567836Y-76114461D02*
X163234503Y-76114461D01*
X162186884Y-76352556D02*
X162901169Y-76590651D01*
X162901169Y-76590651D02*
X162901169Y-75971604D01*
X116078095Y-108137282D02*
X115982857Y-108089663D01*
X115982857Y-108089663D02*
X115840000Y-108089663D01*
X115840000Y-108089663D02*
X115697143Y-108137282D01*
X115697143Y-108137282D02*
X115601905Y-108232520D01*
X115601905Y-108232520D02*
X115554286Y-108327758D01*
X115554286Y-108327758D02*
X115506667Y-108518234D01*
X115506667Y-108518234D02*
X115506667Y-108661091D01*
X115506667Y-108661091D02*
X115554286Y-108851567D01*
X115554286Y-108851567D02*
X115601905Y-108946805D01*
X115601905Y-108946805D02*
X115697143Y-109042044D01*
X115697143Y-109042044D02*
X115840000Y-109089663D01*
X115840000Y-109089663D02*
X115935238Y-109089663D01*
X115935238Y-109089663D02*
X116078095Y-109042044D01*
X116078095Y-109042044D02*
X116125714Y-108994424D01*
X116125714Y-108994424D02*
X116125714Y-108661091D01*
X116125714Y-108661091D02*
X115935238Y-108661091D01*
X116554286Y-109089663D02*
X116554286Y-108089663D01*
X116554286Y-108089663D02*
X117125714Y-109089663D01*
X117125714Y-109089663D02*
X117125714Y-108089663D01*
X117601905Y-109089663D02*
X117601905Y-108089663D01*
X117601905Y-108089663D02*
X117840000Y-108089663D01*
X117840000Y-108089663D02*
X117982857Y-108137282D01*
X117982857Y-108137282D02*
X118078095Y-108232520D01*
X118078095Y-108232520D02*
X118125714Y-108327758D01*
X118125714Y-108327758D02*
X118173333Y-108518234D01*
X118173333Y-108518234D02*
X118173333Y-108661091D01*
X118173333Y-108661091D02*
X118125714Y-108851567D01*
X118125714Y-108851567D02*
X118078095Y-108946805D01*
X118078095Y-108946805D02*
X117982857Y-109042044D01*
X117982857Y-109042044D02*
X117840000Y-109089663D01*
X117840000Y-109089663D02*
X117601905Y-109089663D01*
X140154663Y-96639047D02*
X140154663Y-97210475D01*
X140154663Y-96924761D02*
X139154663Y-96924761D01*
X139154663Y-96924761D02*
X139297520Y-97019999D01*
X139297520Y-97019999D02*
X139392758Y-97115237D01*
X139392758Y-97115237D02*
X139440377Y-97210475D01*
X140154663Y-96210475D02*
X139154663Y-96210475D01*
X139773710Y-96115237D02*
X140154663Y-95829523D01*
X139487996Y-95829523D02*
X139868948Y-96210475D01*
X201114663Y-96639047D02*
X201114663Y-97210475D01*
X201114663Y-96924761D02*
X200114663Y-96924761D01*
X200114663Y-96924761D02*
X200257520Y-97019999D01*
X200257520Y-97019999D02*
X200352758Y-97115237D01*
X200352758Y-97115237D02*
X200400377Y-97210475D01*
X201114663Y-96210475D02*
X200114663Y-96210475D01*
X200733710Y-96115237D02*
X201114663Y-95829523D01*
X200447996Y-95829523D02*
X200828948Y-96210475D01*
X131318095Y-108137282D02*
X131222857Y-108089663D01*
X131222857Y-108089663D02*
X131080000Y-108089663D01*
X131080000Y-108089663D02*
X130937143Y-108137282D01*
X130937143Y-108137282D02*
X130841905Y-108232520D01*
X130841905Y-108232520D02*
X130794286Y-108327758D01*
X130794286Y-108327758D02*
X130746667Y-108518234D01*
X130746667Y-108518234D02*
X130746667Y-108661091D01*
X130746667Y-108661091D02*
X130794286Y-108851567D01*
X130794286Y-108851567D02*
X130841905Y-108946805D01*
X130841905Y-108946805D02*
X130937143Y-109042044D01*
X130937143Y-109042044D02*
X131080000Y-109089663D01*
X131080000Y-109089663D02*
X131175238Y-109089663D01*
X131175238Y-109089663D02*
X131318095Y-109042044D01*
X131318095Y-109042044D02*
X131365714Y-108994424D01*
X131365714Y-108994424D02*
X131365714Y-108661091D01*
X131365714Y-108661091D02*
X131175238Y-108661091D01*
X131794286Y-109089663D02*
X131794286Y-108089663D01*
X131794286Y-108089663D02*
X132365714Y-109089663D01*
X132365714Y-109089663D02*
X132365714Y-108089663D01*
X132841905Y-109089663D02*
X132841905Y-108089663D01*
X132841905Y-108089663D02*
X133080000Y-108089663D01*
X133080000Y-108089663D02*
X133222857Y-108137282D01*
X133222857Y-108137282D02*
X133318095Y-108232520D01*
X133318095Y-108232520D02*
X133365714Y-108327758D01*
X133365714Y-108327758D02*
X133413333Y-108518234D01*
X133413333Y-108518234D02*
X133413333Y-108661091D01*
X133413333Y-108661091D02*
X133365714Y-108851567D01*
X133365714Y-108851567D02*
X133318095Y-108946805D01*
X133318095Y-108946805D02*
X133222857Y-109042044D01*
X133222857Y-109042044D02*
X133080000Y-109089663D01*
X133080000Y-109089663D02*
X132841905Y-109089663D01*
X108674663Y-97805713D02*
X108674663Y-97186666D01*
X108674663Y-97186666D02*
X109055615Y-97519999D01*
X109055615Y-97519999D02*
X109055615Y-97377142D01*
X109055615Y-97377142D02*
X109103234Y-97281904D01*
X109103234Y-97281904D02*
X109150853Y-97234285D01*
X109150853Y-97234285D02*
X109246091Y-97186666D01*
X109246091Y-97186666D02*
X109484186Y-97186666D01*
X109484186Y-97186666D02*
X109579424Y-97234285D01*
X109579424Y-97234285D02*
X109627044Y-97281904D01*
X109627044Y-97281904D02*
X109674663Y-97377142D01*
X109674663Y-97377142D02*
X109674663Y-97662856D01*
X109674663Y-97662856D02*
X109627044Y-97758094D01*
X109627044Y-97758094D02*
X109579424Y-97805713D01*
X108674663Y-96853332D02*
X108674663Y-96234285D01*
X108674663Y-96234285D02*
X109055615Y-96567618D01*
X109055615Y-96567618D02*
X109055615Y-96424761D01*
X109055615Y-96424761D02*
X109103234Y-96329523D01*
X109103234Y-96329523D02*
X109150853Y-96281904D01*
X109150853Y-96281904D02*
X109246091Y-96234285D01*
X109246091Y-96234285D02*
X109484186Y-96234285D01*
X109484186Y-96234285D02*
X109579424Y-96281904D01*
X109579424Y-96281904D02*
X109627044Y-96329523D01*
X109627044Y-96329523D02*
X109674663Y-96424761D01*
X109674663Y-96424761D02*
X109674663Y-96710475D01*
X109674663Y-96710475D02*
X109627044Y-96805713D01*
X109627044Y-96805713D02*
X109579424Y-96853332D01*
X108674663Y-95615237D02*
X108674663Y-95519999D01*
X108674663Y-95519999D02*
X108722282Y-95424761D01*
X108722282Y-95424761D02*
X108769901Y-95377142D01*
X108769901Y-95377142D02*
X108865139Y-95329523D01*
X108865139Y-95329523D02*
X109055615Y-95281904D01*
X109055615Y-95281904D02*
X109293710Y-95281904D01*
X109293710Y-95281904D02*
X109484186Y-95329523D01*
X109484186Y-95329523D02*
X109579424Y-95377142D01*
X109579424Y-95377142D02*
X109627044Y-95424761D01*
X109627044Y-95424761D02*
X109674663Y-95519999D01*
X109674663Y-95519999D02*
X109674663Y-95615237D01*
X109674663Y-95615237D02*
X109627044Y-95710475D01*
X109627044Y-95710475D02*
X109579424Y-95758094D01*
X109579424Y-95758094D02*
X109484186Y-95805713D01*
X109484186Y-95805713D02*
X109293710Y-95853332D01*
X109293710Y-95853332D02*
X109055615Y-95853332D01*
X109055615Y-95853332D02*
X108865139Y-95805713D01*
X108865139Y-95805713D02*
X108769901Y-95758094D01*
X108769901Y-95758094D02*
X108722282Y-95710475D01*
X108722282Y-95710475D02*
X108674663Y-95615237D01*
X155108948Y-78448866D02*
X155108948Y-77972676D01*
X155394663Y-78544104D02*
X154394663Y-78210771D01*
X154394663Y-78210771D02*
X155394663Y-77877438D01*
X155394663Y-77020295D02*
X155394663Y-77591723D01*
X155394663Y-77306009D02*
X154394663Y-77306009D01*
X154394663Y-77306009D02*
X154537520Y-77401247D01*
X154537520Y-77401247D02*
X154632758Y-77496485D01*
X154632758Y-77496485D02*
X154680377Y-77591723D01*
X155394663Y-76067914D02*
X155394663Y-76639342D01*
X155394663Y-76353628D02*
X154394663Y-76353628D01*
X154394663Y-76353628D02*
X154537520Y-76448866D01*
X154537520Y-76448866D02*
X154632758Y-76544104D01*
X154632758Y-76544104D02*
X154680377Y-76639342D01*
X146558095Y-108137282D02*
X146462857Y-108089663D01*
X146462857Y-108089663D02*
X146320000Y-108089663D01*
X146320000Y-108089663D02*
X146177143Y-108137282D01*
X146177143Y-108137282D02*
X146081905Y-108232520D01*
X146081905Y-108232520D02*
X146034286Y-108327758D01*
X146034286Y-108327758D02*
X145986667Y-108518234D01*
X145986667Y-108518234D02*
X145986667Y-108661091D01*
X145986667Y-108661091D02*
X146034286Y-108851567D01*
X146034286Y-108851567D02*
X146081905Y-108946805D01*
X146081905Y-108946805D02*
X146177143Y-109042044D01*
X146177143Y-109042044D02*
X146320000Y-109089663D01*
X146320000Y-109089663D02*
X146415238Y-109089663D01*
X146415238Y-109089663D02*
X146558095Y-109042044D01*
X146558095Y-109042044D02*
X146605714Y-108994424D01*
X146605714Y-108994424D02*
X146605714Y-108661091D01*
X146605714Y-108661091D02*
X146415238Y-108661091D01*
X147034286Y-109089663D02*
X147034286Y-108089663D01*
X147034286Y-108089663D02*
X147605714Y-109089663D01*
X147605714Y-109089663D02*
X147605714Y-108089663D01*
X148081905Y-109089663D02*
X148081905Y-108089663D01*
X148081905Y-108089663D02*
X148320000Y-108089663D01*
X148320000Y-108089663D02*
X148462857Y-108137282D01*
X148462857Y-108137282D02*
X148558095Y-108232520D01*
X148558095Y-108232520D02*
X148605714Y-108327758D01*
X148605714Y-108327758D02*
X148653333Y-108518234D01*
X148653333Y-108518234D02*
X148653333Y-108661091D01*
X148653333Y-108661091D02*
X148605714Y-108851567D01*
X148605714Y-108851567D02*
X148558095Y-108946805D01*
X148558095Y-108946805D02*
X148462857Y-109042044D01*
X148462857Y-109042044D02*
X148320000Y-109089663D01*
X148320000Y-109089663D02*
X148081905Y-109089663D01*
X152568948Y-78448866D02*
X152568948Y-77972676D01*
X152854663Y-78544104D02*
X151854663Y-78210771D01*
X151854663Y-78210771D02*
X152854663Y-77877438D01*
X152854663Y-77020295D02*
X152854663Y-77591723D01*
X152854663Y-77306009D02*
X151854663Y-77306009D01*
X151854663Y-77306009D02*
X151997520Y-77401247D01*
X151997520Y-77401247D02*
X152092758Y-77496485D01*
X152092758Y-77496485D02*
X152140377Y-77591723D01*
X151854663Y-76401247D02*
X151854663Y-76306009D01*
X151854663Y-76306009D02*
X151902282Y-76210771D01*
X151902282Y-76210771D02*
X151949901Y-76163152D01*
X151949901Y-76163152D02*
X152045139Y-76115533D01*
X152045139Y-76115533D02*
X152235615Y-76067914D01*
X152235615Y-76067914D02*
X152473710Y-76067914D01*
X152473710Y-76067914D02*
X152664186Y-76115533D01*
X152664186Y-76115533D02*
X152759424Y-76163152D01*
X152759424Y-76163152D02*
X152807044Y-76210771D01*
X152807044Y-76210771D02*
X152854663Y-76306009D01*
X152854663Y-76306009D02*
X152854663Y-76401247D01*
X152854663Y-76401247D02*
X152807044Y-76496485D01*
X152807044Y-76496485D02*
X152759424Y-76544104D01*
X152759424Y-76544104D02*
X152664186Y-76591723D01*
X152664186Y-76591723D02*
X152473710Y-76639342D01*
X152473710Y-76639342D02*
X152235615Y-76639342D01*
X152235615Y-76639342D02*
X152045139Y-76591723D01*
X152045139Y-76591723D02*
X151949901Y-76544104D01*
X151949901Y-76544104D02*
X151902282Y-76496485D01*
X151902282Y-76496485D02*
X151854663Y-76401247D01*
X158686667Y-92849663D02*
X159020000Y-93849663D01*
X159020000Y-93849663D02*
X159353333Y-92849663D01*
X160258095Y-93754424D02*
X160210476Y-93802044D01*
X160210476Y-93802044D02*
X160067619Y-93849663D01*
X160067619Y-93849663D02*
X159972381Y-93849663D01*
X159972381Y-93849663D02*
X159829524Y-93802044D01*
X159829524Y-93802044D02*
X159734286Y-93706805D01*
X159734286Y-93706805D02*
X159686667Y-93611567D01*
X159686667Y-93611567D02*
X159639048Y-93421091D01*
X159639048Y-93421091D02*
X159639048Y-93278234D01*
X159639048Y-93278234D02*
X159686667Y-93087758D01*
X159686667Y-93087758D02*
X159734286Y-92992520D01*
X159734286Y-92992520D02*
X159829524Y-92897282D01*
X159829524Y-92897282D02*
X159972381Y-92849663D01*
X159972381Y-92849663D02*
X160067619Y-92849663D01*
X160067619Y-92849663D02*
X160210476Y-92897282D01*
X160210476Y-92897282D02*
X160258095Y-92944901D01*
X161258095Y-93754424D02*
X161210476Y-93802044D01*
X161210476Y-93802044D02*
X161067619Y-93849663D01*
X161067619Y-93849663D02*
X160972381Y-93849663D01*
X160972381Y-93849663D02*
X160829524Y-93802044D01*
X160829524Y-93802044D02*
X160734286Y-93706805D01*
X160734286Y-93706805D02*
X160686667Y-93611567D01*
X160686667Y-93611567D02*
X160639048Y-93421091D01*
X160639048Y-93421091D02*
X160639048Y-93278234D01*
X160639048Y-93278234D02*
X160686667Y-93087758D01*
X160686667Y-93087758D02*
X160734286Y-92992520D01*
X160734286Y-92992520D02*
X160829524Y-92897282D01*
X160829524Y-92897282D02*
X160972381Y-92849663D01*
X160972381Y-92849663D02*
X161067619Y-92849663D01*
X161067619Y-92849663D02*
X161210476Y-92897282D01*
X161210476Y-92897282D02*
X161258095Y-92944901D01*
X177038095Y-108137282D02*
X176942857Y-108089663D01*
X176942857Y-108089663D02*
X176800000Y-108089663D01*
X176800000Y-108089663D02*
X176657143Y-108137282D01*
X176657143Y-108137282D02*
X176561905Y-108232520D01*
X176561905Y-108232520D02*
X176514286Y-108327758D01*
X176514286Y-108327758D02*
X176466667Y-108518234D01*
X176466667Y-108518234D02*
X176466667Y-108661091D01*
X176466667Y-108661091D02*
X176514286Y-108851567D01*
X176514286Y-108851567D02*
X176561905Y-108946805D01*
X176561905Y-108946805D02*
X176657143Y-109042044D01*
X176657143Y-109042044D02*
X176800000Y-109089663D01*
X176800000Y-109089663D02*
X176895238Y-109089663D01*
X176895238Y-109089663D02*
X177038095Y-109042044D01*
X177038095Y-109042044D02*
X177085714Y-108994424D01*
X177085714Y-108994424D02*
X177085714Y-108661091D01*
X177085714Y-108661091D02*
X176895238Y-108661091D01*
X177514286Y-109089663D02*
X177514286Y-108089663D01*
X177514286Y-108089663D02*
X178085714Y-109089663D01*
X178085714Y-109089663D02*
X178085714Y-108089663D01*
X178561905Y-109089663D02*
X178561905Y-108089663D01*
X178561905Y-108089663D02*
X178800000Y-108089663D01*
X178800000Y-108089663D02*
X178942857Y-108137282D01*
X178942857Y-108137282D02*
X179038095Y-108232520D01*
X179038095Y-108232520D02*
X179085714Y-108327758D01*
X179085714Y-108327758D02*
X179133333Y-108518234D01*
X179133333Y-108518234D02*
X179133333Y-108661091D01*
X179133333Y-108661091D02*
X179085714Y-108851567D01*
X179085714Y-108851567D02*
X179038095Y-108946805D01*
X179038095Y-108946805D02*
X178942857Y-109042044D01*
X178942857Y-109042044D02*
X178800000Y-109089663D01*
X178800000Y-109089663D02*
X178561905Y-109089663D01*
D11*
X184777142Y-118564819D02*
X184443809Y-118088628D01*
X184205714Y-118564819D02*
X184205714Y-117564819D01*
X184205714Y-117564819D02*
X184586666Y-117564819D01*
X184586666Y-117564819D02*
X184681904Y-117612438D01*
X184681904Y-117612438D02*
X184729523Y-117660057D01*
X184729523Y-117660057D02*
X184777142Y-117755295D01*
X184777142Y-117755295D02*
X184777142Y-117898152D01*
X184777142Y-117898152D02*
X184729523Y-117993390D01*
X184729523Y-117993390D02*
X184681904Y-118041009D01*
X184681904Y-118041009D02*
X184586666Y-118088628D01*
X184586666Y-118088628D02*
X184205714Y-118088628D01*
X185729523Y-118564819D02*
X185158095Y-118564819D01*
X185443809Y-118564819D02*
X185443809Y-117564819D01*
X185443809Y-117564819D02*
X185348571Y-117707676D01*
X185348571Y-117707676D02*
X185253333Y-117802914D01*
X185253333Y-117802914D02*
X185158095Y-117850533D01*
X186062857Y-117564819D02*
X186681904Y-117564819D01*
X186681904Y-117564819D02*
X186348571Y-117945771D01*
X186348571Y-117945771D02*
X186491428Y-117945771D01*
X186491428Y-117945771D02*
X186586666Y-117993390D01*
X186586666Y-117993390D02*
X186634285Y-118041009D01*
X186634285Y-118041009D02*
X186681904Y-118136247D01*
X186681904Y-118136247D02*
X186681904Y-118374342D01*
X186681904Y-118374342D02*
X186634285Y-118469580D01*
X186634285Y-118469580D02*
X186586666Y-118517200D01*
X186586666Y-118517200D02*
X186491428Y-118564819D01*
X186491428Y-118564819D02*
X186205714Y-118564819D01*
X186205714Y-118564819D02*
X186110476Y-118517200D01*
X186110476Y-118517200D02*
X186062857Y-118469580D01*
X144394819Y-81613333D02*
X145109104Y-81613333D01*
X145109104Y-81613333D02*
X145251961Y-81660952D01*
X145251961Y-81660952D02*
X145347200Y-81756190D01*
X145347200Y-81756190D02*
X145394819Y-81899047D01*
X145394819Y-81899047D02*
X145394819Y-81994285D01*
X145394819Y-80613333D02*
X145394819Y-81184761D01*
X145394819Y-80899047D02*
X144394819Y-80899047D01*
X144394819Y-80899047D02*
X144537676Y-80994285D01*
X144537676Y-80994285D02*
X144632914Y-81089523D01*
X144632914Y-81089523D02*
X144680533Y-81184761D01*
X203484819Y-96686666D02*
X203008628Y-97019999D01*
X203484819Y-97258094D02*
X202484819Y-97258094D01*
X202484819Y-97258094D02*
X202484819Y-96877142D01*
X202484819Y-96877142D02*
X202532438Y-96781904D01*
X202532438Y-96781904D02*
X202580057Y-96734285D01*
X202580057Y-96734285D02*
X202675295Y-96686666D01*
X202675295Y-96686666D02*
X202818152Y-96686666D01*
X202818152Y-96686666D02*
X202913390Y-96734285D01*
X202913390Y-96734285D02*
X202961009Y-96781904D01*
X202961009Y-96781904D02*
X203008628Y-96877142D01*
X203008628Y-96877142D02*
X203008628Y-97258094D01*
X202484819Y-96353332D02*
X202484819Y-95686666D01*
X202484819Y-95686666D02*
X203484819Y-96115237D01*
X109053333Y-118564819D02*
X108720000Y-118088628D01*
X108481905Y-118564819D02*
X108481905Y-117564819D01*
X108481905Y-117564819D02*
X108862857Y-117564819D01*
X108862857Y-117564819D02*
X108958095Y-117612438D01*
X108958095Y-117612438D02*
X109005714Y-117660057D01*
X109005714Y-117660057D02*
X109053333Y-117755295D01*
X109053333Y-117755295D02*
X109053333Y-117898152D01*
X109053333Y-117898152D02*
X109005714Y-117993390D01*
X109005714Y-117993390D02*
X108958095Y-118041009D01*
X108958095Y-118041009D02*
X108862857Y-118088628D01*
X108862857Y-118088628D02*
X108481905Y-118088628D01*
X109624762Y-117993390D02*
X109529524Y-117945771D01*
X109529524Y-117945771D02*
X109481905Y-117898152D01*
X109481905Y-117898152D02*
X109434286Y-117802914D01*
X109434286Y-117802914D02*
X109434286Y-117755295D01*
X109434286Y-117755295D02*
X109481905Y-117660057D01*
X109481905Y-117660057D02*
X109529524Y-117612438D01*
X109529524Y-117612438D02*
X109624762Y-117564819D01*
X109624762Y-117564819D02*
X109815238Y-117564819D01*
X109815238Y-117564819D02*
X109910476Y-117612438D01*
X109910476Y-117612438D02*
X109958095Y-117660057D01*
X109958095Y-117660057D02*
X110005714Y-117755295D01*
X110005714Y-117755295D02*
X110005714Y-117802914D01*
X110005714Y-117802914D02*
X109958095Y-117898152D01*
X109958095Y-117898152D02*
X109910476Y-117945771D01*
X109910476Y-117945771D02*
X109815238Y-117993390D01*
X109815238Y-117993390D02*
X109624762Y-117993390D01*
X109624762Y-117993390D02*
X109529524Y-118041009D01*
X109529524Y-118041009D02*
X109481905Y-118088628D01*
X109481905Y-118088628D02*
X109434286Y-118183866D01*
X109434286Y-118183866D02*
X109434286Y-118374342D01*
X109434286Y-118374342D02*
X109481905Y-118469580D01*
X109481905Y-118469580D02*
X109529524Y-118517200D01*
X109529524Y-118517200D02*
X109624762Y-118564819D01*
X109624762Y-118564819D02*
X109815238Y-118564819D01*
X109815238Y-118564819D02*
X109910476Y-118517200D01*
X109910476Y-118517200D02*
X109958095Y-118469580D01*
X109958095Y-118469580D02*
X110005714Y-118374342D01*
X110005714Y-118374342D02*
X110005714Y-118183866D01*
X110005714Y-118183866D02*
X109958095Y-118088628D01*
X109958095Y-118088628D02*
X109910476Y-118041009D01*
X109910476Y-118041009D02*
X109815238Y-117993390D01*
X139057142Y-118564819D02*
X138723809Y-118088628D01*
X138485714Y-118564819D02*
X138485714Y-117564819D01*
X138485714Y-117564819D02*
X138866666Y-117564819D01*
X138866666Y-117564819D02*
X138961904Y-117612438D01*
X138961904Y-117612438D02*
X139009523Y-117660057D01*
X139009523Y-117660057D02*
X139057142Y-117755295D01*
X139057142Y-117755295D02*
X139057142Y-117898152D01*
X139057142Y-117898152D02*
X139009523Y-117993390D01*
X139009523Y-117993390D02*
X138961904Y-118041009D01*
X138961904Y-118041009D02*
X138866666Y-118088628D01*
X138866666Y-118088628D02*
X138485714Y-118088628D01*
X140009523Y-118564819D02*
X139438095Y-118564819D01*
X139723809Y-118564819D02*
X139723809Y-117564819D01*
X139723809Y-117564819D02*
X139628571Y-117707676D01*
X139628571Y-117707676D02*
X139533333Y-117802914D01*
X139533333Y-117802914D02*
X139438095Y-117850533D01*
X140628571Y-117564819D02*
X140723809Y-117564819D01*
X140723809Y-117564819D02*
X140819047Y-117612438D01*
X140819047Y-117612438D02*
X140866666Y-117660057D01*
X140866666Y-117660057D02*
X140914285Y-117755295D01*
X140914285Y-117755295D02*
X140961904Y-117945771D01*
X140961904Y-117945771D02*
X140961904Y-118183866D01*
X140961904Y-118183866D02*
X140914285Y-118374342D01*
X140914285Y-118374342D02*
X140866666Y-118469580D01*
X140866666Y-118469580D02*
X140819047Y-118517200D01*
X140819047Y-118517200D02*
X140723809Y-118564819D01*
X140723809Y-118564819D02*
X140628571Y-118564819D01*
X140628571Y-118564819D02*
X140533333Y-118517200D01*
X140533333Y-118517200D02*
X140485714Y-118469580D01*
X140485714Y-118469580D02*
X140438095Y-118374342D01*
X140438095Y-118374342D02*
X140390476Y-118183866D01*
X140390476Y-118183866D02*
X140390476Y-117945771D01*
X140390476Y-117945771D02*
X140438095Y-117755295D01*
X140438095Y-117755295D02*
X140485714Y-117660057D01*
X140485714Y-117660057D02*
X140533333Y-117612438D01*
X140533333Y-117612438D02*
X140628571Y-117564819D01*
X173004819Y-96686666D02*
X172528628Y-97019999D01*
X173004819Y-97258094D02*
X172004819Y-97258094D01*
X172004819Y-97258094D02*
X172004819Y-96877142D01*
X172004819Y-96877142D02*
X172052438Y-96781904D01*
X172052438Y-96781904D02*
X172100057Y-96734285D01*
X172100057Y-96734285D02*
X172195295Y-96686666D01*
X172195295Y-96686666D02*
X172338152Y-96686666D01*
X172338152Y-96686666D02*
X172433390Y-96734285D01*
X172433390Y-96734285D02*
X172481009Y-96781904D01*
X172481009Y-96781904D02*
X172528628Y-96877142D01*
X172528628Y-96877142D02*
X172528628Y-97258094D01*
X172004819Y-95781904D02*
X172004819Y-96258094D01*
X172004819Y-96258094D02*
X172481009Y-96305713D01*
X172481009Y-96305713D02*
X172433390Y-96258094D01*
X172433390Y-96258094D02*
X172385771Y-96162856D01*
X172385771Y-96162856D02*
X172385771Y-95924761D01*
X172385771Y-95924761D02*
X172433390Y-95829523D01*
X172433390Y-95829523D02*
X172481009Y-95781904D01*
X172481009Y-95781904D02*
X172576247Y-95734285D01*
X172576247Y-95734285D02*
X172814342Y-95734285D01*
X172814342Y-95734285D02*
X172909580Y-95781904D01*
X172909580Y-95781904D02*
X172957200Y-95829523D01*
X172957200Y-95829523D02*
X173004819Y-95924761D01*
X173004819Y-95924761D02*
X173004819Y-96162856D01*
X173004819Y-96162856D02*
X172957200Y-96258094D01*
X172957200Y-96258094D02*
X172909580Y-96305713D01*
X119664819Y-96686666D02*
X119188628Y-97019999D01*
X119664819Y-97258094D02*
X118664819Y-97258094D01*
X118664819Y-97258094D02*
X118664819Y-96877142D01*
X118664819Y-96877142D02*
X118712438Y-96781904D01*
X118712438Y-96781904D02*
X118760057Y-96734285D01*
X118760057Y-96734285D02*
X118855295Y-96686666D01*
X118855295Y-96686666D02*
X118998152Y-96686666D01*
X118998152Y-96686666D02*
X119093390Y-96734285D01*
X119093390Y-96734285D02*
X119141009Y-96781904D01*
X119141009Y-96781904D02*
X119188628Y-96877142D01*
X119188628Y-96877142D02*
X119188628Y-97258094D01*
X119664819Y-95734285D02*
X119664819Y-96305713D01*
X119664819Y-96019999D02*
X118664819Y-96019999D01*
X118664819Y-96019999D02*
X118807676Y-96115237D01*
X118807676Y-96115237D02*
X118902914Y-96210475D01*
X118902914Y-96210475D02*
X118950533Y-96305713D01*
X154297142Y-118564819D02*
X153963809Y-118088628D01*
X153725714Y-118564819D02*
X153725714Y-117564819D01*
X153725714Y-117564819D02*
X154106666Y-117564819D01*
X154106666Y-117564819D02*
X154201904Y-117612438D01*
X154201904Y-117612438D02*
X154249523Y-117660057D01*
X154249523Y-117660057D02*
X154297142Y-117755295D01*
X154297142Y-117755295D02*
X154297142Y-117898152D01*
X154297142Y-117898152D02*
X154249523Y-117993390D01*
X154249523Y-117993390D02*
X154201904Y-118041009D01*
X154201904Y-118041009D02*
X154106666Y-118088628D01*
X154106666Y-118088628D02*
X153725714Y-118088628D01*
X155249523Y-118564819D02*
X154678095Y-118564819D01*
X154963809Y-118564819D02*
X154963809Y-117564819D01*
X154963809Y-117564819D02*
X154868571Y-117707676D01*
X154868571Y-117707676D02*
X154773333Y-117802914D01*
X154773333Y-117802914D02*
X154678095Y-117850533D01*
X156201904Y-118564819D02*
X155630476Y-118564819D01*
X155916190Y-118564819D02*
X155916190Y-117564819D01*
X155916190Y-117564819D02*
X155820952Y-117707676D01*
X155820952Y-117707676D02*
X155725714Y-117802914D01*
X155725714Y-117802914D02*
X155630476Y-117850533D01*
X200017142Y-118564819D02*
X199683809Y-118088628D01*
X199445714Y-118564819D02*
X199445714Y-117564819D01*
X199445714Y-117564819D02*
X199826666Y-117564819D01*
X199826666Y-117564819D02*
X199921904Y-117612438D01*
X199921904Y-117612438D02*
X199969523Y-117660057D01*
X199969523Y-117660057D02*
X200017142Y-117755295D01*
X200017142Y-117755295D02*
X200017142Y-117898152D01*
X200017142Y-117898152D02*
X199969523Y-117993390D01*
X199969523Y-117993390D02*
X199921904Y-118041009D01*
X199921904Y-118041009D02*
X199826666Y-118088628D01*
X199826666Y-118088628D02*
X199445714Y-118088628D01*
X200969523Y-118564819D02*
X200398095Y-118564819D01*
X200683809Y-118564819D02*
X200683809Y-117564819D01*
X200683809Y-117564819D02*
X200588571Y-117707676D01*
X200588571Y-117707676D02*
X200493333Y-117802914D01*
X200493333Y-117802914D02*
X200398095Y-117850533D01*
X201826666Y-117898152D02*
X201826666Y-118564819D01*
X201588571Y-117517200D02*
X201350476Y-118231485D01*
X201350476Y-118231485D02*
X201969523Y-118231485D01*
X100838095Y-117294819D02*
X100838095Y-116294819D01*
X100838095Y-116771009D02*
X101409523Y-116771009D01*
X101409523Y-117294819D02*
X101409523Y-116294819D01*
X102409523Y-117294819D02*
X101838095Y-117294819D01*
X102123809Y-117294819D02*
X102123809Y-116294819D01*
X102123809Y-116294819D02*
X102028571Y-116437676D01*
X102028571Y-116437676D02*
X101933333Y-116532914D01*
X101933333Y-116532914D02*
X101838095Y-116580533D01*
X142524819Y-96686666D02*
X142048628Y-97019999D01*
X142524819Y-97258094D02*
X141524819Y-97258094D01*
X141524819Y-97258094D02*
X141524819Y-96877142D01*
X141524819Y-96877142D02*
X141572438Y-96781904D01*
X141572438Y-96781904D02*
X141620057Y-96734285D01*
X141620057Y-96734285D02*
X141715295Y-96686666D01*
X141715295Y-96686666D02*
X141858152Y-96686666D01*
X141858152Y-96686666D02*
X141953390Y-96734285D01*
X141953390Y-96734285D02*
X142001009Y-96781904D01*
X142001009Y-96781904D02*
X142048628Y-96877142D01*
X142048628Y-96877142D02*
X142048628Y-97258094D01*
X141524819Y-96353332D02*
X141524819Y-95734285D01*
X141524819Y-95734285D02*
X141905771Y-96067618D01*
X141905771Y-96067618D02*
X141905771Y-95924761D01*
X141905771Y-95924761D02*
X141953390Y-95829523D01*
X141953390Y-95829523D02*
X142001009Y-95781904D01*
X142001009Y-95781904D02*
X142096247Y-95734285D01*
X142096247Y-95734285D02*
X142334342Y-95734285D01*
X142334342Y-95734285D02*
X142429580Y-95781904D01*
X142429580Y-95781904D02*
X142477200Y-95829523D01*
X142477200Y-95829523D02*
X142524819Y-95924761D01*
X142524819Y-95924761D02*
X142524819Y-96210475D01*
X142524819Y-96210475D02*
X142477200Y-96305713D01*
X142477200Y-96305713D02*
X142429580Y-96353332D01*
X146581905Y-118564819D02*
X146581905Y-117564819D01*
X146581905Y-117564819D02*
X146820000Y-117564819D01*
X146820000Y-117564819D02*
X146962857Y-117612438D01*
X146962857Y-117612438D02*
X147058095Y-117707676D01*
X147058095Y-117707676D02*
X147105714Y-117802914D01*
X147105714Y-117802914D02*
X147153333Y-117993390D01*
X147153333Y-117993390D02*
X147153333Y-118136247D01*
X147153333Y-118136247D02*
X147105714Y-118326723D01*
X147105714Y-118326723D02*
X147058095Y-118421961D01*
X147058095Y-118421961D02*
X146962857Y-118517200D01*
X146962857Y-118517200D02*
X146820000Y-118564819D01*
X146820000Y-118564819D02*
X146581905Y-118564819D01*
X147486667Y-117564819D02*
X148105714Y-117564819D01*
X148105714Y-117564819D02*
X147772381Y-117945771D01*
X147772381Y-117945771D02*
X147915238Y-117945771D01*
X147915238Y-117945771D02*
X148010476Y-117993390D01*
X148010476Y-117993390D02*
X148058095Y-118041009D01*
X148058095Y-118041009D02*
X148105714Y-118136247D01*
X148105714Y-118136247D02*
X148105714Y-118374342D01*
X148105714Y-118374342D02*
X148058095Y-118469580D01*
X148058095Y-118469580D02*
X148010476Y-118517200D01*
X148010476Y-118517200D02*
X147915238Y-118564819D01*
X147915238Y-118564819D02*
X147629524Y-118564819D01*
X147629524Y-118564819D02*
X147534286Y-118517200D01*
X147534286Y-118517200D02*
X147486667Y-118469580D01*
X177061905Y-118564819D02*
X177061905Y-117564819D01*
X177061905Y-117564819D02*
X177300000Y-117564819D01*
X177300000Y-117564819D02*
X177442857Y-117612438D01*
X177442857Y-117612438D02*
X177538095Y-117707676D01*
X177538095Y-117707676D02*
X177585714Y-117802914D01*
X177585714Y-117802914D02*
X177633333Y-117993390D01*
X177633333Y-117993390D02*
X177633333Y-118136247D01*
X177633333Y-118136247D02*
X177585714Y-118326723D01*
X177585714Y-118326723D02*
X177538095Y-118421961D01*
X177538095Y-118421961D02*
X177442857Y-118517200D01*
X177442857Y-118517200D02*
X177300000Y-118564819D01*
X177300000Y-118564819D02*
X177061905Y-118564819D01*
X178538095Y-117564819D02*
X178061905Y-117564819D01*
X178061905Y-117564819D02*
X178014286Y-118041009D01*
X178014286Y-118041009D02*
X178061905Y-117993390D01*
X178061905Y-117993390D02*
X178157143Y-117945771D01*
X178157143Y-117945771D02*
X178395238Y-117945771D01*
X178395238Y-117945771D02*
X178490476Y-117993390D01*
X178490476Y-117993390D02*
X178538095Y-118041009D01*
X178538095Y-118041009D02*
X178585714Y-118136247D01*
X178585714Y-118136247D02*
X178585714Y-118374342D01*
X178585714Y-118374342D02*
X178538095Y-118469580D01*
X178538095Y-118469580D02*
X178490476Y-118517200D01*
X178490476Y-118517200D02*
X178395238Y-118564819D01*
X178395238Y-118564819D02*
X178157143Y-118564819D01*
X178157143Y-118564819D02*
X178061905Y-118517200D01*
X178061905Y-118517200D02*
X178014286Y-118469580D01*
X100838095Y-81734819D02*
X100838095Y-80734819D01*
X100838095Y-81211009D02*
X101409523Y-81211009D01*
X101409523Y-81734819D02*
X101409523Y-80734819D01*
X101838095Y-80830057D02*
X101885714Y-80782438D01*
X101885714Y-80782438D02*
X101980952Y-80734819D01*
X101980952Y-80734819D02*
X102219047Y-80734819D01*
X102219047Y-80734819D02*
X102314285Y-80782438D01*
X102314285Y-80782438D02*
X102361904Y-80830057D01*
X102361904Y-80830057D02*
X102409523Y-80925295D01*
X102409523Y-80925295D02*
X102409523Y-81020533D01*
X102409523Y-81020533D02*
X102361904Y-81163390D01*
X102361904Y-81163390D02*
X101790476Y-81734819D01*
X101790476Y-81734819D02*
X102409523Y-81734819D01*
X152684819Y-96686666D02*
X152208628Y-97019999D01*
X152684819Y-97258094D02*
X151684819Y-97258094D01*
X151684819Y-97258094D02*
X151684819Y-96877142D01*
X151684819Y-96877142D02*
X151732438Y-96781904D01*
X151732438Y-96781904D02*
X151780057Y-96734285D01*
X151780057Y-96734285D02*
X151875295Y-96686666D01*
X151875295Y-96686666D02*
X152018152Y-96686666D01*
X152018152Y-96686666D02*
X152113390Y-96734285D01*
X152113390Y-96734285D02*
X152161009Y-96781904D01*
X152161009Y-96781904D02*
X152208628Y-96877142D01*
X152208628Y-96877142D02*
X152208628Y-97258094D01*
X152018152Y-95829523D02*
X152684819Y-95829523D01*
X151637200Y-96067618D02*
X152351485Y-96305713D01*
X152351485Y-96305713D02*
X152351485Y-95686666D01*
X116101905Y-118564819D02*
X116101905Y-117564819D01*
X116101905Y-117564819D02*
X116340000Y-117564819D01*
X116340000Y-117564819D02*
X116482857Y-117612438D01*
X116482857Y-117612438D02*
X116578095Y-117707676D01*
X116578095Y-117707676D02*
X116625714Y-117802914D01*
X116625714Y-117802914D02*
X116673333Y-117993390D01*
X116673333Y-117993390D02*
X116673333Y-118136247D01*
X116673333Y-118136247D02*
X116625714Y-118326723D01*
X116625714Y-118326723D02*
X116578095Y-118421961D01*
X116578095Y-118421961D02*
X116482857Y-118517200D01*
X116482857Y-118517200D02*
X116340000Y-118564819D01*
X116340000Y-118564819D02*
X116101905Y-118564819D01*
X117625714Y-118564819D02*
X117054286Y-118564819D01*
X117340000Y-118564819D02*
X117340000Y-117564819D01*
X117340000Y-117564819D02*
X117244762Y-117707676D01*
X117244762Y-117707676D02*
X117149524Y-117802914D01*
X117149524Y-117802914D02*
X117054286Y-117850533D01*
X192301905Y-118564819D02*
X192301905Y-117564819D01*
X192301905Y-117564819D02*
X192540000Y-117564819D01*
X192540000Y-117564819D02*
X192682857Y-117612438D01*
X192682857Y-117612438D02*
X192778095Y-117707676D01*
X192778095Y-117707676D02*
X192825714Y-117802914D01*
X192825714Y-117802914D02*
X192873333Y-117993390D01*
X192873333Y-117993390D02*
X192873333Y-118136247D01*
X192873333Y-118136247D02*
X192825714Y-118326723D01*
X192825714Y-118326723D02*
X192778095Y-118421961D01*
X192778095Y-118421961D02*
X192682857Y-118517200D01*
X192682857Y-118517200D02*
X192540000Y-118564819D01*
X192540000Y-118564819D02*
X192301905Y-118564819D01*
X193730476Y-117564819D02*
X193540000Y-117564819D01*
X193540000Y-117564819D02*
X193444762Y-117612438D01*
X193444762Y-117612438D02*
X193397143Y-117660057D01*
X193397143Y-117660057D02*
X193301905Y-117802914D01*
X193301905Y-117802914D02*
X193254286Y-117993390D01*
X193254286Y-117993390D02*
X193254286Y-118374342D01*
X193254286Y-118374342D02*
X193301905Y-118469580D01*
X193301905Y-118469580D02*
X193349524Y-118517200D01*
X193349524Y-118517200D02*
X193444762Y-118564819D01*
X193444762Y-118564819D02*
X193635238Y-118564819D01*
X193635238Y-118564819D02*
X193730476Y-118517200D01*
X193730476Y-118517200D02*
X193778095Y-118469580D01*
X193778095Y-118469580D02*
X193825714Y-118374342D01*
X193825714Y-118374342D02*
X193825714Y-118136247D01*
X193825714Y-118136247D02*
X193778095Y-118041009D01*
X193778095Y-118041009D02*
X193730476Y-117993390D01*
X193730476Y-117993390D02*
X193635238Y-117945771D01*
X193635238Y-117945771D02*
X193444762Y-117945771D01*
X193444762Y-117945771D02*
X193349524Y-117993390D01*
X193349524Y-117993390D02*
X193301905Y-118041009D01*
X193301905Y-118041009D02*
X193254286Y-118136247D01*
X124293333Y-118564819D02*
X123960000Y-118088628D01*
X123721905Y-118564819D02*
X123721905Y-117564819D01*
X123721905Y-117564819D02*
X124102857Y-117564819D01*
X124102857Y-117564819D02*
X124198095Y-117612438D01*
X124198095Y-117612438D02*
X124245714Y-117660057D01*
X124245714Y-117660057D02*
X124293333Y-117755295D01*
X124293333Y-117755295D02*
X124293333Y-117898152D01*
X124293333Y-117898152D02*
X124245714Y-117993390D01*
X124245714Y-117993390D02*
X124198095Y-118041009D01*
X124198095Y-118041009D02*
X124102857Y-118088628D01*
X124102857Y-118088628D02*
X123721905Y-118088628D01*
X124769524Y-118564819D02*
X124960000Y-118564819D01*
X124960000Y-118564819D02*
X125055238Y-118517200D01*
X125055238Y-118517200D02*
X125102857Y-118469580D01*
X125102857Y-118469580D02*
X125198095Y-118326723D01*
X125198095Y-118326723D02*
X125245714Y-118136247D01*
X125245714Y-118136247D02*
X125245714Y-117755295D01*
X125245714Y-117755295D02*
X125198095Y-117660057D01*
X125198095Y-117660057D02*
X125150476Y-117612438D01*
X125150476Y-117612438D02*
X125055238Y-117564819D01*
X125055238Y-117564819D02*
X124864762Y-117564819D01*
X124864762Y-117564819D02*
X124769524Y-117612438D01*
X124769524Y-117612438D02*
X124721905Y-117660057D01*
X124721905Y-117660057D02*
X124674286Y-117755295D01*
X124674286Y-117755295D02*
X124674286Y-117993390D01*
X124674286Y-117993390D02*
X124721905Y-118088628D01*
X124721905Y-118088628D02*
X124769524Y-118136247D01*
X124769524Y-118136247D02*
X124864762Y-118183866D01*
X124864762Y-118183866D02*
X125055238Y-118183866D01*
X125055238Y-118183866D02*
X125150476Y-118136247D01*
X125150476Y-118136247D02*
X125198095Y-118088628D01*
X125198095Y-118088628D02*
X125245714Y-117993390D01*
X131341905Y-118564819D02*
X131341905Y-117564819D01*
X131341905Y-117564819D02*
X131580000Y-117564819D01*
X131580000Y-117564819D02*
X131722857Y-117612438D01*
X131722857Y-117612438D02*
X131818095Y-117707676D01*
X131818095Y-117707676D02*
X131865714Y-117802914D01*
X131865714Y-117802914D02*
X131913333Y-117993390D01*
X131913333Y-117993390D02*
X131913333Y-118136247D01*
X131913333Y-118136247D02*
X131865714Y-118326723D01*
X131865714Y-118326723D02*
X131818095Y-118421961D01*
X131818095Y-118421961D02*
X131722857Y-118517200D01*
X131722857Y-118517200D02*
X131580000Y-118564819D01*
X131580000Y-118564819D02*
X131341905Y-118564819D01*
X132294286Y-117660057D02*
X132341905Y-117612438D01*
X132341905Y-117612438D02*
X132437143Y-117564819D01*
X132437143Y-117564819D02*
X132675238Y-117564819D01*
X132675238Y-117564819D02*
X132770476Y-117612438D01*
X132770476Y-117612438D02*
X132818095Y-117660057D01*
X132818095Y-117660057D02*
X132865714Y-117755295D01*
X132865714Y-117755295D02*
X132865714Y-117850533D01*
X132865714Y-117850533D02*
X132818095Y-117993390D01*
X132818095Y-117993390D02*
X132246667Y-118564819D01*
X132246667Y-118564819D02*
X132865714Y-118564819D01*
X169528770Y-118564819D02*
X169195437Y-118088628D01*
X168957342Y-118564819D02*
X168957342Y-117564819D01*
X168957342Y-117564819D02*
X169338294Y-117564819D01*
X169338294Y-117564819D02*
X169433532Y-117612438D01*
X169433532Y-117612438D02*
X169481151Y-117660057D01*
X169481151Y-117660057D02*
X169528770Y-117755295D01*
X169528770Y-117755295D02*
X169528770Y-117898152D01*
X169528770Y-117898152D02*
X169481151Y-117993390D01*
X169481151Y-117993390D02*
X169433532Y-118041009D01*
X169433532Y-118041009D02*
X169338294Y-118088628D01*
X169338294Y-118088628D02*
X168957342Y-118088628D01*
X170481151Y-118564819D02*
X169909723Y-118564819D01*
X170195437Y-118564819D02*
X170195437Y-117564819D01*
X170195437Y-117564819D02*
X170100199Y-117707676D01*
X170100199Y-117707676D02*
X170004961Y-117802914D01*
X170004961Y-117802914D02*
X169909723Y-117850533D01*
X170862104Y-117660057D02*
X170909723Y-117612438D01*
X170909723Y-117612438D02*
X171004961Y-117564819D01*
X171004961Y-117564819D02*
X171243056Y-117564819D01*
X171243056Y-117564819D02*
X171338294Y-117612438D01*
X171338294Y-117612438D02*
X171385913Y-117660057D01*
X171385913Y-117660057D02*
X171433532Y-117755295D01*
X171433532Y-117755295D02*
X171433532Y-117850533D01*
X171433532Y-117850533D02*
X171385913Y-117993390D01*
X171385913Y-117993390D02*
X170814485Y-118564819D01*
X170814485Y-118564819D02*
X171433532Y-118564819D01*
X188244819Y-96686666D02*
X187768628Y-97019999D01*
X188244819Y-97258094D02*
X187244819Y-97258094D01*
X187244819Y-97258094D02*
X187244819Y-96877142D01*
X187244819Y-96877142D02*
X187292438Y-96781904D01*
X187292438Y-96781904D02*
X187340057Y-96734285D01*
X187340057Y-96734285D02*
X187435295Y-96686666D01*
X187435295Y-96686666D02*
X187578152Y-96686666D01*
X187578152Y-96686666D02*
X187673390Y-96734285D01*
X187673390Y-96734285D02*
X187721009Y-96781904D01*
X187721009Y-96781904D02*
X187768628Y-96877142D01*
X187768628Y-96877142D02*
X187768628Y-97258094D01*
X187244819Y-95829523D02*
X187244819Y-96019999D01*
X187244819Y-96019999D02*
X187292438Y-96115237D01*
X187292438Y-96115237D02*
X187340057Y-96162856D01*
X187340057Y-96162856D02*
X187482914Y-96258094D01*
X187482914Y-96258094D02*
X187673390Y-96305713D01*
X187673390Y-96305713D02*
X188054342Y-96305713D01*
X188054342Y-96305713D02*
X188149580Y-96258094D01*
X188149580Y-96258094D02*
X188197200Y-96210475D01*
X188197200Y-96210475D02*
X188244819Y-96115237D01*
X188244819Y-96115237D02*
X188244819Y-95924761D01*
X188244819Y-95924761D02*
X188197200Y-95829523D01*
X188197200Y-95829523D02*
X188149580Y-95781904D01*
X188149580Y-95781904D02*
X188054342Y-95734285D01*
X188054342Y-95734285D02*
X187816247Y-95734285D01*
X187816247Y-95734285D02*
X187721009Y-95781904D01*
X187721009Y-95781904D02*
X187673390Y-95829523D01*
X187673390Y-95829523D02*
X187625771Y-95924761D01*
X187625771Y-95924761D02*
X187625771Y-96115237D01*
X187625771Y-96115237D02*
X187673390Y-96210475D01*
X187673390Y-96210475D02*
X187721009Y-96258094D01*
X187721009Y-96258094D02*
X187816247Y-96305713D01*
X207518095Y-117294819D02*
X207518095Y-116294819D01*
X207518095Y-116771009D02*
X208089523Y-116771009D01*
X208089523Y-117294819D02*
X208089523Y-116294819D01*
X208994285Y-116628152D02*
X208994285Y-117294819D01*
X208756190Y-116247200D02*
X208518095Y-116961485D01*
X208518095Y-116961485D02*
X209137142Y-116961485D01*
X127284819Y-96686666D02*
X126808628Y-97019999D01*
X127284819Y-97258094D02*
X126284819Y-97258094D01*
X126284819Y-97258094D02*
X126284819Y-96877142D01*
X126284819Y-96877142D02*
X126332438Y-96781904D01*
X126332438Y-96781904D02*
X126380057Y-96734285D01*
X126380057Y-96734285D02*
X126475295Y-96686666D01*
X126475295Y-96686666D02*
X126618152Y-96686666D01*
X126618152Y-96686666D02*
X126713390Y-96734285D01*
X126713390Y-96734285D02*
X126761009Y-96781904D01*
X126761009Y-96781904D02*
X126808628Y-96877142D01*
X126808628Y-96877142D02*
X126808628Y-97258094D01*
X126380057Y-96305713D02*
X126332438Y-96258094D01*
X126332438Y-96258094D02*
X126284819Y-96162856D01*
X126284819Y-96162856D02*
X126284819Y-95924761D01*
X126284819Y-95924761D02*
X126332438Y-95829523D01*
X126332438Y-95829523D02*
X126380057Y-95781904D01*
X126380057Y-95781904D02*
X126475295Y-95734285D01*
X126475295Y-95734285D02*
X126570533Y-95734285D01*
X126570533Y-95734285D02*
X126713390Y-95781904D01*
X126713390Y-95781904D02*
X127284819Y-96353332D01*
X127284819Y-96353332D02*
X127284819Y-95734285D01*
X112044819Y-97162857D02*
X111568628Y-97496190D01*
X112044819Y-97734285D02*
X111044819Y-97734285D01*
X111044819Y-97734285D02*
X111044819Y-97353333D01*
X111044819Y-97353333D02*
X111092438Y-97258095D01*
X111092438Y-97258095D02*
X111140057Y-97210476D01*
X111140057Y-97210476D02*
X111235295Y-97162857D01*
X111235295Y-97162857D02*
X111378152Y-97162857D01*
X111378152Y-97162857D02*
X111473390Y-97210476D01*
X111473390Y-97210476D02*
X111521009Y-97258095D01*
X111521009Y-97258095D02*
X111568628Y-97353333D01*
X111568628Y-97353333D02*
X111568628Y-97734285D01*
X112044819Y-96210476D02*
X112044819Y-96781904D01*
X112044819Y-96496190D02*
X111044819Y-96496190D01*
X111044819Y-96496190D02*
X111187676Y-96591428D01*
X111187676Y-96591428D02*
X111282914Y-96686666D01*
X111282914Y-96686666D02*
X111330533Y-96781904D01*
X111044819Y-95305714D02*
X111044819Y-95781904D01*
X111044819Y-95781904D02*
X111521009Y-95829523D01*
X111521009Y-95829523D02*
X111473390Y-95781904D01*
X111473390Y-95781904D02*
X111425771Y-95686666D01*
X111425771Y-95686666D02*
X111425771Y-95448571D01*
X111425771Y-95448571D02*
X111473390Y-95353333D01*
X111473390Y-95353333D02*
X111521009Y-95305714D01*
X111521009Y-95305714D02*
X111616247Y-95258095D01*
X111616247Y-95258095D02*
X111854342Y-95258095D01*
X111854342Y-95258095D02*
X111949580Y-95305714D01*
X111949580Y-95305714D02*
X111997200Y-95353333D01*
X111997200Y-95353333D02*
X112044819Y-95448571D01*
X112044819Y-95448571D02*
X112044819Y-95686666D01*
X112044819Y-95686666D02*
X111997200Y-95781904D01*
X111997200Y-95781904D02*
X111949580Y-95829523D01*
X161821905Y-118564819D02*
X161821905Y-117564819D01*
X161821905Y-117564819D02*
X162060000Y-117564819D01*
X162060000Y-117564819D02*
X162202857Y-117612438D01*
X162202857Y-117612438D02*
X162298095Y-117707676D01*
X162298095Y-117707676D02*
X162345714Y-117802914D01*
X162345714Y-117802914D02*
X162393333Y-117993390D01*
X162393333Y-117993390D02*
X162393333Y-118136247D01*
X162393333Y-118136247D02*
X162345714Y-118326723D01*
X162345714Y-118326723D02*
X162298095Y-118421961D01*
X162298095Y-118421961D02*
X162202857Y-118517200D01*
X162202857Y-118517200D02*
X162060000Y-118564819D01*
X162060000Y-118564819D02*
X161821905Y-118564819D01*
X163250476Y-117898152D02*
X163250476Y-118564819D01*
X163012381Y-117517200D02*
X162774286Y-118231485D01*
X162774286Y-118231485D02*
X163393333Y-118231485D01*
X207518095Y-81734819D02*
X207518095Y-80734819D01*
X207518095Y-81211009D02*
X208089523Y-81211009D01*
X208089523Y-81734819D02*
X208089523Y-80734819D01*
X208470476Y-80734819D02*
X209089523Y-80734819D01*
X209089523Y-80734819D02*
X208756190Y-81115771D01*
X208756190Y-81115771D02*
X208899047Y-81115771D01*
X208899047Y-81115771D02*
X208994285Y-81163390D01*
X208994285Y-81163390D02*
X209041904Y-81211009D01*
X209041904Y-81211009D02*
X209089523Y-81306247D01*
X209089523Y-81306247D02*
X209089523Y-81544342D01*
X209089523Y-81544342D02*
X209041904Y-81639580D01*
X209041904Y-81639580D02*
X208994285Y-81687200D01*
X208994285Y-81687200D02*
X208899047Y-81734819D01*
X208899047Y-81734819D02*
X208613333Y-81734819D01*
X208613333Y-81734819D02*
X208518095Y-81687200D01*
X208518095Y-81687200D02*
X208470476Y-81639580D01*
X162226666Y-97244819D02*
X162226666Y-97959104D01*
X162226666Y-97959104D02*
X162179047Y-98101961D01*
X162179047Y-98101961D02*
X162083809Y-98197200D01*
X162083809Y-98197200D02*
X161940952Y-98244819D01*
X161940952Y-98244819D02*
X161845714Y-98244819D01*
X162655238Y-97340057D02*
X162702857Y-97292438D01*
X162702857Y-97292438D02*
X162798095Y-97244819D01*
X162798095Y-97244819D02*
X163036190Y-97244819D01*
X163036190Y-97244819D02*
X163131428Y-97292438D01*
X163131428Y-97292438D02*
X163179047Y-97340057D01*
X163179047Y-97340057D02*
X163226666Y-97435295D01*
X163226666Y-97435295D02*
X163226666Y-97530533D01*
X163226666Y-97530533D02*
X163179047Y-97673390D01*
X163179047Y-97673390D02*
X162607619Y-98244819D01*
X162607619Y-98244819D02*
X163226666Y-98244819D01*
D12*
%TO.C,R13*%
X183320000Y-111860000D02*
X183320000Y-114660000D01*
X187520000Y-111860000D02*
X187520000Y-114660000D01*
X183320000Y-111860000D02*
G75*
G02*
X187529242Y-111873963I2100000J-1400000D01*
G01*
X187520000Y-114660000D02*
G75*
G02*
X183310758Y-114646037I-2100000J1400000D01*
G01*
%TO.C,J1*%
X145940000Y-82660000D02*
X145940000Y-81280000D01*
X147320000Y-82660000D02*
X145940000Y-82660000D01*
X148590000Y-79900000D02*
X163940000Y-79900000D01*
X148590000Y-82660000D02*
X148590000Y-79900000D01*
X148590000Y-82660000D02*
X163940000Y-82660000D01*
X163940000Y-82660000D02*
X163940000Y-79900000D01*
%TO.C,R7*%
X200660000Y-92480000D02*
X200660000Y-93250000D01*
X200660000Y-100560000D02*
X200660000Y-99790000D01*
X202030000Y-93250000D02*
X199290000Y-93250000D01*
X199290000Y-99790000D01*
X202030000Y-99790000D01*
X202030000Y-93250000D01*
%TO.C,R8*%
X107120000Y-111860000D02*
X107120000Y-114660000D01*
X111320000Y-111860000D02*
X111320000Y-114660000D01*
X107120000Y-111860000D02*
G75*
G02*
X111329242Y-111873963I2100000J-1400000D01*
G01*
X111320000Y-114660000D02*
G75*
G02*
X107110758Y-114646037I-2100000J1400000D01*
G01*
%TO.C,R10*%
X137600000Y-111860000D02*
X137600000Y-114660000D01*
X141800000Y-111860000D02*
X141800000Y-114660000D01*
X137600000Y-111860000D02*
G75*
G02*
X141809242Y-111873963I2100000J-1400000D01*
G01*
X141800000Y-114660000D02*
G75*
G02*
X137590758Y-114646037I-2100000J1400000D01*
G01*
%TO.C,R5*%
X170180000Y-92480000D02*
X170180000Y-93250000D01*
X170180000Y-100560000D02*
X170180000Y-99790000D01*
X171550000Y-93250000D02*
X168810000Y-93250000D01*
X168810000Y-99790000D01*
X171550000Y-99790000D01*
X171550000Y-93250000D01*
%TO.C,R1*%
X116840000Y-92480000D02*
X116840000Y-93250000D01*
X116840000Y-100560000D02*
X116840000Y-99790000D01*
X118210000Y-93250000D02*
X115470000Y-93250000D01*
X115470000Y-99790000D01*
X118210000Y-99790000D01*
X118210000Y-93250000D01*
%TO.C,R11*%
X152840000Y-111860000D02*
X152840000Y-114660000D01*
X157040000Y-111860000D02*
X157040000Y-114660000D01*
X152840000Y-111860000D02*
G75*
G02*
X157049242Y-111873963I2100000J-1400000D01*
G01*
X157040000Y-114660000D02*
G75*
G02*
X152830758Y-114646037I-2100000J1400000D01*
G01*
%TO.C,R14*%
X198560000Y-111860000D02*
X198560000Y-114660000D01*
X202760000Y-111860000D02*
X202760000Y-114660000D01*
X198560000Y-111860000D02*
G75*
G02*
X202769242Y-111873963I2100000J-1400000D01*
G01*
X202760000Y-114660000D02*
G75*
G02*
X198550758Y-114646037I-2100000J1400000D01*
G01*
%TO.C,R3*%
X139700000Y-92480000D02*
X139700000Y-93250000D01*
X139700000Y-100560000D02*
X139700000Y-99790000D01*
X141070000Y-93250000D02*
X138330000Y-93250000D01*
X138330000Y-99790000D01*
X141070000Y-99790000D01*
X141070000Y-93250000D01*
%TO.C,D3*%
X148865000Y-110470000D02*
X145775000Y-110470000D01*
X147320000Y-116020000D02*
G75*
G02*
X145775170Y-110470000I0J2990000D01*
G01*
X148864830Y-110470000D02*
G75*
G02*
X147320000Y-116020000I-1544830J-2560000D01*
G01*
X149820000Y-113030000D02*
G75*
G02*
X144820000Y-113030000I-2500000J0D01*
G01*
X144820000Y-113030000D02*
G75*
G02*
X149820000Y-113030000I2500000J0D01*
G01*
%TO.C,D5*%
X179345000Y-110470000D02*
X176255000Y-110470000D01*
X177800000Y-116020000D02*
G75*
G02*
X176255170Y-110470000I0J2990000D01*
G01*
X179344830Y-110470000D02*
G75*
G02*
X177800000Y-116020000I-1544830J-2560000D01*
G01*
X180300000Y-113030000D02*
G75*
G02*
X175300000Y-113030000I-2500000J0D01*
G01*
X175300000Y-113030000D02*
G75*
G02*
X180300000Y-113030000I2500000J0D01*
G01*
%TO.C,R4*%
X149860000Y-92480000D02*
X149860000Y-93250000D01*
X149860000Y-100560000D02*
X149860000Y-99790000D01*
X151230000Y-93250000D02*
X148490000Y-93250000D01*
X148490000Y-99790000D01*
X151230000Y-99790000D01*
X151230000Y-93250000D01*
%TO.C,D1*%
X118385000Y-110470000D02*
X115295000Y-110470000D01*
X116840000Y-116020000D02*
G75*
G02*
X115295170Y-110470000I0J2990000D01*
G01*
X118384830Y-110470000D02*
G75*
G02*
X116840000Y-116020000I-1544830J-2560000D01*
G01*
X119340000Y-113030000D02*
G75*
G02*
X114340000Y-113030000I-2500000J0D01*
G01*
X114340000Y-113030000D02*
G75*
G02*
X119340000Y-113030000I2500000J0D01*
G01*
%TO.C,D6*%
X194585000Y-110470000D02*
X191495000Y-110470000D01*
X193040000Y-116020000D02*
G75*
G02*
X191495170Y-110470000I0J2990000D01*
G01*
X194584830Y-110470000D02*
G75*
G02*
X193040000Y-116020000I-1544830J-2560000D01*
G01*
X195540000Y-113030000D02*
G75*
G02*
X190540000Y-113030000I-2500000J0D01*
G01*
X190540000Y-113030000D02*
G75*
G02*
X195540000Y-113030000I2500000J0D01*
G01*
%TO.C,R9*%
X122360000Y-111860000D02*
X122360000Y-114660000D01*
X126560000Y-111860000D02*
X126560000Y-114660000D01*
X122360000Y-111860000D02*
G75*
G02*
X126569242Y-111873963I2100000J-1400000D01*
G01*
X126560000Y-114660000D02*
G75*
G02*
X122350758Y-114646037I-2100000J1400000D01*
G01*
%TO.C,D2*%
X133625000Y-110470000D02*
X130535000Y-110470000D01*
X132080000Y-116020000D02*
G75*
G02*
X130535170Y-110470000I0J2990000D01*
G01*
X133624830Y-110470000D02*
G75*
G02*
X132080000Y-116020000I-1544830J-2560000D01*
G01*
X134580000Y-113030000D02*
G75*
G02*
X129580000Y-113030000I-2500000J0D01*
G01*
X129580000Y-113030000D02*
G75*
G02*
X134580000Y-113030000I2500000J0D01*
G01*
%TO.C,R12*%
X168080000Y-111860000D02*
X168080000Y-114660000D01*
X172280000Y-111860000D02*
X172280000Y-114660000D01*
X168080000Y-111860000D02*
G75*
G02*
X172289242Y-111873963I2100000J-1400000D01*
G01*
X172280000Y-114660000D02*
G75*
G02*
X168070758Y-114646037I-2100000J1400000D01*
G01*
%TO.C,R6*%
X185420000Y-92480000D02*
X185420000Y-93250000D01*
X185420000Y-100560000D02*
X185420000Y-99790000D01*
X186790000Y-93250000D02*
X184050000Y-93250000D01*
X184050000Y-99790000D01*
X186790000Y-99790000D01*
X186790000Y-93250000D01*
%TO.C,R2*%
X124460000Y-92480000D02*
X124460000Y-93250000D01*
X124460000Y-100560000D02*
X124460000Y-99790000D01*
X125830000Y-93250000D02*
X123090000Y-93250000D01*
X123090000Y-99790000D01*
X125830000Y-99790000D01*
X125830000Y-93250000D01*
%TO.C,R15*%
X109220000Y-92480000D02*
X109220000Y-93250000D01*
X109220000Y-100560000D02*
X109220000Y-99790000D01*
X110590000Y-93250000D02*
X107850000Y-93250000D01*
X107850000Y-99790000D01*
X110590000Y-99790000D01*
X110590000Y-93250000D01*
%TO.C,D4*%
X164105000Y-110470000D02*
X161015000Y-110470000D01*
X162560000Y-116020000D02*
G75*
G02*
X161015170Y-110470000I0J2990000D01*
G01*
X164104830Y-110470000D02*
G75*
G02*
X162560000Y-116020000I-1544830J-2560000D01*
G01*
X165060000Y-113030000D02*
G75*
G02*
X160060000Y-113030000I-2500000J0D01*
G01*
X160060000Y-113030000D02*
G75*
G02*
X165060000Y-113030000I2500000J0D01*
G01*
%TO.C,J2*%
X158640000Y-95140000D02*
X160020000Y-95140000D01*
X158640000Y-96520000D02*
X158640000Y-95140000D01*
X158640000Y-97790000D02*
X158640000Y-100440000D01*
X158640000Y-97790000D02*
X161400000Y-97790000D01*
X158640000Y-100440000D02*
X161400000Y-100440000D01*
X161400000Y-97790000D02*
X161400000Y-100440000D01*
%TD*%
M02*
